<svg width="20" height="20" viewBox="0 0 20 20" fill="none" xmlns="http://www.w3.org/2000/svg">
<path d="M13.78 13.8397C13.78 13.8397 16.64 10.9997 17.61 9.99973C20.68 6.99973 19.15 0.81973 19.15 0.81973C19.15 0.81973 13 -0.71027 10 2.35973C7.66 4.63973 6.14 6.21973 6.14 6.21973C6.14 6.21973 2.3 5.41973 0 7.71973L12.25 19.9997C14.55 17.6697 13.78 13.8397 13.78 13.8397ZM12.28 4.83973C12.4657 4.65378 12.6863 4.50626 12.9291 4.40561C13.1719 4.30496 13.4322 4.25316 13.695 4.25316C13.9578 4.25316 14.2181 4.30496 14.4609 4.40561C14.7037 4.50626 14.9243 4.65378 15.11 4.83973C15.3895 5.11952 15.5797 5.47589 15.6567 5.86379C15.7337 6.2517 15.694 6.65371 15.5425 7.01904C15.3911 7.38436 15.1348 7.69659 14.8059 7.91625C14.4771 8.13591 14.0905 8.25316 13.695 8.25316C13.2995 8.25316 12.9129 8.13591 12.5841 7.91625C12.2552 7.69659 11.9989 7.38436 11.8475 7.01904C11.696 6.65371 11.6563 6.2517 11.7333 5.86379C11.8103 5.47589 12.0005 5.11952 12.28 4.83973ZM1 18.9997C2.85107 18.9469 4.62315 18.2381 6 16.9997L3 13.9997C1 14.9997 1 18.9997 1 18.9997Z" fill="white"/>
</svg>
