<svg width="50" height="50" viewBox="0 0 50 50" fill="none" xmlns="http://www.w3.org/2000/svg">
<g clip-path="url(#clip0_337_100)">
<circle cx="25" cy="25" r="24" stroke="#FF2D55" stroke-width="2"/>
<path d="M33.8967 15H16.1033C15.4942 15 15 15.4942 15 16.1033V33.8967C15 34.5067 15.4942 35 16.1033 35H25.6817V27.255H23.0742V24.2375H25.6817V22.0083C25.6817 19.4258 27.26 18.0208 29.5642 18.0208C30.6683 18.0208 31.6175 18.1017 31.8942 18.1383V20.8383H30.2933C29.0433 20.8383 28.8 21.4392 28.8 22.3142V24.24H31.7867L31.3992 27.265H28.8V35H33.8958C34.5067 35 35 34.5067 35 33.8967V16.1033C35 15.4942 34.5067 15 33.8967 15Z" fill="white"/>
</g>
<defs>
<clipPath id="clip0_337_100">
<rect width="50" height="50" fill="white"/>
</clipPath>
</defs>
</svg>
