<svg width="64" height="67" viewBox="0 0 64 67" fill="none" xmlns="http://www.w3.org/2000/svg">
<rect width="64" height="64" rx="12" fill="url(#paint0_radial_684_4)"/>
<g filter="url(#filter0_d_684_4)">
<path d="M22.6641 35.6498C21.6615 36.7661 23.7335 37.8825 23.078 38.3485C22.2605 38.9271 23.2065 39.8054 23.6795 39.9437C24.9418 40.3124 24.3197 42.0586 25.402 41.9383C25.9959 41.8665 25.8236 41.4697 26.4406 41.0216C26.9676 40.6375 27.3558 40.9013 28.2865 40.5301C28.9626 40.2611 28.8417 40.9704 29.4022 40.932C29.9627 40.891 30.3303 40.4635 30.4897 41.0292C30.6491 41.5951 29.0808 42.0176 30.1066 43.0188C30.6207 43.5207 30.7037 43.6666 31.0654 44.1637C31.2033 44.3533 31.5452 44.9947 31.4815 45.6145C31.337 46.4456 31.7159 47.6712 32.6132 48.2473C33.3407 48.7159 32.3921 50.3085 32.7339 50.562C33.8523 51.3941 36.0658 49.0359 35.7393 47.369C35.5182 46.2348 37.2613 46.2117 37.5825 45.2132C37.9039 44.2146 36.3409 42.9394 38.5852 41.7001C40.8295 40.4635 40.5879 39.4649 40.5879 39.4649C29.8367 40.2996 22.6641 35.6498 22.6641 35.6498Z" fill="url(#paint1_radial_684_4)"/>
<path d="M45.2579 41.1445C45.7823 40.9423 46.4276 39.3215 46.4276 37.757C46.4276 37.757 45.9417 38.1206 44.975 38.4176C45.6641 39.685 44.7642 41.334 45.2579 41.1445Z" fill="url(#paint2_radial_684_4)"/>
<path d="M38.4737 45.7353C38.0367 46.3883 37.2911 46.4318 37.4222 47.0438C37.5533 47.6557 36.854 48.004 37.029 48.5699C37.2037 49.1356 38.628 47.6557 38.6126 46.8159C38.5997 46.1194 40.137 45.7353 39.61 44.9928C39.4146 44.7188 38.9108 45.0825 38.4737 45.7353Z" fill="url(#paint3_radial_684_4)"/>
<path d="M49.8913 31.7143C49.8039 31.361 49.6651 31.0281 49.498 30.7234C49.4132 30.5698 49.3206 30.4238 49.2229 30.2855C49.1252 30.1447 49.0224 30.0091 48.917 29.881C48.7036 29.6224 48.4722 29.3843 48.2305 29.1615C47.7499 28.716 47.2305 28.3293 46.6932 27.9837C46.4258 27.8095 46.1534 27.6457 45.8757 27.4894C45.7369 27.4101 45.5981 27.3359 45.4592 27.2617C45.3204 27.1874 45.179 27.1132 45.0376 27.0414C44.472 26.7572 43.8935 26.4986 43.31 26.2656C43.017 26.1478 42.7239 26.0351 42.4256 25.9277C42.2765 25.8738 42.1274 25.8227 41.9783 25.7714C41.8703 25.7356 41.7649 25.6997 41.6569 25.6639C41.6389 25.5666 41.6236 25.4692 41.6056 25.3694C41.5309 24.9162 41.4642 24.463 41.3999 24.0047C41.3357 23.5489 41.274 23.088 41.2148 22.6297L41.0349 21.247L40.9397 20.5532C40.9089 20.3227 40.8755 20.0897 40.8395 19.8593C40.806 19.6288 40.7675 19.3958 40.7315 19.1654C40.6929 18.9349 40.6544 18.7019 40.6132 18.4715C40.5721 18.241 40.5258 18.0106 40.477 17.7776C40.4281 17.5472 40.3767 17.3167 40.3201 17.0863C40.207 16.6254 40.0733 16.1696 39.9191 15.7138C39.7648 15.2581 39.5874 14.8074 39.3587 14.367C39.1299 13.9292 38.8471 13.5016 38.4794 13.1303C38.3869 13.0381 38.2918 12.9485 38.1889 12.8666C38.0887 12.7821 37.9807 12.7053 37.8701 12.631C37.8418 12.6131 37.8161 12.5952 37.7853 12.5773L37.7442 12.5517C37.739 12.5465 37.7262 12.5414 37.7184 12.5363L37.6902 12.5209C37.6156 12.48 37.5385 12.4441 37.4512 12.4134C37.2815 12.3545 37.0835 12.3315 36.9036 12.3519C36.721 12.3699 36.559 12.4262 36.4202 12.4876C36.2814 12.5517 36.1631 12.6233 36.0577 12.695C35.9497 12.7667 35.8546 12.8384 35.7621 12.9024C35.6721 12.969 35.5847 13.0279 35.505 13.0766C35.4227 13.1278 35.3481 13.1636 35.2787 13.1867C35.2093 13.2097 35.1503 13.2199 35.091 13.2174C35.0629 13.2174 35.032 13.2097 35.0036 13.202C34.9729 13.1943 34.942 13.1815 34.9112 13.1662C34.8469 13.1354 34.7801 13.0868 34.7132 13.0279C34.5461 12.882 34.379 12.7181 34.2067 12.5517C34.0345 12.3852 33.8597 12.2111 33.6668 12.0447C33.4766 11.8757 33.2683 11.7169 33.0448 11.571C32.8184 11.4276 32.5717 11.3047 32.3121 11.2125C32.0524 11.1178 31.7799 11.0589 31.5099 11.0282C31.4431 11.023 31.3737 11.0154 31.3068 11.0102C31.24 11.0077 31.1706 11.0026 31.1037 11C31.0369 11 30.97 11 30.9006 11L30.7002 11.0077C30.6332 11.0128 30.5691 11.0179 30.5022 11.0256C30.4354 11.0333 30.3711 11.0435 30.3068 11.0512C30.2425 11.0589 30.1783 11.0717 30.114 11.0819L30.0652 11.0896L30.0137 11.0999C29.9932 11.105 29.9726 11.1075 29.9546 11.1127L29.9006 11.1255C29.7618 11.1588 29.6409 11.1972 29.5227 11.2356C29.4044 11.274 29.2887 11.3149 29.1756 11.3585C28.9468 11.443 28.7257 11.5326 28.5073 11.6273C28.2862 11.7195 28.0702 11.8168 27.8542 11.9141C27.4223 12.1112 26.9955 12.3135 26.5688 12.5209C26.1446 12.7283 25.7179 12.9383 25.2988 13.1559C25.1934 13.2097 25.088 13.266 24.9826 13.3224C24.8772 13.3787 24.7718 13.435 24.669 13.4914C24.4607 13.6066 24.2525 13.7295 24.0468 13.8575C23.8412 13.9881 23.6406 14.1238 23.4427 14.2774C23.345 14.3542 23.2473 14.4362 23.1496 14.5232C23.0545 14.6128 22.9594 14.7076 22.8694 14.8177L22.836 14.8612L22.8128 14.8919L22.8077 14.8996L22.7563 14.9687L22.6534 15.1096L22.4478 15.3938C22.3115 15.5833 22.1753 15.7779 22.0416 15.9725C21.9079 16.167 21.7768 16.3642 21.6483 16.5639C21.5197 16.7636 21.3963 16.971 21.2781 17.181C21.2189 17.286 21.1624 17.3935 21.1058 17.5062C21.0518 17.6163 20.9978 17.7289 20.949 17.8467C20.9001 17.9645 20.8539 18.0874 20.8179 18.2206C20.7845 18.3409 20.7536 18.4612 20.7279 18.5816C20.6251 19.0578 20.5608 19.529 20.5068 20.0001C20.4554 20.4687 20.4168 20.9372 20.3834 21.4058C20.35 21.8744 20.3243 22.3404 20.3037 22.8064C20.2832 23.2724 20.2626 23.741 20.2497 24.207L20.2472 24.3119C20.1932 24.2915 20.1392 24.271 20.0852 24.2531C19.7793 24.1455 19.4708 24.0534 19.1571 23.9739C19.0003 23.9355 18.8435 23.8971 18.6867 23.8639C18.5298 23.8306 18.3705 23.8024 18.2111 23.7768C18.0517 23.7512 17.8897 23.7282 17.7278 23.7077C17.5658 23.6898 17.4038 23.6744 17.2393 23.6641C17.0748 23.6539 16.9077 23.6488 16.7406 23.6488C16.5735 23.6488 16.4038 23.6565 16.2315 23.6744C16.0593 23.6897 15.8845 23.7153 15.7071 23.7563C15.5297 23.7973 15.3497 23.8485 15.1672 23.9278C14.9847 24.0073 14.7996 24.1147 14.6325 24.2684C14.5476 24.3452 14.4705 24.4323 14.4011 24.5296C14.3677 24.5782 14.3343 24.6295 14.3086 24.6806C14.2854 24.7242 14.2649 24.7651 14.2443 24.8112C14.0798 25.162 13.9975 25.5537 14.0001 25.9301C14.0001 26.3091 14.0772 26.6702 14.1929 27.003C14.3086 27.3359 14.4602 27.6431 14.6299 27.9324C14.9744 28.5086 15.3832 29.0155 15.8176 29.4919C16.0541 29.7504 16.2984 29.9962 16.5503 30.2344C16.3549 30.7132 16.1775 31.1996 16.0259 31.6938C15.8433 32.2878 15.6968 32.8947 15.5785 33.5041C15.4629 34.1135 15.3806 34.7305 15.3369 35.3502C15.2932 35.9699 15.2829 36.5895 15.306 37.2091C15.3523 38.4483 15.5348 39.6851 15.8639 40.8808L15.9256 41.1061C15.9462 41.1804 15.9693 41.2547 15.9925 41.3289C16.0156 41.4032 16.0361 41.4774 16.0619 41.5517L16.1698 41.882L16.2855 42.2123C16.3112 42.2865 16.3395 42.3582 16.3678 42.4299L16.45 42.6476C16.6789 43.2236 16.9411 43.7869 17.2342 44.3349L17.2881 44.4373L17.3447 44.5397L17.4578 44.742C17.4964 44.8112 17.5375 44.8752 17.5761 44.9418L17.6943 45.1414C17.8589 45.4052 18.026 45.6664 18.2033 45.9199C18.5581 46.4293 18.9386 46.921 19.3474 47.3871C19.7561 47.853 20.1932 48.2986 20.6508 48.7159C21.111 49.1359 21.5943 49.525 22.0982 49.8886C22.2241 49.9808 22.3527 50.0678 22.4786 50.1574C22.5429 50.2035 22.6072 50.2445 22.6714 50.288L22.8668 50.416L23.0648 50.5389C23.1316 50.5799 23.1959 50.6209 23.2627 50.6618C23.3964 50.7412 23.5301 50.8206 23.6664 50.8949C24.2088 51.1995 24.7667 51.4735 25.3425 51.7142C26.4916 52.1931 27.6923 52.5514 28.9185 52.7589C29.533 52.8639 30.1526 52.9356 30.7722 52.9714C31.3942 53.0073 32.0164 53.0099 32.6386 52.9765C33.2606 52.9433 33.8802 52.8741 34.4947 52.7717L34.6104 52.7538L34.7261 52.7333L34.9549 52.6898C35.032 52.677 35.1066 52.659 35.1836 52.6411L35.4124 52.5925C35.5641 52.5566 35.7158 52.5208 35.8675 52.4824L36.2068 52.3902L36.32 52.3569C38.716 51.6707 40.9449 50.4186 42.7881 48.7492C44.634 47.0797 46.0943 44.9879 47.0171 42.6782C47.2485 42.0996 47.4439 41.5106 47.6059 40.9089C47.7678 40.3098 47.899 39.7004 47.9915 39.0859C48.0841 38.4714 48.1405 37.8518 48.1638 37.2296C48.1715 37.0733 48.1715 36.9198 48.1741 36.7635C48.1765 36.6074 48.1765 36.4537 48.1715 36.2924C48.1662 36.1568 48.1586 36.0159 48.1458 35.8802C48.2615 35.7957 48.3745 35.7061 48.485 35.6114C48.7524 35.3809 49.0018 35.1223 49.2203 34.8304C49.4389 34.5411 49.6214 34.2133 49.7551 33.8676C49.8888 33.522 49.9659 33.1559 49.9942 32.7923C50.0147 32.4415 49.9813 32.0677 49.8913 31.7143ZM21.1727 22.8499C21.1855 22.389 21.2035 21.9281 21.2266 21.4698C21.2524 21.0115 21.2832 20.5532 21.3269 20.1C21.3732 19.6467 21.4297 19.1961 21.5172 18.7659C21.5403 18.6584 21.5634 18.5534 21.5917 18.451C21.6174 18.3614 21.6508 18.2641 21.6894 18.1693C21.7022 18.1412 21.7125 18.1105 21.7254 18.0823C21.7691 18.1002 21.8154 18.1181 21.8591 18.1335C21.9953 18.1847 22.1316 18.2257 22.2653 18.2667C22.5352 18.3435 22.8077 18.4075 23.0776 18.4612C23.3476 18.5176 23.6227 18.5585 23.8952 18.5944C24.1677 18.6302 24.4427 18.6584 24.7153 18.6763C24.9903 18.6968 25.2628 18.7096 25.5379 18.7147C25.813 18.7199 26.0881 18.7147 26.3606 18.7019C26.9107 18.6763 27.4583 18.6174 28.0008 18.5201C28.2707 18.4715 28.5407 18.41 28.808 18.3358C29.0753 18.2615 29.3376 18.1745 29.5947 18.072C29.8518 17.9696 30.1037 17.8544 30.348 17.7187C30.5896 17.583 30.8236 17.4319 31.042 17.2629C31.4791 16.9224 31.857 16.505 32.1398 16.0339C32.2838 15.8009 32.3943 15.55 32.4869 15.2939C32.5126 15.2299 32.5306 15.1659 32.5512 15.1019L32.582 15.0046C32.5923 14.9713 32.6 14.938 32.6077 14.9073L32.6334 14.81L32.6463 14.7613L32.6566 14.7127L32.6951 14.5155L32.6283 14.705L32.6129 14.7511L32.5589 14.8894C32.546 14.9201 32.5357 14.9508 32.5229 14.9816L32.4817 15.0712C32.4535 15.1326 32.4277 15.1915 32.3969 15.2504L32.3506 15.3375C32.3352 15.3656 32.3198 15.3964 32.3018 15.4245C32.2683 15.4808 32.2349 15.5397 32.2015 15.5935L32.0935 15.7574L31.9778 15.9161C31.6616 16.3335 31.2683 16.6792 30.8312 16.9531C30.6152 17.0914 30.3865 17.2117 30.1526 17.3167C29.9186 17.4217 29.6744 17.5087 29.4276 17.583C29.1807 17.6573 28.9288 17.7161 28.6768 17.7673C28.425 17.8186 28.1679 17.857 27.9108 17.8877C27.3966 17.944 26.8747 17.9645 26.3554 17.9517C26.2912 17.9491 26.2243 17.9491 26.1601 17.9466C25.214 17.857 22.3655 17.0709 23.5918 15.2197C23.6252 15.1864 23.6586 15.1531 23.6946 15.1198C23.7692 15.0507 23.8515 14.9841 23.9363 14.9175C24.106 14.787 24.2885 14.664 24.4787 14.5437C24.8566 14.3081 25.2577 14.0905 25.6665 13.8882C25.8721 13.7884 26.0778 13.6885 26.286 13.5963C26.4942 13.5016 26.705 13.412 26.9184 13.3224C27.3426 13.1457 27.772 12.9818 28.2039 12.8282C28.6357 12.6746 29.0702 12.526 29.5047 12.4006C29.6127 12.3699 29.7206 12.3391 29.8286 12.311C29.934 12.2828 30.042 12.2572 30.1371 12.2393C30.1603 12.2342 30.1834 12.2316 30.204 12.229C30.2143 12.2265 30.2271 12.2265 30.24 12.2239L30.2785 12.2188C30.3325 12.2137 30.3839 12.2034 30.4379 12.2009C30.4919 12.1957 30.5432 12.1906 30.5972 12.1881C30.6488 12.1855 30.7026 12.1829 30.7542 12.1804C30.9623 12.1727 31.1706 12.1829 31.3737 12.2085L31.5253 12.229L31.6745 12.2572C31.7722 12.2802 31.8724 12.3033 31.9675 12.3315C32.0164 12.3468 32.0652 12.3596 32.1115 12.3775C32.1347 12.3852 32.1604 12.3929 32.1835 12.4031C32.2066 12.4134 32.2298 12.4211 32.2555 12.4313C32.3043 12.4492 32.3506 12.4697 32.3969 12.4902C32.4432 12.5107 32.4895 12.5337 32.5383 12.5542C32.7234 12.6464 32.9058 12.7514 33.0858 12.8717C33.2658 12.992 33.4432 13.1252 33.618 13.266C33.7954 13.4068 33.9702 13.5579 34.1605 13.7115C34.2736 13.8012 34.397 13.8882 34.5435 13.9574C34.6901 14.0265 34.8572 14.0777 35.0346 14.0905C35.2093 14.1033 35.3867 14.0828 35.541 14.0393C35.6952 13.9958 35.8315 13.9343 35.9523 13.8703C36.0731 13.8063 36.1837 13.7372 36.284 13.6731C36.3868 13.6091 36.4793 13.5477 36.5693 13.4914C36.613 13.4657 36.6567 13.4401 36.6979 13.4171C36.739 13.3941 36.7801 13.3736 36.8161 13.3582C36.8907 13.3249 36.955 13.3096 37.009 13.3019C37.063 13.2967 37.1067 13.3019 37.1581 13.3172C37.1838 13.3249 37.2121 13.3377 37.2429 13.3531L37.2532 13.3582C37.2582 13.3608 37.2608 13.3608 37.2661 13.3659L37.2995 13.3838C37.3225 13.3966 37.3432 13.4094 37.3638 13.4222C37.5359 13.5298 37.6979 13.6501 37.8521 13.7884C38.1606 14.0623 38.428 14.3952 38.6568 14.7665C38.8856 15.1352 39.0733 15.5397 39.2302 15.9597C39.3073 16.1696 39.3767 16.3847 39.441 16.5998C39.5027 16.8174 39.5617 17.0351 39.6131 17.2553C39.7185 17.6957 39.8085 18.1437 39.8831 18.5969C39.9216 18.8223 39.9576 19.0502 39.9911 19.2755C40.0245 19.5034 40.0553 19.7312 40.0836 19.9591C40.1993 20.8732 40.2919 21.7924 40.3818 22.7193C40.4204 23.1136 40.459 23.508 40.5027 23.9023C40.4461 23.8792 40.3895 23.8587 40.333 23.8383C40.2199 23.7998 40.1042 23.764 39.9885 23.7384C39.9319 23.723 39.8728 23.7102 39.8162 23.7C39.7571 23.6897 39.7005 23.6795 39.6414 23.6693C39.5257 23.6488 39.41 23.6385 39.2944 23.6257C39.063 23.6052 38.8368 23.6001 38.6106 23.5976C38.1581 23.5976 37.7133 23.6257 37.2738 23.6667C36.8341 23.7077 36.3997 23.764 35.9677 23.8254C35.104 23.9535 34.253 24.1123 33.4046 24.2633C32.5563 24.4143 31.713 24.5654 30.8672 24.6883C30.6565 24.719 30.4457 24.7472 30.2323 24.7754C30.0214 24.8009 29.8106 24.8266 29.5972 24.847C29.3864 24.8675 29.173 24.883 28.9622 24.8983C28.8568 24.9059 28.7514 24.9085 28.646 24.9111C28.5407 24.9136 28.4353 24.9162 28.3299 24.9162C28.2245 24.9162 28.1191 24.9188 28.0136 24.9162C27.9597 24.9162 27.9082 24.9162 27.8568 24.9136L27.6974 24.9085C27.484 24.9035 27.2706 24.8932 27.0573 24.883C26.6305 24.8625 26.2038 24.8369 25.7796 24.8009C25.3554 24.7651 24.9338 24.7216 24.5147 24.6653C24.0957 24.609 23.6792 24.5424 23.2705 24.4579C22.8617 24.376 22.4581 24.271 22.0699 24.1429C21.8771 24.0789 21.6868 24.0073 21.4992 23.9278C21.386 23.8818 21.2781 23.8306 21.1649 23.7794C21.1598 23.4747 21.1649 23.1623 21.1727 22.8499ZM21.1804 24.7293C21.3912 24.8087 21.6046 24.8804 21.8205 24.9418C22.0365 25.0059 22.2524 25.0596 22.4683 25.1083C22.6843 25.1594 22.9028 25.203 23.1188 25.2415C23.5532 25.3208 23.9877 25.3771 24.4222 25.4232C24.8566 25.4692 25.2911 25.5026 25.7282 25.5282C26.1626 25.5537 26.5971 25.5692 27.0315 25.5794C27.2475 25.5819 27.466 25.5871 27.682 25.5871L28.0085 25.5897C28.1191 25.5897 28.2296 25.5897 28.3376 25.5871C28.448 25.5845 28.556 25.5819 28.6667 25.5768L28.9956 25.564C29.2142 25.5563 29.4327 25.5435 29.6512 25.5282C29.8698 25.5128 30.0857 25.4974 30.3043 25.4795C30.5202 25.4616 30.7386 25.4411 30.9546 25.4181C31.821 25.3284 32.6797 25.2158 33.5332 25.1006C34.3867 24.9854 35.2376 24.8701 36.0834 24.7806C36.5051 24.737 36.9267 24.7011 37.3458 24.678C37.7647 24.6577 38.1786 24.6499 38.5848 24.6653C38.788 24.673 38.9885 24.6883 39.1839 24.7114C39.3793 24.7319 39.5721 24.7625 39.7571 24.8035C39.9422 24.8446 40.1196 24.8983 40.2867 24.9598L40.3484 24.9828L40.4101 25.0084C40.4513 25.0238 40.4898 25.0417 40.5284 25.0596C40.5644 25.0775 40.6004 25.0954 40.6364 25.1134C40.6544 25.2439 40.6698 25.3771 40.6878 25.5077C40.7521 25.9737 40.824 26.4397 40.9114 26.9058C40.9911 27.3256 41.0837 27.743 41.1711 28.168C41.1531 28.2116 41.1351 28.2551 41.1146 28.2986C41.076 28.378 41.0271 28.4522 40.968 28.5239C40.8523 28.6673 40.7083 28.8005 40.5412 28.9157C40.3741 29.031 40.189 29.1384 39.9911 29.2281C39.7931 29.3177 39.5874 29.4022 39.3741 29.4738C39.1607 29.5456 38.9422 29.607 38.7211 29.6659C38.2763 29.7786 37.8187 29.8605 37.3535 29.927C36.8907 29.9936 36.4202 30.0372 35.9497 30.0705C35.4793 30.1037 35.0037 30.1217 34.5307 30.1268C33.582 30.137 32.6283 30.1037 31.677 30.0295C29.7746 29.8759 27.8825 29.5482 26.0469 29.0463C25.8181 28.9823 25.5893 28.9183 25.3631 28.8465C25.1369 28.7749 24.9106 28.7006 24.687 28.6238C24.2396 28.4675 23.8 28.2986 23.3707 28.1092C22.9414 27.9197 22.5223 27.7097 22.129 27.4741C21.7922 27.2719 21.4683 27.0491 21.1829 26.8032C21.1778 26.6394 21.1727 26.4755 21.1701 26.3117C21.1649 26.0812 21.1598 25.8508 21.1572 25.6203C21.1547 25.3208 21.1521 25.0186 21.1521 24.7191C21.1624 24.7216 21.1701 24.7242 21.1804 24.7293ZM47.1123 37.2142C47.1097 37.798 47.0686 38.3792 46.9966 38.9579C46.9272 39.5365 46.8166 40.1127 46.6752 40.6811L46.6212 40.8936L46.5621 41.1061C46.5235 41.247 46.4798 41.3879 46.4387 41.5287L46.4078 41.6336L46.3744 41.7386L46.305 41.9486C46.2818 42.0177 46.2561 42.0868 46.2304 42.156C46.2047 42.2251 46.1817 42.2942 46.156 42.3634C45.3281 44.5602 43.9732 46.5677 42.2354 48.1705C41.8009 48.5726 41.3434 48.9464 40.8652 49.2971L40.7752 49.3637L40.6852 49.4278L40.5027 49.5557C40.4435 49.5992 40.3793 49.6376 40.3176 49.6812L40.1325 49.8042C39.8831 49.9629 39.6311 50.119 39.3716 50.2625C38.8548 50.5543 38.3226 50.8181 37.7776 51.0511C37.2301 51.2814 36.6722 51.4812 36.1014 51.6502L35.996 51.6809L35.888 51.7117L35.6721 51.7705C35.5281 51.8089 35.3841 51.8423 35.2403 51.8781L35.0216 51.9268C34.9496 51.9421 34.8778 51.96 34.8032 51.9728L34.5847 52.0163L34.4741 52.0368L34.3636 52.0547C33.7774 52.1571 33.1861 52.2263 32.5923 52.2621C31.9984 52.2955 31.4019 52.2955 30.8082 52.2621C30.2143 52.2289 29.623 52.1623 29.0368 52.0624L28.9262 52.0445L28.8157 52.024L28.5971 51.9831C28.4507 51.9549 28.3067 51.9216 28.1602 51.8909L27.9442 51.8397C27.8722 51.8218 27.8003 51.8064 27.7283 51.7859L27.5123 51.727L27.4043 51.6988L27.2964 51.6681L27.083 51.6041C27.011 51.5836 26.9416 51.558 26.8696 51.5375C26.8002 51.5145 26.7282 51.4914 26.6588 51.4685L26.4479 51.3941C26.1678 51.2969 25.8901 51.1842 25.6176 51.0716C25.4993 51.0203 25.3811 50.9692 25.2654 50.9153C25.2525 50.4417 25.1034 50.0961 24.7153 49.9168C23.9671 49.5711 23.9569 48.3497 22.71 48.0297C22.1521 47.8862 21.8051 47.1131 21.3783 45.2925C20.967 43.5386 20.3037 44.4706 18.9977 44.1275C17.7586 43.8024 18.3242 42.9317 17.7843 42.5068C17.3807 42.1892 17.1236 41.987 16.9591 41.8564C16.828 41.4774 16.7097 41.0908 16.6069 40.7016C16.4578 40.1306 16.3395 39.552 16.2572 38.9656C16.1775 38.3818 16.1287 37.7929 16.1158 37.2014C16.1004 36.6125 16.1236 36.021 16.1775 35.4347C16.2315 34.8483 16.3215 34.2645 16.4449 33.691C16.5657 33.1148 16.7277 32.549 16.9179 31.9959C16.9411 31.9269 16.9642 31.8577 16.9899 31.7885L17.0671 31.5811L17.1056 31.4787C17.1185 31.4455 17.1339 31.4096 17.1467 31.3763L17.229 31.1715C17.2547 31.1023 17.2856 31.0357 17.3139 30.9691L17.3241 30.9462C17.7663 31.3174 18.2213 31.6656 18.6867 32.0036C19.1983 32.3723 19.7227 32.7231 20.2549 33.0585C20.3885 33.143 20.5222 33.225 20.6559 33.3069C20.7896 33.3888 20.9259 33.4707 21.0595 33.5502C21.3295 33.7115 21.602 33.865 21.8771 34.0187C22.9774 34.6281 24.1085 35.1787 25.268 35.6703C25.4119 35.7317 25.5585 35.7931 25.7024 35.852L25.921 35.9417L26.1446 36.0313C26.4428 36.1465 26.7436 36.254 27.0444 36.3539C27.3452 36.4537 27.6486 36.5485 27.9545 36.6356C28.2579 36.7226 28.5637 36.8045 28.8697 36.8838C29.4815 37.0401 30.0986 37.1783 30.7156 37.3013C31.3325 37.4242 31.9547 37.5342 32.5769 37.6265C33.8237 37.8134 35.0756 37.949 36.3354 38.0259C36.649 38.0438 36.9653 38.0617 37.2815 38.072C37.5976 38.0822 37.9138 38.0899 38.2301 38.0925C38.8625 38.0975 39.495 38.0899 40.1299 38.0592C40.7649 38.0285 41.3974 37.9798 42.0323 37.9056C42.6673 37.8287 43.2998 37.7314 43.9321 37.6008C44.2483 37.5342 44.5646 37.4626 44.8782 37.3781C44.9579 37.3576 45.035 37.3346 45.1147 37.3141C45.1919 37.291 45.2716 37.268 45.3487 37.2449C45.5055 37.1963 45.6598 37.1451 45.8166 37.0913C46.1277 36.9838 46.4361 36.8583 46.7395 36.7226C46.8603 36.6663 46.9786 36.61 47.0968 36.5485C47.0994 36.6253 47.102 36.7047 47.102 36.784C47.1097 36.9223 47.1148 37.0683 47.1123 37.2142ZM48.8681 32.6976C48.8347 32.9535 48.7678 33.2019 48.6624 33.4349C48.557 33.6679 48.4209 33.8881 48.2512 34.0905C48.1662 34.1903 48.0764 34.2876 47.9787 34.3824C47.881 34.4745 47.7781 34.5641 47.6702 34.6486C47.5622 34.7331 47.4491 34.815 47.3334 34.8918C47.2768 34.9302 47.2151 34.9687 47.156 35.0045C47.0943 35.0404 47.0351 35.0762 46.9734 35.1121C46.7266 35.2503 46.467 35.3784 46.1997 35.4911C45.9323 35.6037 45.6572 35.7061 45.3795 35.8009C44.8217 35.9878 44.2406 36.1337 43.6545 36.2592C43.0658 36.3821 42.4693 36.4768 41.8677 36.5485C41.2662 36.6227 40.6621 36.6766 40.0528 36.7149C39.4461 36.7508 38.8342 36.7738 38.2249 36.779C37.613 36.7866 37.0038 36.7764 36.3919 36.7559C35.1683 36.7098 33.9471 36.6176 32.7311 36.4692C31.5151 36.3206 30.3068 36.1183 29.119 35.8469C28.5253 35.7112 27.9365 35.555 27.3555 35.3784C27.065 35.2887 26.7796 35.194 26.4968 35.0916L26.286 35.0123L26.0726 34.9302C25.9595 34.8868 25.8438 34.8407 25.7307 34.7946C25.7436 34.7971 25.7539 34.8023 25.7667 34.8049C19.5273 32.4568 17.1467 28.3703 17.1467 28.3703C22.8643 34.0366 32.1964 36.1926 40.1299 35.7291C41.5439 35.6472 42.3974 35.3374 42.3974 35.3374C40.5541 35.5217 38.6928 35.5319 36.8496 35.3911C35.9266 35.3195 35.0089 35.2094 34.0962 35.0583C33.1861 34.9073 32.2812 34.7126 31.3917 34.4693C30.5022 34.2261 29.6281 33.9368 28.7797 33.586C27.9314 33.2352 27.1087 32.8229 26.34 32.3339C25.9544 32.0907 25.5842 31.8269 25.2346 31.5402C25.0443 31.384 24.8592 31.2227 24.6818 31.0536C23.9157 30.2907 22.9234 29.0795 24.0777 29.3535C24.1857 29.3919 24.2911 29.4303 24.399 29.4662C24.633 29.5456 24.8669 29.6198 25.1034 29.6915C25.34 29.7632 25.5739 29.8323 25.8104 29.8989C26.7565 30.1652 27.7128 30.3829 28.6768 30.5724C29.6409 30.7567 30.6076 30.918 31.5819 31.0588C31.8261 31.0921 32.0704 31.128 32.3146 31.1586C32.5589 31.1894 32.8057 31.2176 33.0498 31.2457C33.5409 31.2995 34.0345 31.3431 34.5332 31.3712C34.7826 31.384 35.0319 31.3968 35.2813 31.4019C35.5307 31.4071 35.7826 31.4096 36.032 31.4045C36.284 31.3994 36.5359 31.3917 36.7879 31.3737C36.9138 31.366 37.0398 31.3558 37.1658 31.3455C37.2918 31.3328 37.4176 31.32 37.5462 31.3046C37.8007 31.2765 38.0527 31.2381 38.3072 31.192C38.5617 31.1484 38.8162 31.0896 39.0708 31.0255C39.5824 30.8949 40.0939 30.7157 40.5901 30.4392C40.8369 30.301 41.0811 30.1345 41.3099 29.9322C41.4231 29.8298 41.5336 29.7196 41.6365 29.5967C41.6879 29.5353 41.7366 29.4713 41.7829 29.4048C41.8293 29.3382 41.8729 29.2665 41.914 29.1948C41.9757 29.0873 42.0271 28.9746 42.0683 28.8568C42.2251 28.9003 42.3819 28.9515 42.5362 29.0105C42.9373 29.1589 43.3332 29.351 43.7085 29.5814C44.0838 29.8119 44.4437 30.0807 44.7728 30.3905C45.1019 30.7003 45.4001 31.0512 45.6469 31.4455C45.503 31.0051 45.2896 30.5826 45.035 30.1857C44.7779 29.7888 44.4746 29.4175 44.1378 29.077C43.8011 28.7365 43.4283 28.4241 43.0247 28.1476C42.7341 27.9479 42.4282 27.7686 42.1043 27.6099C42.0786 27.5254 42.0451 27.446 42.0066 27.3691C41.9553 27.1515 41.9037 26.9339 41.8549 26.7163C41.842 26.6573 41.8293 26.5984 41.8189 26.5396C42.2148 26.6829 42.6082 26.8366 42.9964 27.003C43.5568 27.2411 44.1069 27.5023 44.6417 27.7865C45.1764 28.0708 45.6958 28.3806 46.1867 28.7212C46.6778 29.0616 47.1457 29.4329 47.5596 29.8426C47.971 30.2523 48.3309 30.7055 48.5725 31.1946C48.6933 31.4378 48.7833 31.6887 48.8321 31.9422C48.8912 32.1931 48.9015 32.4466 48.8681 32.6976Z" fill="url(#paint4_radial_684_4)"/>
</g>
<defs>
<filter id="filter0_d_684_4" x="4" y="5" width="56" height="62" filterUnits="userSpaceOnUse" color-interpolation-filters="sRGB">
<feFlood flood-opacity="0" result="BackgroundImageFix"/>
<feColorMatrix in="SourceAlpha" type="matrix" values="0 0 0 0 0 0 0 0 0 0 0 0 0 0 0 0 0 0 127 0" result="hardAlpha"/>
<feOffset dy="4"/>
<feGaussianBlur stdDeviation="5"/>
<feComposite in2="hardAlpha" operator="out"/>
<feColorMatrix type="matrix" values="0 0 0 0 0 0 0 0 0 0 0 0 0 0 0 0 0 0 0.15 0"/>
<feBlend mode="normal" in2="BackgroundImageFix" result="effect1_dropShadow_684_4"/>
<feBlend mode="normal" in="SourceGraphic" in2="effect1_dropShadow_684_4" result="shape"/>
</filter>
<radialGradient id="paint0_radial_684_4" cx="0" cy="0" r="1" gradientUnits="userSpaceOnUse" gradientTransform="translate(23 16) rotate(79.3803) scale(48.8365)">
<stop stop-color="#161616"/>
<stop offset="1" stop-color="#0A0404"/>
</radialGradient>
<radialGradient id="paint1_radial_684_4" cx="0" cy="0" r="1" gradientUnits="userSpaceOnUse" gradientTransform="translate(27.7234 23.7256) rotate(84.9165) scale(57.1405 21.259)">
<stop stop-color="white"/>
<stop offset="1" stop-color="#9E9E9E"/>
</radialGradient>
<radialGradient id="paint2_radial_684_4" cx="0" cy="0" r="1" gradientUnits="userSpaceOnUse" gradientTransform="translate(27.7234 23.7256) rotate(84.9165) scale(57.1405 21.259)">
<stop stop-color="white"/>
<stop offset="1" stop-color="#9E9E9E"/>
</radialGradient>
<radialGradient id="paint3_radial_684_4" cx="0" cy="0" r="1" gradientUnits="userSpaceOnUse" gradientTransform="translate(27.7234 23.7256) rotate(84.9165) scale(57.1405 21.259)">
<stop stop-color="white"/>
<stop offset="1" stop-color="#9E9E9E"/>
</radialGradient>
<radialGradient id="paint4_radial_684_4" cx="0" cy="0" r="1" gradientUnits="userSpaceOnUse" gradientTransform="translate(27.7234 23.7256) rotate(84.9165) scale(57.1405 21.259)">
<stop stop-color="white"/>
<stop offset="1" stop-color="#9E9E9E"/>
</radialGradient>
</defs>
</svg>
