<svg width="49" height="57" viewBox="0 0 49 57" fill="none" xmlns="http://www.w3.org/2000/svg">
<path d="M11.6259 33.21C10.2805 34.714 13.061 36.2181 12.1813 36.846C11.0843 37.6256 12.3538 38.8089 12.9885 38.9952C14.6824 39.4919 13.8475 41.8447 15.2999 41.6825C16.0968 41.5859 15.8656 41.0512 16.6936 40.4475C17.4008 39.9301 17.9217 40.2854 19.1705 39.7852C20.0778 39.4229 19.9156 40.3785 20.6677 40.3268C21.4197 40.2716 21.913 39.6955 22.1269 40.4579C22.3408 41.2203 20.2365 41.7895 21.6129 43.1383C22.3028 43.8145 23.4965 44.2319 24.1105 44.7045C25.1385 45.422 24.5555 46.0223 23.9311 46.6329C23.0031 47.5436 23.7724 49.4065 24.9764 50.1827C25.9527 50.814 24.6797 52.9597 25.1385 53.3012C26.6392 54.4224 29.6094 51.2452 29.1713 48.9994C28.8746 47.4712 31.2135 47.4401 31.6447 46.0947C32.076 44.7493 29.9785 43.0314 32.9901 41.3617C36.0018 39.6955 35.6775 38.3501 35.6775 38.3501C21.2507 39.4747 11.6259 33.21 11.6259 33.21Z" fill="white"/>
<path d="M41.9459 40.6138C42.6496 40.3413 43.5155 38.1576 43.5155 36.0498C43.5155 36.0498 42.8635 36.5397 41.5664 36.9398C42.4909 38.6475 41.2835 40.8691 41.9459 40.6138Z" fill="white"/>
<path d="M32.8414 46.8003C32.2549 47.68 31.2545 47.7386 31.4305 48.5631C31.6064 49.3876 30.6681 49.8568 30.9026 50.6192C31.1372 51.3815 33.0484 49.3876 33.0277 48.2561C33.0104 47.3178 35.0734 46.8003 34.3662 45.7999C34.104 45.4307 33.4279 45.9206 32.8414 46.8003Z" fill="white"/>
<path d="M48.1619 27.9084C48.0446 27.4323 47.8583 26.9839 47.6341 26.5734C47.5203 26.3664 47.3961 26.1697 47.265 25.9834C47.1339 25.7937 46.9959 25.6109 46.8545 25.4384C46.5681 25.09 46.2577 24.7691 45.9334 24.469C45.2883 23.8688 44.5914 23.3478 43.8704 22.8821C43.5117 22.6475 43.146 22.4268 42.7734 22.2163C42.5871 22.1094 42.4008 22.0093 42.2146 21.9093C42.0283 21.8093 41.8385 21.7092 41.6488 21.6126C40.8899 21.2297 40.1137 20.8813 39.3306 20.5674C38.9373 20.4087 38.544 20.2569 38.1439 20.112C37.9438 20.0395 37.7437 19.9705 37.5436 19.9016C37.3987 19.8533 37.2573 19.805 37.1124 19.7567C37.0882 19.6256 37.0675 19.4945 37.0434 19.3599C36.9434 18.7493 36.8537 18.1387 36.7674 17.5212C36.6812 16.9072 36.5984 16.2862 36.519 15.6687L36.2776 13.8059L36.1499 12.871C36.1085 12.5605 36.0637 12.2466 36.0154 11.9361C35.9705 11.6256 35.9188 11.3117 35.8705 11.0012C35.8187 10.6907 35.767 10.3768 35.7118 10.0663C35.6566 9.75587 35.5945 9.44539 35.529 9.13146C35.4634 8.82099 35.3944 8.51051 35.3185 8.20003C35.1667 7.57908 34.9874 6.96503 34.7804 6.35097C34.5734 5.73692 34.3354 5.12976 34.0283 4.53641C33.7213 3.9465 33.3418 3.3704 32.8485 2.87018C32.7243 2.74599 32.5967 2.62525 32.4587 2.51486C32.3242 2.40102 32.1793 2.29753 32.0309 2.19749C31.993 2.17334 31.9585 2.14919 31.9171 2.12504L31.8619 2.09054C31.855 2.08364 31.8377 2.07674 31.8274 2.06984L31.7894 2.04915C31.6894 1.99395 31.5859 1.94565 31.4686 1.90426C31.2409 1.82491 30.9753 1.79387 30.7338 1.82146C30.4889 1.84561 30.2716 1.92151 30.0853 2.0043C29.899 2.09054 29.7403 2.18714 29.5989 2.28373C29.454 2.38032 29.3263 2.47692 29.2021 2.56316C29.0814 2.65285 28.9641 2.7322 28.8572 2.79774C28.7468 2.86674 28.6467 2.91503 28.5536 2.94608C28.4604 2.97713 28.3811 2.99093 28.3018 2.98748C28.2638 2.98748 28.2224 2.97713 28.1845 2.96678C28.1431 2.95643 28.1017 2.93918 28.0603 2.91848C27.974 2.87708 27.8843 2.81154 27.7946 2.73219C27.5704 2.53556 27.3462 2.31478 27.115 2.09054C26.8839 1.86631 26.6493 1.63173 26.3906 1.4075C26.1353 1.17981 25.8559 0.965929 25.5558 0.769294C25.2522 0.576108 24.921 0.410521 24.5726 0.28633C24.2242 0.15869 23.8585 0.0793453 23.4963 0.0379484C23.4066 0.0310489 23.3134 0.0206993 23.2237 0.0137998C23.134 0.0103501 23.0409 0.00344974 22.9512 0C22.8615 0 22.7718 0 22.6787 0L22.4096 0.0103509C22.3199 0.0172504 22.2337 0.0241482 22.144 0.0344974C22.0543 0.0448466 21.968 0.0586456 21.8818 0.0689948C21.7955 0.079344 21.7093 0.0965932 21.6231 0.110392L21.5575 0.120741L21.4885 0.134541C21.4609 0.14144 21.4333 0.14489 21.4092 0.151789L21.3367 0.169038C21.1504 0.213885 20.9883 0.26563 20.8296 0.317377C20.6709 0.369123 20.5157 0.424318 20.3639 0.482964C20.0569 0.596805 19.7602 0.717546 19.467 0.845186C19.1703 0.969377 18.8805 1.10047 18.5907 1.23156C18.0112 1.49719 17.4385 1.76972 16.8659 2.04915C16.2967 2.32858 15.724 2.61145 15.1617 2.90468C15.0203 2.97713 14.8788 3.05302 14.7374 3.12892C14.5959 3.20481 14.4545 3.2807 14.3165 3.3566C14.0371 3.51184 13.7576 3.67742 13.4817 3.84991C13.2057 4.02585 12.9366 4.20868 12.671 4.41567C12.5399 4.51916 12.4088 4.62955 12.2777 4.74684C12.1501 4.86759 12.0224 4.99523 11.9017 5.14356L11.8568 5.20221L11.8361 5.22981L11.8258 5.24361L11.8189 5.25396L11.7499 5.3471L11.6119 5.53683L11.3359 5.91976C11.1531 6.17504 10.9703 6.43722 10.7909 6.6994C10.6115 6.96158 10.4355 7.22721 10.2631 7.49629C10.0906 7.76537 9.92498 8.0448 9.7663 8.32767C9.68695 8.46911 9.61106 8.614 9.53516 8.76579C9.46272 8.91413 9.39027 9.06592 9.32473 9.22461C9.25918 9.3833 9.19709 9.54888 9.14879 9.72827C9.10394 9.89041 9.06255 10.0525 9.02805 10.2147C8.89006 10.8563 8.80382 11.4911 8.73137 12.1258C8.66238 12.7571 8.61063 13.3884 8.56578 14.0197C8.52094 14.651 8.48644 15.2789 8.45884 15.9068C8.43125 16.5346 8.40365 17.1659 8.3864 17.7938L8.38295 17.9352C8.3105 17.9076 8.23806 17.88 8.16562 17.8559C7.7551 17.711 7.34113 17.5868 6.92026 17.4798C6.70983 17.4281 6.49939 17.3763 6.28896 17.3315C6.07852 17.2867 5.86464 17.2487 5.65075 17.2142C5.43687 17.1797 5.21954 17.1487 5.0022 17.1211C4.78487 17.0969 4.56754 17.0762 4.34675 17.0624C4.12597 17.0486 3.90174 17.0417 3.6775 17.0417C3.45327 17.0417 3.22559 17.0521 2.99445 17.0762C2.76332 17.0969 2.52874 17.1314 2.29071 17.1866C2.05268 17.2418 1.81119 17.3108 1.56626 17.4177C1.32133 17.5247 1.07295 17.6696 0.848716 17.8766C0.734875 17.9801 0.631382 18.0973 0.538239 18.2284C0.493393 18.294 0.448545 18.363 0.414047 18.432C0.383 18.4906 0.355402 18.5458 0.327804 18.6079C0.10702 19.0805 -0.00337133 19.6083 7.84152e-05 20.1154C7.84152e-05 20.626 0.103571 21.1124 0.258809 21.5609C0.414047 22.0093 0.617582 22.4233 0.845265 22.8131C1.30753 23.5893 1.85604 24.2724 2.43905 24.914C2.75642 25.2625 3.08415 25.5936 3.42222 25.9145C3.16004 26.5596 2.92201 27.215 2.71847 27.8808C2.47354 28.6811 2.27691 29.4987 2.11822 30.3198C1.96298 31.1408 1.85259 31.9722 1.79394 32.807C1.7353 33.6419 1.7215 34.4767 1.75255 35.3115C1.81464 36.9812 2.05957 38.6474 2.50114 40.2585L2.58394 40.5621C2.61153 40.6621 2.64258 40.7621 2.67363 40.8622C2.70468 40.9622 2.73227 41.0623 2.76677 41.1623L2.86336 41.459L2.91166 41.6073L2.96341 41.7557L3.0669 42.0523C3.1014 42.1524 3.13934 42.249 3.17729 42.3456L3.28768 42.6388C3.59471 43.415 3.94658 44.1739 4.33985 44.9122L4.4123 45.0502L4.48819 45.1882L4.63998 45.4607C4.69173 45.5538 4.74692 45.6401 4.79867 45.7298L4.95736 45.9988C5.17814 46.3542 5.40237 46.706 5.64041 47.0476C6.11647 47.7341 6.62703 48.3964 7.17554 49.0243C7.72405 49.6521 8.3105 50.2524 8.92456 50.8147C9.54206 51.3804 10.1906 51.9048 10.8668 52.3947C11.0358 52.5188 11.2083 52.6361 11.3773 52.7569C11.4636 52.819 11.5498 52.8742 11.6361 52.9328L11.8982 53.1053L12.1639 53.2709C12.2536 53.3261 12.3398 53.3813 12.4295 53.4365C12.6089 53.5434 12.7883 53.6504 12.9711 53.7504C13.699 54.1609 14.4476 54.53 15.2203 54.8543C16.7624 55.4994 18.3734 55.9824 20.0189 56.2618C20.8434 56.4033 21.6748 56.4999 22.5062 56.5481C23.341 56.5964 24.1759 56.5999 25.0107 56.555C25.8455 56.5102 26.6769 56.4171 27.5014 56.2791L27.6567 56.2549L27.8119 56.2273L28.1189 56.1687C28.2224 56.1514 28.3225 56.1273 28.4259 56.1031L28.733 56.0376C28.9365 55.9893 29.14 55.941 29.3436 55.8892L29.6472 55.8065L29.7989 55.7651L29.9507 55.7202C33.1659 54.7957 36.1568 53.1088 38.6303 50.8595C41.1072 48.6103 43.0666 45.7919 44.3051 42.6802C44.6156 41.9006 44.8778 41.1071 45.0951 40.2964C45.3124 39.4892 45.4884 38.6681 45.6126 37.8402C45.7367 37.0123 45.8126 36.1774 45.8437 35.3391C45.854 35.1287 45.854 34.9217 45.8575 34.7113C45.8609 34.5009 45.8609 34.2939 45.854 34.0765C45.8471 33.8937 45.8368 33.704 45.8195 33.5211C45.9748 33.4073 46.1266 33.2865 46.2749 33.1589C46.6337 32.8484 46.9683 32.5 47.2615 32.1067C47.5548 31.7169 47.7997 31.2753 47.9791 30.8096C48.1585 30.3439 48.262 29.8506 48.2999 29.3607C48.3275 28.8881 48.2826 28.3845 48.1619 27.9084ZM9.62486 15.9654C9.6421 15.3444 9.66625 14.7235 9.6973 14.106C9.7318 13.4885 9.77319 12.871 9.83184 12.2604C9.89394 11.6498 9.96983 11.0426 10.0871 10.4631C10.1182 10.3182 10.1492 10.1767 10.1872 10.0387C10.2217 9.918 10.2665 9.78691 10.3183 9.65927C10.3355 9.62133 10.3493 9.57993 10.3665 9.54198C10.4252 9.56613 10.4873 9.59028 10.5459 9.61098C10.7288 9.67997 10.9116 9.73517 11.091 9.79037C11.4532 9.89386 11.8189 9.9801 12.1811 10.0525C12.5433 10.1284 12.9125 10.1836 13.2781 10.2319C13.6438 10.2802 14.0129 10.3182 14.3786 10.3423C14.7477 10.3699 15.1134 10.3872 15.4825 10.3941C15.8516 10.401 16.2208 10.3941 16.5864 10.3768C17.3247 10.3423 18.0595 10.263 18.7874 10.1319C19.1496 10.0663 19.5118 9.98355 19.8706 9.88351C20.2294 9.78346 20.5812 9.66617 20.9262 9.52818C21.2712 9.39019 21.6093 9.23496 21.937 9.05212C22.2613 8.86928 22.5752 8.66575 22.8684 8.43807C23.4549 7.97925 23.962 7.41694 24.3415 6.78219C24.5346 6.46827 24.683 6.13019 24.8072 5.78522C24.8417 5.69897 24.8658 5.61273 24.8934 5.52648L24.9348 5.3954C24.9486 5.35055 24.959 5.3057 24.9693 5.26431L25.0038 5.13322L25.021 5.06767L25.0348 5.00212L25.0866 4.7365L24.9969 4.99178L24.9762 5.05387L24.9521 5.11597L24.9038 5.24016C24.8865 5.28155 24.8727 5.32295 24.8555 5.36435L24.8003 5.48509C24.7623 5.56788 24.7278 5.64723 24.6864 5.72657L24.6243 5.84386C24.6036 5.88181 24.5829 5.92321 24.5588 5.96115C24.5139 6.03705 24.4691 6.11639 24.4242 6.18884L24.2794 6.40962L24.1241 6.6235C23.6998 7.18581 23.172 7.65152 22.5855 8.02065C22.2958 8.20693 21.9887 8.36907 21.6748 8.51051C21.3609 8.65195 21.0331 8.76924 20.702 8.86928C20.3708 8.96933 20.0327 9.04867 19.6946 9.11767C19.3566 9.18666 19.0116 9.23841 18.6666 9.2798C17.9767 9.3557 17.2764 9.38329 16.5795 9.36605C16.4933 9.3626 16.4036 9.3626 16.3174 9.35915C15.0479 9.23841 11.2255 8.17934 12.8711 5.68517C12.9159 5.64033 12.9608 5.59548 13.0091 5.55063C13.1091 5.45749 13.2195 5.3678 13.3333 5.2781C13.561 5.10217 13.8059 4.93658 14.0612 4.77444C14.5683 4.45707 15.1065 4.16384 15.655 3.89131C15.931 3.75677 16.207 3.62223 16.4864 3.49804C16.7658 3.3704 17.0487 3.24966 17.335 3.12892C17.9042 2.89088 18.4803 2.6701 19.0599 2.46312C19.6395 2.25613 20.2225 2.05605 20.8055 1.88701C20.9504 1.84561 21.0952 1.80421 21.2401 1.76627C21.3816 1.72832 21.5265 1.69382 21.6541 1.66968C21.6852 1.66278 21.7162 1.65933 21.7438 1.65588C21.7576 1.65243 21.7748 1.65243 21.7921 1.64898L21.8438 1.64208C21.9163 1.63518 21.9853 1.62138 22.0577 1.61793C22.1302 1.61103 22.1992 1.60413 22.2716 1.60068C22.3406 1.59723 22.413 1.59378 22.482 1.59033C22.7615 1.57998 23.0409 1.59378 23.3134 1.62828L23.517 1.65588L23.717 1.69382C23.8481 1.72487 23.9827 1.75592 24.1103 1.79387C24.1759 1.81456 24.2414 1.83181 24.3035 1.85596C24.3346 1.86631 24.369 1.87666 24.4001 1.89046C24.4311 1.90426 24.4622 1.91461 24.4967 1.92841C24.5622 1.95255 24.6243 1.98015 24.6864 2.00775C24.7485 2.03535 24.8106 2.0664 24.8762 2.09399C25.1245 2.21818 25.3695 2.35962 25.611 2.52176C25.8524 2.6839 26.0905 2.86328 26.3251 3.05302C26.5631 3.24276 26.7977 3.44629 27.0529 3.65328C27.2047 3.77402 27.3703 3.89131 27.567 3.98445C27.7636 4.07759 27.9878 4.14659 28.2259 4.16384C28.4604 4.18109 28.6985 4.15349 28.9055 4.09484C29.1124 4.0362 29.2953 3.9534 29.4574 3.86716C29.6196 3.78092 29.7679 3.68777 29.9024 3.60153C30.0404 3.51529 30.1646 3.43249 30.2854 3.3566C30.344 3.3221 30.4026 3.2876 30.4578 3.25656C30.513 3.22551 30.5682 3.19791 30.6165 3.17721C30.7166 3.13237 30.8028 3.11167 30.8753 3.10132C30.9477 3.09442 31.0063 3.10132 31.0753 3.12202C31.1098 3.13236 31.1478 3.14961 31.1892 3.17031L31.203 3.17721C31.2099 3.18066 31.2133 3.18066 31.2202 3.18756L31.2651 3.21171C31.2961 3.22896 31.3237 3.24621 31.3513 3.26346C31.5825 3.40834 31.7998 3.57048 32.0068 3.75677C32.4207 4.12589 32.7795 4.57436 33.0865 5.07457C33.3936 5.57133 33.6454 6.11639 33.8558 6.68215C33.9593 6.96503 34.0525 7.25481 34.1387 7.54458C34.2215 7.83781 34.3009 8.13104 34.3698 8.42772C34.5113 9.02107 34.632 9.62478 34.7321 10.2354C34.7838 10.539 34.8321 10.846 34.877 11.1496C34.9218 11.4566 34.9632 11.7636 35.0012 12.0706C35.1564 13.3022 35.2806 14.5407 35.4013 15.7895C35.4531 16.3207 35.5048 16.852 35.5635 17.3832C35.4876 17.3522 35.4117 17.3246 35.3358 17.297C35.184 17.2453 35.0287 17.197 34.8735 17.1625C34.7976 17.1418 34.7183 17.1245 34.6424 17.1107C34.563 17.0969 34.4871 17.0831 34.4078 17.0693C34.2526 17.0417 34.0973 17.0279 33.9421 17.0107C33.6316 16.9831 33.328 16.9762 33.0244 16.9727C32.4173 16.9727 31.8205 17.0107 31.2306 17.0659C30.6407 17.1211 30.0577 17.197 29.4781 17.2798C28.319 17.4522 27.1771 17.6661 26.0387 17.8697C24.9003 18.0732 23.7688 18.2767 22.6338 18.4423C22.351 18.4837 22.0681 18.5217 21.7817 18.5596C21.4989 18.5941 21.216 18.6286 20.9297 18.6562C20.6468 18.6838 20.3605 18.7045 20.0776 18.7252C19.9361 18.7355 19.7947 18.739 19.6533 18.7424C19.5118 18.7459 19.3704 18.7493 19.2289 18.7493C19.0875 18.7493 18.9461 18.7528 18.8046 18.7493C18.7322 18.7493 18.6632 18.7493 18.5942 18.7459L18.3803 18.739C18.094 18.7321 17.8076 18.7183 17.5213 18.7045C16.9487 18.6769 16.376 18.6424 15.8068 18.5941C15.2376 18.5458 14.6718 18.4872 14.1095 18.4113C13.5472 18.3354 12.9884 18.2457 12.4398 18.1318C11.8913 18.0214 11.3497 17.88 10.8288 17.7075C10.5701 17.6213 10.3148 17.5247 10.063 17.4177C9.91118 17.3556 9.7663 17.2866 9.61451 17.2177C9.60761 16.8071 9.61451 16.3863 9.62486 15.9654ZM9.6352 18.4975C9.91808 18.6045 10.2044 18.701 10.4942 18.7838C10.784 18.8701 11.0737 18.9425 11.3635 19.0081C11.6533 19.0771 11.9465 19.1357 12.2363 19.1875C12.8193 19.2944 13.4023 19.3703 13.9853 19.4324C14.5683 19.4945 15.1513 19.5393 15.7378 19.5738C16.3208 19.6083 16.9038 19.629 17.4868 19.6428C17.7766 19.6463 18.0698 19.6532 18.3596 19.6532L18.7977 19.6566C18.9461 19.6566 19.0944 19.6566 19.2393 19.6532C19.3876 19.6497 19.5325 19.6463 19.6809 19.6394L20.1224 19.6221C20.4156 19.6118 20.7089 19.5945 21.0021 19.5738C21.2953 19.5531 21.5851 19.5324 21.8783 19.5083C22.1681 19.4841 22.4613 19.4565 22.7511 19.4255C23.9137 19.3047 25.0659 19.153 26.2112 18.9977C27.3565 18.8425 28.4984 18.6872 29.6334 18.5665C30.1991 18.5079 30.7649 18.4596 31.3272 18.4285C31.8895 18.4009 32.4449 18.3906 32.99 18.4113C33.2625 18.4216 33.5316 18.4423 33.7937 18.4734C34.0559 18.501 34.3147 18.5424 34.563 18.5976C34.8114 18.6527 35.0494 18.7252 35.2737 18.808L35.3565 18.839L35.4393 18.8735C35.4945 18.8942 35.5462 18.9184 35.598 18.9425C35.6463 18.9667 35.6945 18.9908 35.7428 19.015C35.767 19.1909 35.7877 19.3703 35.8118 19.5462C35.8981 20.1741 35.9947 20.8019 36.112 21.4298C36.2189 21.9955 36.3431 22.5579 36.4604 23.1305C36.4362 23.1892 36.4121 23.2478 36.3845 23.3064C36.3328 23.4134 36.2672 23.5134 36.1879 23.61C36.0326 23.8032 35.8394 23.9826 35.6152 24.1378C35.391 24.2931 35.1426 24.438 34.877 24.5587C34.6113 24.6794 34.3354 24.7933 34.049 24.8899C33.7627 24.9865 33.4695 25.0693 33.1728 25.1486C32.576 25.3004 31.9619 25.4108 31.3375 25.5005C30.7166 25.5902 30.0853 25.6488 29.454 25.6937C28.8227 25.7385 28.1845 25.7627 27.5497 25.7696C26.2768 25.7834 24.9969 25.7385 23.7205 25.6385C21.1677 25.4315 18.6287 24.9899 16.1656 24.3138C15.8585 24.2275 15.5515 24.1413 15.2479 24.0447C14.9444 23.9481 14.6408 23.8481 14.3407 23.7446C13.7404 23.5341 13.1505 23.3064 12.5744 23.0512C11.9983 22.7959 11.436 22.513 10.9082 22.1956C10.4562 21.9231 10.0216 21.623 9.63865 21.2918C9.63176 21.071 9.62486 20.8502 9.62141 20.6294C9.61451 20.319 9.60761 20.0085 9.60416 19.698C9.60071 19.2944 9.59726 18.8873 9.59726 18.4837C9.61106 18.4872 9.62141 18.4906 9.6352 18.4975ZM44.4327 35.3184C44.4293 36.105 44.3741 36.8881 44.2775 37.6677C44.1844 38.4474 44.036 39.2236 43.8463 39.9894L43.7738 40.2757L43.6945 40.5621C43.6428 40.7518 43.5841 40.9415 43.5289 41.1313L43.4875 41.2727L43.4427 41.4141L43.3495 41.697C43.3185 41.7902 43.284 41.8833 43.2495 41.9764C43.215 42.0696 43.1839 42.1627 43.1494 42.2559C42.0386 45.2158 40.2206 47.9203 37.8886 50.0799C37.3056 50.6215 36.6915 51.1252 36.0499 51.5978L35.9291 51.6875L35.8084 51.7737L35.5635 51.9462C35.4841 52.0048 35.3979 52.0566 35.3151 52.1152L35.0667 52.2808C34.7321 52.4947 34.394 52.7051 34.0456 52.8983C33.3522 53.2916 32.6381 53.6469 31.9067 53.9608C31.1719 54.2713 30.4233 54.5404 29.6575 54.7681L29.5161 54.8095L29.3712 54.8509L29.0814 54.9302C28.8882 54.982 28.695 55.0268 28.5018 55.0751L28.2086 55.1407C28.112 55.1614 28.0154 55.1855 27.9154 55.2028L27.6222 55.2614L27.4738 55.289L27.3255 55.3131C26.5389 55.4511 25.7455 55.5443 24.9486 55.5926C24.1517 55.6374 23.3514 55.6374 22.5545 55.5926C21.7576 55.5477 20.9642 55.458 20.1776 55.3235L20.0293 55.2993L19.8809 55.2717L19.5877 55.2165C19.3911 55.1786 19.1979 55.1338 19.0013 55.0924L18.7115 55.0234C18.6149 54.9992 18.5183 54.9785 18.4217 54.9509L18.1319 54.8716L17.987 54.8336L17.8421 54.7922L17.5558 54.706C17.4592 54.6784 17.3661 54.6439 17.2695 54.6163C17.1763 54.5852 17.0797 54.5542 16.9866 54.5232L16.7037 54.4231C16.3277 54.292 15.9551 54.1402 15.5895 53.9884C15.4308 53.9194 15.2721 53.8505 15.1168 53.778C15.0996 53.1398 14.8995 52.6741 14.3786 52.4326C13.3747 51.9669 13.3609 50.3214 11.6878 49.8902C10.9392 49.697 10.4735 48.6551 9.90084 46.2024C9.34888 43.8393 8.45884 45.095 6.70638 44.6327C5.0436 44.1946 5.80254 43.0217 5.0781 42.4491C4.53649 42.0213 4.19151 41.7488 3.97073 41.5728C3.79479 41.0623 3.63611 40.5414 3.49812 40.017C3.29803 39.2477 3.13934 38.4681 3.02895 37.6781C2.92201 36.8915 2.85646 36.0981 2.83921 35.3012C2.81852 34.5078 2.84957 33.7109 2.92201 32.9209C2.99445 32.1309 3.1152 31.3443 3.28078 30.5716C3.44292 29.7954 3.66025 29.033 3.91553 28.2879C3.94658 28.1947 3.97763 28.1016 4.01213 28.0084L4.11562 27.729L4.16737 27.591C4.18461 27.5462 4.20531 27.4979 4.22256 27.453L4.33295 27.1771C4.36745 27.0839 4.40885 26.9942 4.4468 26.9045L4.46059 26.8735C5.05395 27.3737 5.66455 27.8429 6.28896 28.2982C6.97545 28.795 7.6792 29.2676 8.3933 29.7195C8.57268 29.8334 8.75207 29.9438 8.93146 30.0541C9.11084 30.1645 9.29368 30.2749 9.47307 30.3819C9.83529 30.5992 10.201 30.8062 10.5701 31.0132C12.0466 31.8342 13.5645 32.5759 15.1203 33.2383C15.3135 33.321 15.5101 33.4038 15.7033 33.4832L15.9965 33.6039L16.2967 33.7247C16.6968 33.8799 17.1004 34.0248 17.5041 34.1593C17.9077 34.2939 18.3148 34.4215 18.7253 34.5388C19.1323 34.6561 19.5429 34.7665 19.9534 34.8734C20.7744 35.0839 21.6024 35.2701 22.4303 35.4357C23.2582 35.6013 24.0931 35.7497 24.9279 35.8739C26.601 36.1257 28.2811 36.3085 29.9714 36.412C30.3923 36.4362 30.8166 36.4603 31.2409 36.4741C31.6653 36.4879 32.0896 36.4983 32.5139 36.5017C33.3625 36.5086 34.2112 36.4983 35.0632 36.4569C35.9153 36.4155 36.764 36.3499 37.6161 36.2499C38.4681 36.1464 39.3168 36.0153 40.1654 35.8394C40.5897 35.7497 41.014 35.6531 41.4349 35.5392C41.5419 35.5116 41.6454 35.4806 41.7523 35.453C41.8558 35.4219 41.9627 35.3909 42.0662 35.3598C42.2767 35.2943 42.4836 35.2253 42.6941 35.1529C43.1115 35.008 43.5255 34.8389 43.9325 34.6561C44.0947 34.5802 44.2534 34.5043 44.412 34.4215C44.4155 34.525 44.4189 34.6319 44.4189 34.7389C44.4293 34.9252 44.4362 35.1218 44.4327 35.3184ZM46.7889 29.2331C46.7441 29.5781 46.6544 29.9127 46.5129 30.2266C46.3715 30.5406 46.1887 30.8372 45.961 31.1098C45.8471 31.2443 45.7264 31.3754 45.5953 31.503C45.4642 31.6272 45.3262 31.748 45.1813 31.8618C45.0364 31.9756 44.8847 32.086 44.7294 32.1895C44.6535 32.2413 44.5707 32.293 44.4914 32.3413C44.4086 32.3896 44.3293 32.4379 44.2465 32.4862C43.9153 32.6725 43.5669 32.845 43.2081 32.9968C42.8493 33.1486 42.4802 33.2865 42.1076 33.4142C41.359 33.666 40.5794 33.8627 39.7928 34.0317C39.0029 34.1973 38.2025 34.3249 37.3953 34.4215C36.588 34.5216 35.7773 34.594 34.9598 34.6457C34.1456 34.694 33.3246 34.7251 32.507 34.732C31.6859 34.7423 30.8684 34.7285 30.0473 34.7009C28.4052 34.6388 26.7666 34.5147 25.1349 34.3146C23.5032 34.1145 21.8818 33.842 20.288 33.4763C19.4911 33.2934 18.7011 33.083 17.9215 32.845C17.5317 32.7242 17.1487 32.5966 16.7693 32.4586L16.4864 32.3517L16.2001 32.2413C16.0483 32.1826 15.893 32.1205 15.7412 32.0584C15.7585 32.0619 15.7723 32.0688 15.7895 32.0722C7.41702 28.9088 4.22256 23.403 4.22256 23.403C11.8948 31.0373 24.4173 33.942 35.0632 33.3176C36.9606 33.2072 38.1059 32.7898 38.1059 32.7898C35.6325 33.0382 33.1348 33.052 30.6614 32.8622C29.4229 32.7656 28.1914 32.6173 26.9667 32.4138C25.7455 32.2102 24.5312 31.948 23.3376 31.6203C22.144 31.2926 20.9711 30.9028 19.8326 30.4302C18.6942 29.9575 17.5903 29.4021 16.5588 28.7432C16.0414 28.4155 15.5446 28.0602 15.0754 27.6738C14.8202 27.4634 14.5718 27.2461 14.3338 27.0184C13.3057 25.9903 11.9741 24.3586 13.5231 24.7277C13.668 24.7795 13.8094 24.8312 13.9543 24.8795C14.2682 24.9865 14.5821 25.0865 14.8995 25.1831C15.2169 25.2797 15.5308 25.3728 15.8482 25.4625C17.1177 25.8213 18.401 26.1145 19.6946 26.3698C20.9883 26.6182 22.2854 26.8355 23.5929 27.0253C23.9206 27.0701 24.2483 27.1184 24.576 27.1598C24.9038 27.2012 25.2349 27.2392 25.5627 27.2771C26.2216 27.3495 26.8839 27.4082 27.5532 27.4461C27.8878 27.4634 28.2224 27.4806 28.557 27.4875C28.8917 27.4944 29.2297 27.4979 29.5644 27.491C29.9024 27.4841 30.2405 27.4737 30.5786 27.4496C30.7476 27.4392 30.9167 27.4254 31.0857 27.4116C31.2547 27.3944 31.4238 27.3771 31.5963 27.3564C31.9378 27.3185 32.2759 27.2667 32.6174 27.2047C32.9589 27.146 33.3004 27.0667 33.642 26.9804C34.3284 26.8045 35.0149 26.563 35.6807 26.1904C36.0119 26.0041 36.3396 25.7799 36.6467 25.5074C36.7985 25.3694 36.9468 25.2211 37.0848 25.0555C37.1538 24.9727 37.2193 24.8864 37.2814 24.7967C37.3435 24.707 37.4022 24.6104 37.4574 24.5139C37.5402 24.369 37.6092 24.2172 37.6643 24.0585C37.8748 24.1171 38.0852 24.1861 38.2922 24.2655C38.8304 24.4656 39.3616 24.7243 39.8653 25.0348C40.3689 25.3452 40.8519 25.7075 41.2935 26.1249C41.735 26.5423 42.1352 27.0149 42.4664 27.5462C42.2732 26.9528 41.9869 26.3836 41.6454 25.8489C41.3004 25.3142 40.8933 24.814 40.4414 24.3552C39.9895 23.8964 39.4893 23.4755 38.9477 23.1029C38.5578 22.8338 38.1473 22.5924 37.7126 22.3785C37.6782 22.2646 37.6333 22.1577 37.5816 22.0542C37.5126 21.761 37.4436 21.4677 37.378 21.1745C37.3608 21.0952 37.3435 21.0158 37.3297 20.9365C37.861 21.1297 38.3888 21.3366 38.9097 21.5609C39.6618 21.8817 40.4 22.2336 41.1175 22.6165C41.8351 22.9994 42.5319 23.4168 43.1908 23.8757C43.8497 24.3345 44.4776 24.8347 45.033 25.3866C45.585 25.9386 46.0679 26.5492 46.3922 27.2081C46.5543 27.5358 46.6751 27.8739 46.7406 28.2154C46.82 28.5535 46.8338 28.895 46.7889 29.2331Z" fill="white"/>
</svg>
