<svg width="68" height="76" viewBox="0 0 68 76" fill="none" xmlns="http://www.w3.org/2000/svg">
<g filter="url(#filter0_d_684_3)">
<path d="M21.5521 38.8664C20.2153 40.3548 22.978 41.8433 22.104 42.4647C21.0139 43.2362 22.2754 44.4072 22.9061 44.5916C24.5891 45.0832 23.7596 47.4115 25.2027 47.2511C25.9945 47.1554 25.7648 46.6263 26.5875 46.0288C27.2902 45.5167 27.8077 45.8684 29.0486 45.3734C29.9502 45.0148 29.789 45.9606 30.5363 45.9094C31.2836 45.8547 31.7737 45.2846 31.9862 46.039C32.1987 46.7935 30.1078 47.3568 31.4754 48.6917C32.161 49.3609 32.2716 49.5555 32.7539 50.2182C32.9378 50.4711 33.3936 51.3262 33.3087 52.1527C33.116 53.2608 33.6212 54.8949 34.8175 55.6631C35.7876 56.2878 34.5228 58.4114 34.9786 58.7493C36.4697 59.8588 39.4211 56.7146 38.9858 54.492C38.691 52.9797 41.015 52.9489 41.4434 51.6176C41.8719 50.2861 39.7879 48.5858 42.7803 46.9335C45.7726 45.2846 45.4505 43.9531 45.4505 43.9531C31.1156 45.0661 21.5521 38.8664 21.5521 38.8664Z" fill="url(#paint0_radial_684_3)"/>
<path d="M51.6773 46.1927C52.3764 45.923 53.2368 43.7619 53.2368 41.6759C53.2368 41.6759 52.5889 42.1608 51.3 42.5568C52.2188 44.2467 51.019 46.4453 51.6773 46.1927Z" fill="url(#paint1_radial_684_3)"/>
<path d="M42.6316 52.3138C42.0489 53.1844 41.0549 53.2424 41.2296 54.0584C41.4044 54.8743 40.4721 55.3386 40.7053 56.0931C40.9383 56.8475 42.8373 54.8743 42.8168 53.7545C42.7996 52.8259 44.8493 52.3138 44.1467 51.3237C43.8862 50.9584 43.2144 51.4433 42.6316 52.3138Z" fill="url(#paint2_radial_684_3)"/>
<path d="M57.855 33.619C57.7385 33.148 57.5535 32.7041 57.3307 32.2979C57.2176 32.093 57.0941 31.8983 56.9639 31.714C56.8336 31.5263 56.6966 31.3454 56.556 31.1746C56.2715 30.8299 55.963 30.5123 55.6407 30.2154C54.9999 29.6213 54.3073 29.1058 53.591 28.6449C53.2344 28.4127 52.8711 28.1943 52.5009 27.9859C52.3158 27.8802 52.1308 27.7812 51.9456 27.6822C51.7605 27.5832 51.572 27.4842 51.3835 27.3885C50.6294 27.0095 49.8581 26.6648 49.08 26.3542C48.6893 26.1971 48.2985 26.0468 47.9008 25.9035C47.702 25.8317 47.5032 25.7635 47.3045 25.6952C47.1605 25.6474 47.0199 25.5997 46.8759 25.5519C46.8519 25.4221 46.8314 25.2923 46.8074 25.1592C46.7079 24.5549 46.6189 23.9506 46.5331 23.3396C46.4476 22.7319 46.3653 22.1174 46.2864 21.5063L46.0465 19.6627L45.9196 18.7375C45.8785 18.4303 45.834 18.1196 45.786 17.8124C45.7413 17.5051 45.69 17.1944 45.642 16.8872C45.5905 16.5799 45.5392 16.2692 45.4843 15.962C45.4295 15.6547 45.3677 15.3475 45.3027 15.0368C45.2375 14.7295 45.1689 14.4223 45.0935 14.115C44.9427 13.5005 44.7644 12.8928 44.5589 12.2851C44.3531 11.6774 44.1166 11.0766 43.8115 10.4894C43.5065 9.90559 43.1294 9.33546 42.6392 8.84042C42.5159 8.71752 42.3891 8.59804 42.2519 8.48879C42.1183 8.37613 41.9743 8.27371 41.8268 8.1747C41.7891 8.1508 41.7548 8.12691 41.7138 8.10301L41.659 8.06887C41.652 8.06204 41.635 8.05521 41.6246 8.04838L41.587 8.0279C41.4875 7.97328 41.3847 7.92548 41.2682 7.88451C41.0419 7.80599 40.7779 7.77527 40.5381 7.80258C40.2946 7.82648 40.0786 7.90158 39.8936 7.98352C39.7085 8.06887 39.5508 8.16446 39.4103 8.26005C39.2663 8.35564 39.1395 8.45124 39.0162 8.53659C38.8962 8.62535 38.7797 8.70386 38.6734 8.76874C38.5637 8.83701 38.4642 8.88481 38.3716 8.91554C38.2791 8.94626 38.2003 8.95991 38.1214 8.95651C38.0838 8.95651 38.0426 8.94626 38.0049 8.93602C37.9638 8.92577 37.9226 8.90871 37.8816 8.88822C37.7958 8.84726 37.7068 8.78239 37.6176 8.70386C37.3948 8.50928 37.172 8.29078 36.9422 8.06887C36.7127 7.84696 36.4796 7.61481 36.2224 7.3929C35.9688 7.16758 35.6911 6.95591 35.393 6.76132C35.0913 6.57013 34.7622 6.40626 34.4161 6.28336C34.0699 6.15704 33.7065 6.07852 33.3465 6.03755C33.2575 6.03073 33.165 6.02048 33.0758 6.01366C32.9867 6.01024 32.8942 6.00341 32.805 6C32.7159 6 32.6267 6 32.5342 6L32.2669 6.01024C32.1777 6.01707 32.0921 6.0239 32.0029 6.03414C31.9138 6.04438 31.8281 6.05804 31.7424 6.06828C31.6566 6.07852 31.571 6.09559 31.4853 6.10925L31.4203 6.11949L31.3516 6.13314C31.3243 6.13997 31.2968 6.14339 31.2728 6.15021L31.2008 6.16729C31.0157 6.21167 30.8545 6.26288 30.6969 6.31409C30.5392 6.36529 30.3849 6.41992 30.2342 6.47796C29.9291 6.59062 29.6343 6.71011 29.343 6.83642C29.0482 6.95933 28.7602 7.08906 28.4722 7.21879C27.8964 7.48167 27.3273 7.75137 26.7585 8.0279C26.1928 8.30443 25.6238 8.58439 25.0651 8.87456C24.9246 8.94626 24.784 9.02137 24.6435 9.09647C24.503 9.17158 24.3624 9.24668 24.2253 9.32181C23.9476 9.47543 23.67 9.63929 23.3958 9.80999C23.1216 9.9841 22.8542 10.1651 22.5903 10.3699C22.46 10.4723 22.3297 10.5816 22.1995 10.6976C22.0727 10.8171 21.9458 10.9434 21.8259 11.0902L21.7813 11.1483L21.7505 11.1892L21.7436 11.1995L21.675 11.2917L21.5379 11.4794L21.2637 11.8584C21.082 12.111 20.9004 12.3705 20.7221 12.6299C20.5439 12.8894 20.3691 13.1523 20.1977 13.4186C20.0263 13.6849 19.8618 13.9614 19.7041 14.2413C19.6252 14.3813 19.5498 14.5247 19.4744 14.6749C19.4024 14.8217 19.3305 14.9719 19.2653 15.129C19.2002 15.286 19.1385 15.4499 19.0905 15.6274C19.046 15.7879 19.0048 15.9483 18.9705 16.1088C18.8334 16.7438 18.7477 17.372 18.6758 18.0001C18.6072 18.6249 18.5558 19.2496 18.5112 19.8744C18.4667 20.4992 18.4324 21.1205 18.405 21.7418C18.3775 22.3632 18.3501 22.9879 18.333 23.6094L18.3295 23.7492C18.2576 23.722 18.1856 23.6947 18.1136 23.6708C17.7057 23.5273 17.2944 23.4045 16.8762 23.2986C16.6671 23.2473 16.458 23.1961 16.2489 23.1518C16.0398 23.1074 15.8273 23.0699 15.6148 23.0357C15.4022 23.0016 15.1863 22.9709 14.9703 22.9436C14.7544 22.9197 14.5384 22.8992 14.3191 22.8855C14.0997 22.8719 13.8769 22.865 13.6541 22.865C13.4313 22.865 13.205 22.8753 12.9754 22.8992C12.7457 22.9197 12.5126 22.9538 12.2761 23.0084C12.0396 23.063 11.7997 23.1313 11.5563 23.2371C11.3129 23.343 11.0661 23.4863 10.8433 23.6912C10.7302 23.7937 10.6274 23.9098 10.5348 24.0394C10.4902 24.1043 10.4457 24.1727 10.4114 24.2408C10.3806 24.299 10.3531 24.3535 10.3257 24.4149C10.1063 24.8827 9.99665 25.405 10.0001 25.9068C10.0001 26.4122 10.1029 26.8936 10.2572 27.3373C10.4114 27.7812 10.6136 28.1908 10.8399 28.5766C11.2992 29.3447 11.8442 30.0207 12.4235 30.6558C12.7389 31.0005 13.0645 31.3283 13.4004 31.6458C13.1399 32.2843 12.9034 32.9329 12.7012 33.5917C12.4578 34.3838 12.2624 35.193 12.1047 36.0054C11.9505 36.8179 11.8408 37.6406 11.7825 38.467C11.7242 39.2931 11.7105 40.1193 11.7414 40.9455C11.8031 42.5978 12.0465 44.2468 12.4852 45.841L12.5675 46.1414C12.5949 46.2406 12.6257 46.3396 12.6566 46.4386C12.6874 46.5376 12.7149 46.6365 12.7491 46.7355L12.8931 47.176L13.0474 47.6164C13.0816 47.7154 13.1193 47.8109 13.157 47.9066L13.2667 48.1968C13.5718 48.9648 13.9214 49.7159 14.3122 50.4465L14.3842 50.5831L14.4596 50.7196L14.6104 50.9894C14.6618 51.0816 14.7167 51.1669 14.7681 51.2557L14.9258 51.5219C15.1452 51.8735 15.368 52.2219 15.6045 52.5599C16.0775 53.2391 16.5848 53.8946 17.1298 54.5161C17.6748 55.1373 18.2576 55.7314 18.8677 56.2878C19.4813 56.8478 20.1257 57.3666 20.7975 57.8515C20.9655 57.9744 21.1369 58.0904 21.3048 58.2099C21.3905 58.2714 21.4762 58.326 21.5619 58.384L21.8224 58.5547L22.0864 58.7185C22.1755 58.7732 22.2612 58.8279 22.3503 58.8824C22.5286 58.9883 22.7068 59.0941 22.8885 59.1932C23.6117 59.5994 24.3555 59.9647 25.1234 60.2856C26.6555 60.9241 28.2564 61.4019 29.8914 61.6785C30.7107 61.8185 31.5368 61.9142 32.3629 61.9619C33.1923 62.0097 34.0219 62.0132 34.8514 61.9687C35.6808 61.9244 36.5069 61.8321 37.3262 61.6956L37.4805 61.6717L37.6348 61.6444L37.9398 61.5864C38.0426 61.5693 38.1421 61.5454 38.2449 61.5215L38.5499 61.4566C38.7522 61.4088 38.9544 61.3611 39.1567 61.3099L39.6091 61.187L39.76 61.1425C42.9547 60.2276 45.9265 58.5581 48.3841 56.3323C50.8454 54.1063 52.7923 51.3172 54.0228 48.2377C54.3313 47.4662 54.5919 46.6809 54.8078 45.8786C55.0237 45.0797 55.1986 44.2673 55.3219 43.4478C55.4454 42.6286 55.5207 41.8024 55.5517 40.9728C55.5619 40.7645 55.5619 40.5597 55.5654 40.3514C55.5687 40.1432 55.5687 39.9383 55.5619 39.7232C55.555 39.5423 55.5447 39.3546 55.5277 39.1736C55.6819 39.0609 55.8327 38.9415 55.98 38.8152C56.3366 38.5078 56.6691 38.1631 56.9604 37.7739C57.2519 37.3882 57.4952 36.951 57.6735 36.4902C57.8517 36.0293 57.9545 35.5411 57.9922 35.0564C58.0195 34.5886 57.975 34.0902 57.855 33.619ZM19.5635 21.7999C19.5807 21.1854 19.6047 20.5709 19.6355 19.9597C19.6698 19.3487 19.7109 18.7375 19.7692 18.1333C19.8309 17.529 19.9063 16.9281 20.0229 16.3546C20.0537 16.2112 20.0846 16.0712 20.1223 15.9347C20.1565 15.8152 20.2011 15.6854 20.2525 15.5591C20.2697 15.5216 20.2834 15.4806 20.3005 15.4431C20.3588 15.4669 20.4205 15.4908 20.4788 15.5113C20.6604 15.5796 20.8421 15.6342 21.0203 15.6889C21.3803 15.7913 21.7436 15.8766 22.1035 15.9483C22.4634 16.0234 22.8302 16.0781 23.1936 16.1259C23.5569 16.1736 23.9237 16.2112 24.287 16.2351C24.6538 16.2624 25.0171 16.2795 25.3839 16.2863C25.7507 16.2931 26.1174 16.2863 26.4808 16.2692C27.2143 16.2351 27.9444 16.1566 28.6677 16.0268C29.0275 15.962 29.3875 15.88 29.7441 15.781C30.1004 15.682 30.4502 15.566 30.7929 15.4294C31.1357 15.2928 31.4716 15.1392 31.7973 14.9583C32.1194 14.7773 32.4314 14.5759 32.7227 14.3506C33.3055 13.8965 33.8093 13.3401 34.1864 12.7119C34.3784 12.4012 34.5257 12.0666 34.6492 11.7252C34.6834 11.6399 34.7074 11.5545 34.7349 11.4692L34.776 11.3395C34.7897 11.2951 34.8 11.2507 34.8102 11.2097L34.8445 11.08L34.8617 11.0151L34.8754 10.9503L34.9267 10.6874L34.8377 10.94L34.8172 11.0015L34.7452 11.1858C34.728 11.2268 34.7142 11.2678 34.6972 11.3087L34.6422 11.4282C34.6046 11.5102 34.5702 11.5887 34.5292 11.6672L34.4674 11.7833C34.4469 11.8208 34.4264 11.8618 34.4024 11.8994C34.3577 11.9745 34.3132 12.053 34.2686 12.1247L34.1246 12.3432L33.9704 12.5548C33.5488 13.1113 33.0245 13.5722 32.4417 13.9375C32.1537 14.1218 31.8486 14.2823 31.5368 14.4223C31.2248 14.5623 30.8992 14.6783 30.5702 14.7773C30.2409 14.8763 29.9051 14.9549 29.5691 15.0231C29.2333 15.0914 28.8905 15.1426 28.5477 15.1836C27.8621 15.2587 27.1663 15.286 26.4739 15.2689C26.3882 15.2655 26.2991 15.2655 26.2134 15.2621C24.952 15.1426 21.154 14.0945 22.7891 11.6262C22.8336 11.5818 22.8782 11.5375 22.9262 11.4931C23.0256 11.4009 23.1353 11.3121 23.2484 11.2234C23.4746 11.0493 23.718 10.8854 23.9716 10.7249C24.4755 10.4109 25.0103 10.1207 25.5553 9.85097C25.8295 9.71782 26.1037 9.58468 26.3814 9.46177C26.659 9.33546 26.94 9.21597 27.2246 9.09647C27.7901 8.86091 28.3627 8.64241 28.9385 8.43758C29.5143 8.23274 30.0936 8.03473 30.6729 7.86744C30.8169 7.82648 30.9608 7.78551 31.1048 7.74796C31.2453 7.7104 31.3893 7.67626 31.5161 7.65236C31.547 7.64554 31.5778 7.64212 31.6053 7.63871C31.619 7.63529 31.6361 7.63529 31.6533 7.63188L31.7046 7.62505C31.7766 7.61822 31.8451 7.60457 31.9171 7.60115C31.9891 7.59433 32.0577 7.5875 32.1297 7.58408C32.1984 7.58067 32.2702 7.57726 32.3389 7.57384C32.6164 7.5636 32.8942 7.57726 33.165 7.6114L33.3671 7.63871L33.566 7.67626C33.6963 7.70699 33.8299 7.73771 33.9566 7.77527C34.0219 7.79575 34.0869 7.81282 34.1486 7.83672C34.1796 7.84696 34.2139 7.8572 34.2446 7.87086C34.2754 7.88452 34.3064 7.89476 34.3406 7.90841C34.4057 7.93231 34.4674 7.95962 34.5292 7.98693C34.5909 8.01424 34.6526 8.04497 34.7177 8.07228C34.9645 8.19519 35.2078 8.33516 35.4478 8.49561C35.6878 8.65607 35.9243 8.8336 36.1574 9.02137C36.3939 9.20913 36.6269 9.41057 36.8807 9.61539C37.0315 9.73489 37.196 9.85096 37.3913 9.94314C37.5868 10.0353 37.8096 10.1036 38.0461 10.1207C38.2791 10.1377 38.5157 10.1104 38.7214 10.0524C38.927 9.99435 39.1087 9.91241 39.2697 9.82707C39.4308 9.74172 39.5783 9.64954 39.712 9.56419C39.8491 9.47884 39.9724 9.39691 40.0924 9.32181C40.1506 9.28766 40.2089 9.25352 40.2638 9.22279C40.3186 9.19207 40.3734 9.16476 40.4214 9.14427C40.5209 9.0999 40.6066 9.07941 40.6786 9.06916C40.7506 9.06233 40.8089 9.06916 40.8774 9.08965C40.9117 9.09988 40.9494 9.11696 40.9905 9.13745L41.0042 9.14427C41.011 9.14768 41.0145 9.14768 41.0214 9.15451L41.0659 9.17841C41.0967 9.19548 41.1242 9.21256 41.1517 9.22962C41.3813 9.37301 41.5972 9.53347 41.8028 9.71782C42.2141 10.0831 42.5707 10.5269 42.8757 11.022C43.1808 11.5136 43.431 12.053 43.6402 12.6129C43.743 12.8928 43.8355 13.1796 43.9213 13.4664C44.0035 13.7566 44.0823 14.0467 44.1509 14.3403C44.2914 14.9276 44.4114 15.525 44.5109 16.1293C44.5622 16.4297 44.6102 16.7335 44.6549 17.034C44.6994 17.3378 44.7404 17.6417 44.7782 17.9455C44.9324 19.1643 45.0559 20.3899 45.1757 21.6258C45.2272 22.1515 45.2787 22.6773 45.3369 23.203C45.2615 23.1723 45.186 23.145 45.1107 23.1177C44.9599 23.0665 44.8056 23.0187 44.6514 22.9845C44.5759 22.964 44.4971 22.947 44.4216 22.9333C44.3429 22.9197 44.2674 22.906 44.1886 22.8923C44.0343 22.865 43.8801 22.8514 43.7258 22.8343C43.4173 22.807 43.1157 22.8002 42.8141 22.7967C42.2108 22.7967 41.6178 22.8343 41.0317 22.8889C40.4454 22.9436 39.8663 23.0187 39.2903 23.1006C38.1386 23.2714 37.004 23.483 35.8728 23.6845C34.7417 23.8857 33.6173 24.0872 32.4897 24.2511C32.2086 24.2921 31.9276 24.3296 31.643 24.3672C31.3618 24.4013 31.0808 24.4355 30.7963 24.4627C30.5152 24.49 30.2307 24.5106 29.9496 24.5311C29.8091 24.5413 29.6686 24.5447 29.5281 24.5482C29.3875 24.5515 29.247 24.5549 29.1065 24.5549C28.966 24.5549 28.8254 24.5584 28.6848 24.5549C28.6129 24.5549 28.5442 24.5549 28.4757 24.5515L28.2632 24.5447C27.9787 24.538 27.6941 24.5243 27.4098 24.5106C26.8407 24.4833 26.2717 24.4492 25.7061 24.4013C25.1405 24.3535 24.5784 24.2955 24.0196 24.2204C23.4609 24.1453 22.9056 24.0565 22.3606 23.9439C21.8156 23.8347 21.2774 23.6947 20.7598 23.5239C20.5028 23.4386 20.2491 23.343 19.9989 23.2371C19.848 23.1757 19.7041 23.1074 19.5533 23.0391C19.5464 22.6329 19.5533 22.2164 19.5635 21.7999ZM19.5738 24.3057C19.8549 24.4116 20.1394 24.5072 20.4273 24.589C20.7153 24.6745 21.0032 24.7462 21.2911 24.8111C21.5791 24.8792 21.8704 24.9374 22.1584 24.9886C22.7376 25.0943 23.3169 25.1695 23.8962 25.2309C24.4755 25.2923 25.0548 25.3368 25.6375 25.3709C26.2168 25.405 26.7962 25.4256 27.3753 25.4392C27.6633 25.4425 27.9547 25.4495 28.2427 25.4495L28.678 25.4529C28.8254 25.4529 28.9727 25.4529 29.1168 25.4495C29.2641 25.446 29.4081 25.4425 29.5555 25.4358L29.9942 25.4187C30.2856 25.4084 30.5769 25.3913 30.8683 25.3709C31.1597 25.3505 31.4476 25.3299 31.739 25.306C32.0269 25.2821 32.3182 25.2548 32.6062 25.2241C33.7613 25.1046 34.9062 24.9543 36.0443 24.8008C37.1822 24.6472 38.3169 24.4935 39.4445 24.3741C40.0068 24.3159 40.5689 24.2682 41.1277 24.2374C41.6863 24.2102 42.2381 24.1998 42.7797 24.2204C43.0507 24.2306 43.318 24.2511 43.5785 24.2819C43.839 24.3092 44.0961 24.35 44.3429 24.4047C44.5896 24.4594 44.8262 24.5311 45.049 24.6131L45.1312 24.6437L45.2135 24.6778C45.2684 24.6984 45.3197 24.7223 45.3712 24.7462C45.4192 24.77 45.4672 24.7939 45.5152 24.8178C45.5392 24.9919 45.5597 25.1695 45.5837 25.3435C45.6695 25.965 45.7653 26.5863 45.8818 27.2077C45.9881 27.7675 46.1116 28.3241 46.2281 28.8907C46.2041 28.9488 46.1801 29.0068 46.1528 29.0647C46.1013 29.1707 46.0361 29.2696 45.9573 29.3652C45.803 29.5564 45.611 29.7339 45.3883 29.8876C45.1655 30.0413 44.9187 30.1846 44.6549 30.3042C44.3909 30.4236 44.1166 30.5362 43.8321 30.6318C43.5475 30.7275 43.2562 30.8093 42.9614 30.8879C42.3684 31.0381 41.7583 31.1473 41.1379 31.2361C40.5209 31.3248 39.8936 31.383 39.2663 31.4273C38.6391 31.4716 38.0049 31.4956 37.3742 31.5024C36.1094 31.5161 34.8377 31.4716 33.5693 31.3726C31.0328 31.1679 28.51 30.7309 26.0626 30.0617C25.7575 29.9764 25.4524 29.8911 25.1508 29.7954C24.8492 29.6999 24.5475 29.6009 24.2493 29.4984C23.6529 29.2901 23.0667 29.0647 22.4943 28.8123C21.9218 28.5596 21.3631 28.2796 20.8387 27.9655C20.3896 27.6959 19.9577 27.3987 19.5772 27.071C19.5704 26.8526 19.5635 26.634 19.5601 26.4156C19.5533 26.1083 19.5464 25.8011 19.543 25.4938C19.5395 25.0943 19.5361 24.6915 19.5361 24.2921C19.5498 24.2955 19.5601 24.299 19.5738 24.3057ZM54.1498 40.9522C54.1463 41.7306 54.0915 42.5056 53.9955 43.2772C53.903 44.0487 53.7555 44.8169 53.567 45.5749L53.495 45.8581L53.4162 46.1414C53.3647 46.3294 53.3064 46.5171 53.2517 46.7049L53.2104 46.8447L53.1659 46.9847L53.0734 47.2647C53.0424 47.357 53.0082 47.449 52.9739 47.5413C52.9397 47.6335 52.9089 47.7256 52.8746 47.8178C51.7708 50.7469 49.9643 53.4236 47.6472 55.5606C47.0679 56.0968 46.4578 56.5952 45.8203 57.0628L45.7003 57.1515L45.5803 57.237L45.3369 57.4076C45.258 57.4656 45.1724 57.5168 45.0902 57.575L44.8434 57.7389C44.5109 57.9505 44.1749 58.1587 43.8288 58.3499C43.1397 58.7391 42.4301 59.0908 41.7035 59.4014C40.9734 59.7086 40.2296 59.9749 39.4685 60.2002L39.328 60.2412L39.184 60.2823L38.8962 60.3607C38.7042 60.4119 38.5122 60.4564 38.3203 60.5041L38.0289 60.569C37.9329 60.5894 37.837 60.6133 37.7376 60.6304L37.4462 60.6884L37.2988 60.7158L37.1515 60.7396C36.3699 60.8762 35.5815 60.9684 34.7897 61.0162C33.9979 61.0607 33.2025 61.0607 32.4109 61.0162C31.619 60.9719 30.8307 60.8831 30.0491 60.7499L29.9016 60.726L29.7543 60.6986L29.4628 60.6441C29.2675 60.6066 29.0755 60.5621 28.8802 60.5212L28.5922 60.4529C28.4962 60.429 28.4004 60.4086 28.3044 60.3812L28.0164 60.3027L27.8724 60.2651L27.7286 60.2241L27.444 60.1388C27.348 60.1115 27.2555 60.0774 27.1595 60.05C27.067 60.0194 26.971 59.9886 26.8785 59.958L26.5972 59.8588C26.2237 59.7292 25.8535 59.579 25.4902 59.4287C25.3325 59.3604 25.1748 59.2922 25.0205 59.2204C25.0034 58.5889 24.8046 58.1281 24.287 57.8891C23.2895 57.4281 23.2758 55.7996 21.6133 55.3729C20.8695 55.1816 20.4068 54.1508 19.8378 51.7233C19.2893 49.3848 18.405 50.6275 16.6637 50.17C15.0115 49.7365 15.7656 48.5756 15.0457 48.009C14.5076 47.5856 14.1648 47.316 13.9454 47.1419C13.7706 46.6365 13.6129 46.121 13.4758 45.6022C13.277 44.8408 13.1193 44.0693 13.0097 43.2874C12.9034 42.509 12.8383 41.7239 12.8211 40.9353C12.8006 40.1499 12.8314 39.3613 12.9034 38.5796C12.9754 37.7978 13.0954 37.0194 13.2599 36.2546C13.421 35.4865 13.6369 34.7319 13.8906 33.9946C13.9214 33.9025 13.9523 33.8102 13.9866 33.718L14.0894 33.4415L14.1408 33.3049C14.158 33.2606 14.1785 33.2129 14.1957 33.1684L14.3054 32.8953C14.3396 32.8031 14.3808 32.7143 14.4185 32.6255L14.4322 32.5949C15.0217 33.0898 15.6285 33.5541 16.2489 34.0048C16.931 34.4964 17.6303 34.9642 18.3398 35.4114C18.5181 35.524 18.6963 35.6334 18.8746 35.7426C19.0528 35.8518 19.2345 35.961 19.4127 36.0669C19.7726 36.282 20.136 36.4867 20.5028 36.6916C21.9698 37.5041 23.478 38.2382 25.024 38.8937C25.2159 38.9756 25.4113 39.0574 25.6033 39.136L25.8946 39.2556L26.1928 39.375C26.5905 39.5287 26.9915 39.672 27.3926 39.8052C27.7936 39.9383 28.1981 40.0646 28.606 40.1807C29.0105 40.2969 29.4183 40.4061 29.8263 40.5118C30.642 40.7201 31.4648 40.9045 32.2874 41.0683C33.11 41.2322 33.9396 41.379 34.7692 41.502C36.4316 41.7512 38.1009 41.9321 39.7805 42.0345C40.1986 42.0584 40.6204 42.0823 41.0419 42.0959C41.4635 42.1096 41.8851 42.1198 42.3068 42.1233C43.15 42.13 43.9933 42.1198 44.8399 42.079C45.6865 42.038 46.5298 41.9731 47.3765 41.8741C48.2231 41.7716 49.0664 41.6418 49.9095 41.4678C50.3311 41.379 50.7528 41.2834 51.1709 41.1708C51.2772 41.1434 51.38 41.1128 51.4862 41.0855C51.5892 41.0547 51.6955 41.024 51.7982 40.9932C52.0073 40.9283 52.213 40.8601 52.4221 40.7883C52.8369 40.645 53.2482 40.4777 53.6527 40.2969C53.8138 40.2218 53.9715 40.1466 54.1291 40.0646C54.1325 40.1671 54.136 40.273 54.136 40.3787C54.1463 40.563 54.1531 40.7577 54.1498 40.9522ZM56.4908 34.9301C56.4463 35.2714 56.3571 35.6026 56.2166 35.9132C56.076 36.2238 55.8945 36.5175 55.6682 36.7873C55.555 36.9204 55.4352 37.0502 55.3049 37.1765C55.1746 37.2994 55.0374 37.4188 54.8936 37.5314C54.7496 37.6441 54.5988 37.7533 54.4445 37.8557C54.3691 37.907 54.2868 37.9582 54.208 38.006C54.1258 38.0539 54.0468 38.1017 53.9645 38.1494C53.6355 38.3337 53.2894 38.5045 52.9329 38.6547C52.5763 38.805 52.2096 38.9415 51.8393 39.0678C51.0956 39.317 50.3208 39.5115 49.5393 39.6789C48.7544 39.8428 47.9591 39.9691 47.157 40.0646C46.3549 40.1636 45.5495 40.2354 44.7371 40.2865C43.9281 40.3344 43.1122 40.365 42.2999 40.372C41.484 40.3822 40.6717 40.3685 39.8558 40.3412C38.2243 40.2797 36.5961 40.1569 34.9747 39.9589C33.3535 39.7607 31.7424 39.4911 30.1587 39.1293C29.367 38.9482 28.582 38.7401 27.8073 38.5045C27.42 38.385 27.0395 38.2586 26.6625 38.1221L26.3814 38.0163L26.0969 37.907C25.946 37.849 25.7918 37.7876 25.641 37.7261C25.6581 37.7294 25.6718 37.7363 25.689 37.7398C17.3698 34.6091 14.1957 29.1604 14.1957 29.1604C21.819 36.7155 34.2619 39.5901 44.8399 38.9721C46.7251 38.8629 47.8632 38.4498 47.8632 38.4498C45.4055 38.6956 42.9237 38.7093 40.4661 38.5215C39.2355 38.426 38.0118 38.2792 36.7949 38.0778C35.5815 37.8763 34.3749 37.6168 33.189 37.2925C32.0029 36.9682 30.8375 36.5824 29.7063 36.1146C28.5752 35.6469 27.4783 35.0973 26.4533 34.4452C25.9392 34.1209 25.4456 33.7692 24.9794 33.387C24.7258 33.1786 24.479 32.9637 24.2424 32.7382C23.221 31.721 21.8978 30.106 23.4369 30.4713C23.5809 30.5226 23.7214 30.5738 23.8654 30.6215C24.1773 30.7274 24.4892 30.8264 24.8046 30.922C25.1199 31.0177 25.4319 31.1097 25.7472 31.1985C27.0087 31.5536 28.2837 31.8438 29.5691 32.0965C30.8545 32.3422 32.1434 32.5573 33.4425 32.7451C33.7681 32.7894 34.0939 32.8373 34.4194 32.8782C34.7452 32.9192 35.0742 32.9567 35.3998 32.9943C36.0546 33.0659 36.7127 33.1241 37.3776 33.1616C37.7101 33.1786 38.0426 33.1957 38.3751 33.2025C38.7076 33.2094 39.0435 33.2129 39.376 33.2059C39.712 33.1992 40.0478 33.189 40.3838 33.1649C40.5517 33.1547 40.7197 33.141 40.8877 33.1274C41.0557 33.1104 41.2235 33.0933 41.395 33.0729C41.7343 33.0353 42.0703 32.9841 42.4096 32.9226C42.7489 32.8645 43.0882 32.7861 43.4277 32.7006C44.1098 32.5265 44.7919 32.2875 45.4535 31.9189C45.7825 31.7346 46.1081 31.5126 46.4131 31.243C46.5641 31.1064 46.7114 30.9595 46.8486 30.7956C46.9171 30.7138 46.9822 30.6285 47.0439 30.5397C47.1057 30.4509 47.1639 30.3554 47.2187 30.2597C47.301 30.1164 47.3695 29.9662 47.4245 29.8091C47.6335 29.867 47.8426 29.9354 48.0483 30.0139C48.5831 30.2119 49.1109 30.468 49.6113 30.7752C50.1118 31.0826 50.5916 31.441 51.0304 31.854C51.4692 32.2671 51.8668 32.7349 52.1958 33.2606C52.004 32.6734 51.7195 32.1102 51.38 31.581C51.0372 31.0518 50.6328 30.5567 50.1838 30.1027C49.7347 29.6486 49.2377 29.2321 48.6996 28.8635C48.3121 28.5971 47.9043 28.3582 47.4725 28.1465C47.4382 28.0339 47.3935 27.9279 47.3422 27.8255C47.2737 27.5353 47.205 27.2452 47.1399 26.955C47.1227 26.8765 47.1057 26.7979 47.0919 26.7195C47.6198 26.9106 48.1443 27.1155 48.6619 27.3373C49.409 27.6549 50.1426 28.0031 50.8556 28.382C51.5685 28.761 52.261 29.1741 52.9157 29.6282C53.5704 30.0821 54.1943 30.5772 54.7461 31.1234C55.2946 31.6697 55.7745 32.274 56.0967 32.9261C56.2578 33.2504 56.3778 33.5849 56.4428 33.9229C56.5216 34.2574 56.5354 34.5954 56.4908 34.9301Z" fill="url(#paint3_radial_684_3)"/>
</g>
<defs>
<filter id="filter0_d_684_3" x="0" y="0" width="68" height="76" filterUnits="userSpaceOnUse" color-interpolation-filters="sRGB">
<feFlood flood-opacity="0" result="BackgroundImageFix"/>
<feColorMatrix in="SourceAlpha" type="matrix" values="0 0 0 0 0 0 0 0 0 0 0 0 0 0 0 0 0 0 127 0" result="hardAlpha"/>
<feOffset dy="4"/>
<feGaussianBlur stdDeviation="5"/>
<feComposite in2="hardAlpha" operator="out"/>
<feColorMatrix type="matrix" values="0 0 0 0 0 0 0 0 0 0 0 0 0 0 0 0 0 0 0.15 0"/>
<feBlend mode="normal" in2="BackgroundImageFix" result="effect1_dropShadow_684_3"/>
<feBlend mode="normal" in="SourceGraphic" in2="effect1_dropShadow_684_3" result="shape"/>
</filter>
<radialGradient id="paint0_radial_684_3" cx="0" cy="0" r="1" gradientUnits="userSpaceOnUse" gradientTransform="translate(24.5 19) rotate(62.2658) scale(54.7951 49.4855)">
<stop stop-color="#FF003C"/>
<stop offset="1" stop-color="#78001C"/>
</radialGradient>
<radialGradient id="paint1_radial_684_3" cx="0" cy="0" r="1" gradientUnits="userSpaceOnUse" gradientTransform="translate(24.5 19) rotate(62.2658) scale(54.7951 49.4855)">
<stop stop-color="#FF003C"/>
<stop offset="1" stop-color="#78001C"/>
</radialGradient>
<radialGradient id="paint2_radial_684_3" cx="0" cy="0" r="1" gradientUnits="userSpaceOnUse" gradientTransform="translate(24.5 19) rotate(62.2658) scale(54.7951 49.4855)">
<stop stop-color="#FF003C"/>
<stop offset="1" stop-color="#78001C"/>
</radialGradient>
<radialGradient id="paint3_radial_684_3" cx="0" cy="0" r="1" gradientUnits="userSpaceOnUse" gradientTransform="translate(24.5 19) rotate(62.2658) scale(54.7951 49.4855)">
<stop stop-color="#FF003C"/>
<stop offset="1" stop-color="#78001C"/>
</radialGradient>
</defs>
</svg>
