<svg width="40" height="40" viewBox="0 0 40 40" fill="none" xmlns="http://www.w3.org/2000/svg">
<path d="M13.3335 4.99967H15.0002C11.7502 14.733 11.7502 25.2663 15.0002 34.9997H13.3335M25.0002 4.99967C28.2502 14.733 28.2502 25.2663 25.0002 34.9997M5.00016 26.6663V24.9997C14.7335 28.2497 25.2668 28.2497 35.0002 24.9997V26.6663M5.00016 14.9997C14.7335 11.7497 25.2668 11.7497 35.0002 14.9997M36.6668 19.9997C36.6668 29.2044 29.2049 36.6663 20.0002 36.6663C10.7954 36.6663 3.3335 29.2044 3.3335 19.9997C3.3335 10.7949 10.7954 3.33301 20.0002 3.33301C29.2049 3.33301 36.6668 10.7949 36.6668 19.9997Z" stroke="#FF2D55" stroke-width="3" stroke-linecap="round" stroke-linejoin="round"/>
</svg>
