<svg width="22" height="22" viewBox="0 0 22 22" fill="none" xmlns="http://www.w3.org/2000/svg">
<path fill-rule="evenodd" clip-rule="evenodd" d="M11 0C8.01167 0 7.63858 0.01375 6.46525 0.066C5.29375 0.121 4.49625 0.30525 3.795 0.5775C3.07175 0.858 2.45758 1.23475 1.84617 1.84617C1.23475 2.45758 0.857083 3.07083 0.5775 3.795C0.30525 4.49625 0.120083 5.29375 0.066 6.46525C0.011 7.63858 0 8.01167 0 11C0 13.9883 0.01375 14.3614 0.066 15.5348C0.121 16.7053 0.30525 17.5038 0.5775 18.205C0.858 18.9273 1.23475 19.5424 1.84617 20.1538C2.45758 20.7643 3.07083 21.1429 3.795 21.4225C4.49717 21.6938 5.29467 21.8799 6.46525 21.934C7.63858 21.989 8.01167 22 11 22C13.9883 22 14.3614 21.9862 15.5348 21.934C16.7053 21.879 17.5038 21.6938 18.205 21.4225C18.9273 21.142 19.5424 20.7643 20.1538 20.1538C20.7643 19.5424 21.1429 18.9301 21.4225 18.205C21.6938 17.5038 21.8799 16.7053 21.934 15.5348C21.989 14.3614 22 13.9883 22 11C22 8.01167 21.9862 7.63858 21.934 6.46525C21.879 5.29467 21.6938 4.49533 21.4225 3.795C21.142 3.07175 20.7643 2.45758 20.1538 1.84617C19.5424 1.23475 18.9301 0.857083 18.205 0.5775C17.5038 0.30525 16.7053 0.120083 15.5348 0.066C14.3614 0.011 13.9883 0 11 0ZM11.0007 1.98014C13.9368 1.98014 14.287 1.9948 15.4465 2.04522C16.519 2.09564 17.1011 2.27347 17.488 2.42564C18.0031 2.62455 18.368 2.86289 18.7548 3.24697C19.1389 3.63197 19.3772 3.99772 19.5761 4.51289C19.7265 4.89972 19.9061 5.4818 19.9547 6.5543C20.007 7.7148 20.0189 8.06314 20.0189 11.0001C20.0189 13.9371 20.0051 14.2864 19.951 15.446C19.8951 16.5185 19.7164 17.1006 19.5651 17.4874C19.3598 18.0026 19.126 18.3674 18.741 18.7542C18.357 19.1383 17.9857 19.3766 17.476 19.5756C17.091 19.7259 16.4998 19.9056 15.4273 19.9541C14.2595 20.0064 13.9157 20.0183 10.9732 20.0183C8.02979 20.0183 7.68604 20.0046 6.51912 19.9505C5.4457 19.8946 4.85445 19.7158 4.46945 19.5646C3.94787 19.3592 3.58945 19.1255 3.20537 18.7405C2.81945 18.3564 2.57287 17.9851 2.38037 17.4755C2.22912 17.0905 2.05129 16.4992 1.99537 15.4267L1.99317 15.3651C1.9536 14.258 1.93945 13.8624 1.93945 10.9864C1.93945 8.11326 1.95356 7.71398 1.99301 6.59726L1.99537 6.53047C2.05129 5.45797 2.22912 4.86764 2.38037 4.48264C2.57287 3.96014 2.81945 3.60264 3.20537 3.21672C3.58945 2.83264 3.94787 2.58514 4.46945 2.39355C4.85445 2.24139 5.43287 2.06264 6.50537 2.00764L6.55832 2.00577C7.68522 1.96597 8.06277 1.95264 10.9595 1.95264L11.0007 1.98014ZM5.3515 11C5.3515 7.8815 7.87875 5.3515 11 5.3515C14.1185 5.3515 16.6485 7.87875 16.6485 11C16.6485 14.1185 14.1213 16.6485 11 16.6485C7.8815 16.6485 5.3515 14.1213 5.3515 11ZM11.0007 14.6668C8.97482 14.6668 7.33398 13.026 7.33398 11.0002C7.33398 8.97433 8.97482 7.3335 11.0007 7.3335C13.0265 7.3335 14.6673 8.97433 14.6673 11.0002C14.6673 13.026 13.0265 14.6668 11.0007 14.6668ZM16.8727 6.44866C17.6006 6.44866 18.1927 5.8574 18.1927 5.12865C18.1927 4.40082 17.5997 3.80865 16.8727 3.80957C16.1449 3.80957 15.5527 4.40082 15.5527 5.12865C15.5527 5.85649 16.144 6.44866 16.8727 6.44866Z" fill="white"/>
</svg>
