<svg width="50" height="50" viewBox="0 0 50 50" fill="none" xmlns="http://www.w3.org/2000/svg">
<g clip-path="url(#clip0_337_90)">
<circle cx="25" cy="25" r="24" fill="#FF2D55" stroke="#FF2D55" stroke-width="2"/>
<path fill-rule="evenodd" clip-rule="evenodd" d="M25 14C22.0117 14 21.6386 14.0137 20.4653 14.066C19.2938 14.121 18.4963 14.3053 17.795 14.5775C17.0717 14.858 16.4576 15.2348 15.8462 15.8462C15.2348 16.4576 14.8571 17.0708 14.5775 17.795C14.3053 18.4963 14.1201 19.2938 14.066 20.4653C14.011 21.6386 14 22.0117 14 25C14 27.9883 14.0137 28.3614 14.066 29.5348C14.121 30.7053 14.3053 31.5038 14.5775 32.205C14.858 32.9273 15.2348 33.5424 15.8462 34.1538C16.4576 34.7643 17.0708 35.1429 17.795 35.4225C18.4972 35.6938 19.2947 35.8799 20.4653 35.934C21.6386 35.989 22.0117 36 25 36C27.9883 36 28.3614 35.9862 29.5348 35.934C30.7053 35.879 31.5038 35.6938 32.205 35.4225C32.9273 35.142 33.5424 34.7643 34.1538 34.1538C34.7643 33.5424 35.1429 32.9301 35.4225 32.205C35.6938 31.5038 35.8799 30.7053 35.934 29.5348C35.989 28.3614 36 27.9883 36 25C36 22.0117 35.9862 21.6386 35.934 20.4653C35.879 19.2947 35.6938 18.4953 35.4225 17.795C35.142 17.0717 34.7643 16.4576 34.1538 15.8462C33.5424 15.2348 32.9301 14.8571 32.205 14.5775C31.5038 14.3053 30.7053 14.1201 29.5348 14.066C28.3614 14.011 27.9883 14 25 14ZM25.0007 15.9801C27.9368 15.9801 28.287 15.9948 29.4465 16.0452C30.519 16.0956 31.1011 16.2735 31.488 16.4256C32.0031 16.6246 32.368 16.8629 32.7548 17.247C33.1389 17.632 33.3772 17.9977 33.5761 18.5129C33.7265 18.8997 33.9061 19.4818 33.9547 20.5543C34.007 21.7148 34.0189 22.0631 34.0189 25.0001C34.0189 27.9371 34.0051 28.2864 33.951 29.446C33.8951 30.5185 33.7164 31.1006 33.5651 31.4874C33.3598 32.0026 33.126 32.3674 32.741 32.7542C32.357 33.1383 31.9857 33.3766 31.476 33.5756C31.091 33.7259 30.4998 33.9056 29.4273 33.9541C28.2595 34.0064 27.9157 34.0183 24.9732 34.0183C22.0298 34.0183 21.686 34.0046 20.5191 33.9505C19.4457 33.8946 18.8545 33.7158 18.4695 33.5646C17.9479 33.3592 17.5895 33.1255 17.2054 32.7405C16.8195 32.3564 16.5729 31.9851 16.3804 31.4755C16.2291 31.0905 16.0513 30.4992 15.9954 29.4267L15.9932 29.3651C15.9536 28.258 15.9395 27.8624 15.9395 24.9864C15.9395 22.1133 15.9536 21.714 15.993 20.5973L15.9954 20.5305C16.0513 19.458 16.2291 18.8676 16.3804 18.4826C16.5729 17.9601 16.8195 17.6026 17.2054 17.2167C17.5895 16.8326 17.9479 16.5851 18.4695 16.3936C18.8545 16.2414 19.4329 16.0626 20.5054 16.0076L20.5583 16.0058C21.6852 15.966 22.0628 15.9526 24.9595 15.9526L25.0007 15.9801ZM19.3515 25C19.3515 21.8815 21.8787 19.3515 25 19.3515C28.1185 19.3515 30.6485 21.8787 30.6485 25C30.6485 28.1185 28.1213 30.6485 25 30.6485C21.8815 30.6485 19.3515 28.1213 19.3515 25ZM25.0007 28.6668C22.9748 28.6668 21.334 27.026 21.334 25.0002C21.334 22.9743 22.9748 21.3335 25.0007 21.3335C27.0265 21.3335 28.6673 22.9743 28.6673 25.0002C28.6673 27.026 27.0265 28.6668 25.0007 28.6668ZM30.8727 20.4487C31.6006 20.4487 32.1927 19.8574 32.1927 19.1287C32.1927 18.4008 31.5997 17.8087 30.8727 17.8096C30.1449 17.8096 29.5527 18.4008 29.5527 19.1287C29.5527 19.8565 30.144 20.4487 30.8727 20.4487Z" fill="white"/>
</g>
<defs>
<clipPath id="clip0_337_90">
<rect width="50" height="50" fill="white"/>
</clipPath>
</defs>
</svg>
