<svg width="94" height="31" viewBox="0 0 94 31" fill="none" xmlns="http://www.w3.org/2000/svg">
<path fill-rule="evenodd" clip-rule="evenodd" d="M56.5 10.4996C56.3843 9.49964 56.1053 8.94339 55.746 8.41309C55.3866 7.87331 54.9468 7.41878 54.4267 7.04944C53.916 6.67066 53.3296 6.38184 52.6676 6.18298C52.015 5.98411 51.2916 5.88468 50.4971 5.88468C49.0123 5.88468 47.7072 6.25399 46.5816 6.99263C46.0029 7.3757 45.4903 7.84919 45.0438 8.41309L43 7.99964L44.3258 9.49964C44.1999 9.72826 44.0818 9.9674 43.9713 10.2171C43.3472 11.6186 43.0351 13.3326 43.0351 15.3591C43.0351 17.3856 43.3425 19.1091 43.9572 20.5296C44.5719 21.95 45.4421 23.0343 46.5675 23.7825C47.6929 24.521 49.0217 24.8903 50.5539 24.8903C51.9441 24.8903 53.131 24.6441 54.1146 24.1516C55.1076 23.6498 55.8642 22.9443 56.3843 22.0353C56.8875 21.1716 57.1517 20.6217 57.1768 19.4589V18.9392V18.4983H48L53 14.0523H63.0925V17.7171C63.0925 20.2738 62.5553 22.7833 61.4772 24.6205C60.3991 26.4481 58.9142 27.8591 57.0228 28.8535C55.1313 29.8383 52.9656 30.3306 50.5254 30.3306C47.8017 30.3306 45.409 29.7293 43.3472 28.5266C41.2855 27.3146 39.6777 25.5958 38.5239 23.3705C37.3795 21.1356 36.8074 18.4841 36.8074 15.4159C36.8074 13.058 37.1478 10.9557 37.8288 9.10911C38.5192 7.25304 39.4838 5.68108 40.7227 4.39319C41.9618 3.10533 43.4039 2.12521 45.0496 1.45286C46.6952 0.780511 48.4779 0.444336 50.3977 0.444336C52.0434 0.444336 53.5754 0.685811 54.9941 1.16876C56.4128 1.64226 57.6707 2.31459 58.7676 3.18581C59.5432 3.79649 60.2189 4.48859 60.7948 5.26212C61.0404 5.59213 61.2679 5.93696 61.4772 6.29661L56.5 10.4996Z" fill="url(#paint0_radial_334_7)"/>
<path fill-rule="evenodd" clip-rule="evenodd" d="M8.33922 0.842061H0.763672V29.933H6.72198V22.4996L4 20.9996H6.72198V10.9273H6.96317L14.4818 29.791H18.539L26.0578 10.9983H26.299V29.933H32.2572V0.842061H24.6818L23.3892 3.99964L25 4.99964L22.8479 5.32197L16.6806 20.3875H16.3402L8.33922 0.842061ZM65.2365 29.933H71.819L73.9742 23.2995H84.4642L85.3398 25.9996L87.5 26.4996L85.6641 26.9996L86.6153 29.933H93.1976L83.1822 0.842061H75.2663L65.2365 29.933ZM82.9074 18.4983L79.3377 7.48979H79.1106L77.2485 13.2212L75.2663 13.4996L76.9289 14.2051L75.5341 18.4983H82.9074Z" fill="url(#paint1_radial_334_7)"/>
<path d="M63 10.4996C62.8014 9.06024 62.177 7.48979 61.4772 6.29661L56.5 10.4996H63Z" fill="url(#paint2_radial_334_7)"/>
<defs>
<radialGradient id="paint0_radial_334_7" cx="0" cy="0" r="1" gradientUnits="userSpaceOnUse" gradientTransform="translate(36 9.49963) rotate(72.204) scale(42.5353 52.1783)">
<stop stop-color="white"/>
<stop offset="1" stop-color="#B8B8B8"/>
</radialGradient>
<radialGradient id="paint1_radial_334_7" cx="0" cy="0" r="1" gradientUnits="userSpaceOnUse" gradientTransform="translate(36 9.49963) rotate(72.204) scale(42.5353 52.1783)">
<stop stop-color="white"/>
<stop offset="1" stop-color="#B8B8B8"/>
</radialGradient>
<radialGradient id="paint2_radial_334_7" cx="0" cy="0" r="1" gradientUnits="userSpaceOnUse" gradientTransform="translate(36 9.49963) rotate(72.204) scale(42.5353 52.1783)">
<stop stop-color="white"/>
<stop offset="1" stop-color="#B8B8B8"/>
</radialGradient>
</defs>
</svg>
