<svg width="49" height="56" viewBox="0 0 49 56" fill="none" xmlns="http://www.w3.org/2000/svg">
<path d="M11.6173 32.5243C10.2729 34.0304 13.0513 35.5366 12.1723 36.1654C11.0761 36.9461 12.3447 38.1311 12.9789 38.3176C14.6715 38.8151 13.8373 41.1711 15.2885 41.0088C16.0848 40.9119 15.8538 40.3766 16.6812 39.7719C17.3878 39.2538 17.9082 39.6096 19.1561 39.1088C20.0628 38.7459 19.9007 39.7029 20.6522 39.6511C21.4037 39.5958 21.8966 39.0189 22.1103 39.7823C22.324 40.5458 20.2213 41.1158 21.5966 42.4666C22.2861 43.1438 22.3973 43.3406 22.8823 44.0113C23.0672 44.2671 23.5257 45.1324 23.4403 45.9688C23.2465 47.0901 23.7545 48.7436 24.9576 49.5209C25.9332 50.1531 24.6612 52.3019 25.1196 52.6439C26.6192 53.7666 29.5872 50.5849 29.1494 48.3359C28.8529 46.8056 31.1901 46.7744 31.6209 45.4273C32.0518 44.0799 29.956 42.3594 32.9653 40.6874C35.9746 39.0189 35.6507 37.6716 35.6507 37.6716C21.2348 38.7978 11.6173 32.5243 11.6173 32.5243Z" fill="url(#paint0_radial_334_9)"/>
<path d="M41.9125 39.9378C42.6156 39.6649 43.4808 37.4781 43.4808 35.3673C43.4808 35.3673 42.8293 35.8579 41.5332 36.2586C42.4571 37.9686 41.2505 40.1934 41.9125 39.9378Z" fill="url(#paint1_radial_334_9)"/>
<path d="M32.8158 46.1318C32.2299 47.0128 31.2302 47.0714 31.4059 47.8971C31.5817 48.7228 30.6441 49.1926 30.8786 49.9561C31.113 50.7194 33.0227 48.7228 33.002 47.5896C32.9847 46.6499 35.0461 46.1318 34.3395 45.1299C34.0775 44.7603 33.4018 45.2509 32.8158 46.1318Z" fill="url(#paint2_radial_334_9)"/>
<path d="M48.1252 27.2144C48.008 26.7378 47.8219 26.2886 47.5978 25.8776C47.4841 25.6703 47.36 25.4733 47.229 25.2868C47.098 25.0968 46.9602 24.9138 46.8188 24.7409C46.5327 24.3921 46.2224 24.0708 45.8984 23.7703C45.2539 23.1691 44.5574 22.6474 43.837 22.1811C43.4785 21.9461 43.1131 21.7251 42.7408 21.5143C42.5547 21.4073 42.3686 21.3071 42.1823 21.2069C41.9962 21.1068 41.8067 21.0066 41.6171 20.9098C40.8587 20.5263 40.083 20.1774 39.3006 19.8631C38.9077 19.7041 38.5147 19.5521 38.1148 19.4071C37.9148 19.3344 37.7149 19.2654 37.515 19.1963C37.3702 19.1479 37.2289 19.0996 37.0841 19.0513C37.06 18.9199 37.0393 18.7886 37.0152 18.6539C36.9151 18.0424 36.8256 17.4309 36.7394 16.8126C36.6533 16.1977 36.5706 15.5759 36.4912 14.9575L36.25 13.092L36.1223 12.1558C36.0811 11.8449 36.0363 11.5305 35.988 11.2196C35.9431 10.9087 35.8915 10.5943 35.8432 10.2834C35.7914 9.97247 35.7398 9.6581 35.6846 9.34719C35.6295 9.03627 35.5674 8.72535 35.502 8.41097C35.4364 8.10007 35.3675 7.78916 35.2916 7.47824C35.1399 6.8564 34.9607 6.24147 34.7539 5.62655C34.547 5.01164 34.3092 4.40362 34.0024 3.80942C33.6956 3.21869 33.3165 2.64177 32.8234 2.14084C32.6994 2.01647 32.5719 1.89557 32.4339 1.78502C32.2996 1.67102 32.1548 1.56738 32.0065 1.46719C31.9685 1.44301 31.9341 1.41883 31.8928 1.39465L31.8377 1.3601C31.8307 1.35319 31.8136 1.34628 31.8031 1.33937L31.7653 1.31865C31.6653 1.26337 31.5619 1.21501 31.4447 1.17355C31.2172 1.09409 30.9517 1.063 30.7105 1.09064C30.4656 1.11482 30.2484 1.19082 30.0623 1.27374C29.8762 1.3601 29.7176 1.45683 29.5763 1.55356C29.4315 1.65029 29.304 1.74702 29.18 1.83339C29.0593 1.9232 28.9421 2.00265 28.8352 2.0683C28.7249 2.13739 28.6248 2.18575 28.5318 2.21685C28.4388 2.24794 28.3595 2.26175 28.2801 2.2583C28.2423 2.2583 28.2009 2.24794 28.1629 2.23757C28.1217 2.2272 28.0802 2.20994 28.0389 2.1892C27.9527 2.14775 27.8632 2.08212 27.7735 2.00265C27.5494 1.80575 27.3254 1.58465 27.0943 1.3601C26.8635 1.13555 26.6291 0.900638 26.3704 0.676086C26.1154 0.448083 25.8361 0.233896 25.5363 0.0369827C25.2329 -0.156476 24.902 -0.322298 24.5539 -0.446663C24.2057 -0.574485 23.8404 -0.653942 23.4783 -0.695397C23.3888 -0.702307 23.2957 -0.71267 23.206 -0.71958C23.1165 -0.723035 23.0234 -0.729945 22.9337 -0.733398C22.8442 -0.733398 22.7544 -0.733398 22.6614 -0.733398L22.3926 -0.723033C22.3029 -0.716125 22.2168 -0.709217 22.1271 -0.698853C22.0375 -0.688488 21.9513 -0.67467 21.8651 -0.664307C21.7789 -0.653943 21.6928 -0.63667 21.6066 -0.62285L21.5412 -0.612487L21.4721 -0.598668C21.4446 -0.591758 21.417 -0.588305 21.3929 -0.581395L21.3205 -0.564122C21.1344 -0.519212 20.9722 -0.467393 20.8138 -0.415573C20.6551 -0.363755 20.5 -0.308482 20.3484 -0.249752C20.0416 -0.13575 19.7452 -0.0148383 19.4522 0.112983C19.1558 0.237348 18.8661 0.368625 18.5765 0.4999C17.9974 0.765907 17.4252 1.03882 16.8531 1.31865C16.2842 1.59847 15.712 1.88175 15.1501 2.17539C15.0088 2.24794 14.8675 2.32394 14.7261 2.39994C14.5848 2.47594 14.4435 2.55194 14.3056 2.62795C14.0264 2.78341 13.7472 2.94922 13.4714 3.12195C13.1956 3.29814 12.9267 3.48124 12.6613 3.68852C12.5303 3.79215 12.3993 3.9027 12.2683 4.02015C12.1408 4.14107 12.0133 4.26889 11.8926 4.41744L11.8478 4.47617L11.8168 4.51762L11.8099 4.52799L11.7409 4.62125L11.6031 4.81127L11.3273 5.19472C11.1446 5.45037 10.9619 5.71292 10.7827 5.97547C10.6034 6.23802 10.4276 6.50404 10.2552 6.77349C10.0829 7.04295 9.91742 7.32277 9.75886 7.60606C9.67958 7.74769 9.60374 7.89279 9.52791 8.04479C9.45552 8.19334 9.38313 8.34534 9.31763 8.50425C9.25213 8.66317 9.19008 8.82899 9.14182 9.00862C9.09701 9.17099 9.05565 9.33337 9.02118 9.49574C8.88329 10.1383 8.79712 10.7739 8.72473 11.4096C8.65578 12.0418 8.60407 12.674 8.55926 13.3062C8.51445 13.9384 8.47998 14.5671 8.4524 15.1959C8.42483 15.8246 8.39725 16.4568 8.38001 17.0856L8.37656 17.2271C8.30417 17.1996 8.23178 17.1719 8.15939 17.1478C7.74919 17.0026 7.33554 16.8783 6.91498 16.7711C6.70472 16.7193 6.49444 16.6674 6.28416 16.6226C6.07389 16.5777 5.86018 16.5397 5.64645 16.5052C5.43273 16.4706 5.21556 16.4395 4.99839 16.4119C4.78122 16.3877 4.56405 16.367 4.34344 16.3532C4.12282 16.3393 3.89876 16.3324 3.6747 16.3324C3.45064 16.3324 3.22314 16.3428 2.99217 16.367C2.76122 16.3877 2.52682 16.4222 2.28896 16.4775C2.05112 16.5328 1.80981 16.6019 1.56507 16.7089C1.32032 16.8161 1.07213 16.9611 0.848069 17.1684C0.734315 17.2721 0.630902 17.3896 0.53783 17.5208C0.493016 17.5864 0.448203 17.6556 0.413732 17.7246C0.382707 17.7834 0.355131 17.8386 0.327553 17.9008C0.106939 18.3741 -0.00336876 18.9026 7.83558e-05 19.4104C7.83558e-05 19.9218 0.103492 20.4089 0.258613 20.8579C0.413732 21.3071 0.617111 21.7216 0.84462 22.1119C1.30653 22.8893 1.85462 23.5733 2.43718 24.2159C2.75432 24.5648 3.0818 24.8964 3.41962 25.2178C3.15764 25.8638 2.91978 26.5201 2.71641 27.1868C2.47166 27.9883 2.27518 28.8071 2.1166 29.6293C1.96148 30.4514 1.85117 31.2839 1.79258 32.1201C1.73398 32.9561 1.72019 33.7921 1.7512 34.6281C1.81326 36.3001 2.05801 37.9688 2.49924 39.5819L2.58196 39.8859C2.60954 39.9863 2.64057 40.0864 2.6716 40.1866C2.70261 40.2868 2.73019 40.3869 2.76466 40.4871L2.90944 40.9328L3.06456 41.3784C3.09903 41.4786 3.13695 41.5753 3.17486 41.6721L3.28517 41.9658C3.59198 42.7429 3.94357 43.5029 4.33655 44.2423L4.40894 44.3804L4.48477 44.5186L4.63644 44.7916C4.68816 44.8849 4.7433 44.9713 4.79502 45.0611L4.95358 45.3304C5.1742 45.6863 5.39826 46.0388 5.6361 46.3808C6.1118 47.0681 6.62198 47.7314 7.17007 48.3603C7.71816 48.9889 8.30417 49.5901 8.91776 50.1531C9.5348 50.7198 10.1829 51.2448 10.8585 51.7354C11.0274 51.8598 11.1997 51.9771 11.3687 52.0981C11.4548 52.1603 11.541 52.2156 11.6272 52.2743L11.8892 52.4469L12.1546 52.6128C12.2442 52.6681 12.3304 52.7234 12.42 52.7786C12.5993 52.8858 12.7785 52.9928 12.9612 53.0931C13.6886 53.5041 14.4366 53.8738 15.2088 54.1984C16.7495 54.8446 18.3594 55.3281 20.0037 55.6079C20.8276 55.7496 21.6583 55.8464 22.4891 55.8948C23.3232 55.9431 24.1575 55.9466 24.9917 55.9016C25.8258 55.8568 26.6566 55.7634 27.4805 55.6253L27.6356 55.6011L27.7908 55.5734L28.0975 55.5148C28.2009 55.4974 28.3009 55.4733 28.4043 55.4491L28.7111 55.3834C28.9145 55.3351 29.1179 55.2868 29.3213 55.2349L29.7762 55.1106L29.928 55.0656C33.1407 54.1398 36.1293 52.4504 38.6008 50.1981C41.0759 47.9456 43.0339 45.1233 44.2713 42.0071C44.5816 41.2264 44.8436 40.4318 45.0608 39.6199C45.2778 38.8116 45.4538 37.9894 45.5778 37.1603C45.702 36.3313 45.7777 35.4953 45.8088 34.6558C45.8191 34.4449 45.8191 34.2378 45.8226 34.0269C45.826 33.8163 45.826 33.6089 45.8191 33.3913C45.8121 33.2083 45.8018 33.0183 45.7847 32.8351C45.9398 32.7211 46.0914 32.6003 46.2396 32.4724C46.5981 32.1614 46.9325 31.8126 47.2255 31.4188C47.5186 31.0284 47.7633 30.5861 47.9426 30.1198C48.1218 29.6534 48.2252 29.1594 48.2631 28.6689C48.2906 28.1956 48.2458 27.6913 48.1252 27.2144ZM9.61752 15.2546C9.63475 14.6328 9.65889 14.0109 9.68991 13.3925C9.72439 12.7742 9.76575 12.1558 9.82436 11.5443C9.88639 10.9329 9.96223 10.3248 10.0794 9.74447C10.1105 9.59937 10.1415 9.45772 10.1794 9.31954C10.2139 9.19864 10.2587 9.06735 10.3104 8.93954C10.3276 8.90154 10.3414 8.86009 10.3586 8.82209C10.4173 8.84626 10.4793 8.87044 10.5379 8.89117C10.7206 8.96027 10.9033 9.01554 11.0825 9.07082C11.4445 9.17445 11.8099 9.26082 12.1718 9.33337C12.5338 9.40937 12.9026 9.46464 13.268 9.513C13.6334 9.56137 14.0023 9.59937 14.3677 9.62355C14.7365 9.65119 15.1019 9.66846 15.4707 9.67537C15.8396 9.68229 16.2084 9.67537 16.5738 9.6581C17.3115 9.62355 18.0457 9.54409 18.7731 9.41282C19.1349 9.34719 19.497 9.26427 19.8555 9.16409C20.2139 9.0639 20.5656 8.94644 20.9103 8.80825C21.255 8.67007 21.5928 8.51462 21.9203 8.33152C22.2443 8.14842 22.558 7.9446 22.851 7.71661C23.4371 7.25714 23.9437 6.69404 24.3229 6.05839C24.516 5.74402 24.6641 5.40545 24.7883 5.06C24.8228 4.97364 24.8469 4.88727 24.8745 4.8009L24.9158 4.66962C24.9296 4.62472 24.9399 4.5798 24.9503 4.53835L24.9847 4.40707L25.002 4.34144L25.0158 4.2758L25.0674 4.00979L24.9779 4.26544L24.9573 4.32762L24.8848 4.51417C24.8675 4.55562 24.8537 4.59707 24.8366 4.63854L24.7813 4.75944C24.7435 4.84235 24.7089 4.92182 24.6676 5.00127L24.6055 5.11872C24.5849 5.15672 24.5643 5.19819 24.5401 5.23619C24.4952 5.31219 24.4504 5.39164 24.4056 5.46419L24.2608 5.68529L24.1057 5.89947C23.6817 6.46257 23.1544 6.92895 22.5683 7.29859C22.2787 7.48514 21.9719 7.6475 21.6583 7.78916C21.3446 7.93079 21.0172 8.04824 20.6863 8.14842C20.3552 8.24862 20.0175 8.32807 19.6796 8.39715C19.3418 8.46626 18.9971 8.51807 18.6524 8.55952C17.963 8.63552 17.2632 8.66317 16.5669 8.64589C16.4807 8.64244 16.3911 8.64244 16.3049 8.63899C15.0364 8.51807 11.217 7.4575 12.8613 4.95982C12.9061 4.9149 12.9509 4.86999 12.9991 4.82509C13.0991 4.7318 13.2094 4.64199 13.3232 4.55217C13.5507 4.37599 13.7954 4.21015 14.0505 4.04779C14.5572 3.72997 15.095 3.43632 15.6431 3.16342C15.9188 3.02869 16.1946 2.89395 16.4738 2.76959C16.753 2.64177 17.0357 2.52085 17.3218 2.39994C17.8906 2.16157 18.4663 1.94047 19.0454 1.7332C19.6245 1.52592 20.2071 1.32555 20.7896 1.15628C20.9345 1.11482 21.0791 1.07337 21.2239 1.03537C21.3652 0.997365 21.51 0.96282 21.6375 0.938638C21.6687 0.931728 21.6996 0.928273 21.7273 0.924818C21.7411 0.921363 21.7582 0.921365 21.7755 0.917911L21.8271 0.911001C21.8995 0.904091 21.9685 0.890273 22.0409 0.886818C22.1133 0.87991 22.1822 0.873 22.2546 0.869545C22.3237 0.86609 22.3959 0.862637 22.465 0.859182C22.7441 0.848818 23.0234 0.862635 23.2957 0.897182L23.499 0.924818L23.699 0.96282C23.83 0.993911 23.9644 1.025 24.0919 1.063C24.1575 1.08373 24.2229 1.101 24.285 1.12519C24.3161 1.13555 24.3505 1.14591 24.3815 1.15973C24.4125 1.17355 24.4436 1.18391 24.478 1.19773C24.5435 1.22192 24.6055 1.24955 24.6676 1.27719C24.7297 1.30483 24.7918 1.33592 24.8572 1.36355C25.1054 1.48792 25.3501 1.62956 25.5914 1.79192C25.8328 1.95429 26.0707 2.13394 26.305 2.32394C26.5429 2.51394 26.7772 2.71777 27.0324 2.92504C27.184 3.04595 27.3495 3.1634 27.5459 3.25669C27.7425 3.34996 27.9665 3.41905 28.2044 3.43632C28.4388 3.4536 28.6766 3.42597 28.8835 3.36724C29.0903 3.3085 29.273 3.22559 29.435 3.13924C29.5969 3.05287 29.7452 2.95959 29.8797 2.87322C30.0176 2.78685 30.1416 2.70395 30.2622 2.62795C30.3208 2.59341 30.3794 2.55885 30.4347 2.52775C30.4898 2.49667 30.5449 2.46904 30.5931 2.4483C30.6932 2.4034 30.7794 2.38267 30.8518 2.3723C30.9242 2.36539 30.9828 2.3723 31.0517 2.39304C31.0862 2.40339 31.1241 2.42067 31.1654 2.4414L31.1792 2.4483C31.186 2.45175 31.1895 2.45175 31.1965 2.45867L31.2413 2.48285C31.2723 2.50012 31.2999 2.5174 31.3275 2.53467C31.5584 2.67977 31.7756 2.84214 31.9823 3.02869C32.396 3.39832 32.7545 3.84742 33.0613 4.34835C33.3681 4.8458 33.6197 5.39164 33.8301 5.95821C33.9335 6.24147 34.0265 6.53167 34.1128 6.82186C34.1955 7.1155 34.2747 7.40914 34.3436 7.70624C34.4849 8.30044 34.6056 8.90499 34.7057 9.51645C34.7573 9.82047 34.8055 10.1279 34.8505 10.4319C34.8952 10.7394 34.9365 11.0469 34.9745 11.3543C35.1296 12.5876 35.2538 13.8278 35.3743 15.0784C35.4261 15.6104 35.4778 16.1424 35.5364 16.6744C35.4605 16.6433 35.3846 16.6157 35.3089 16.5881C35.1572 16.5362 35.0021 16.4879 34.847 16.4533C34.7711 16.4326 34.6918 16.4153 34.6159 16.4015C34.5367 16.3877 34.4608 16.3739 34.3816 16.3601C34.2264 16.3324 34.0713 16.3186 33.9162 16.3013C33.6059 16.2737 33.3026 16.2668 32.9994 16.2633C32.3926 16.2633 31.7963 16.3013 31.2068 16.3566C30.6173 16.4119 30.0349 16.4879 29.4556 16.5708C28.2974 16.7436 27.1564 16.9578 26.0189 17.1616C24.8814 17.3653 23.7506 17.5691 22.6166 17.7349C22.334 17.7764 22.0513 17.8144 21.7652 17.8524C21.4824 17.8869 21.1998 17.9216 20.9136 17.9491C20.631 17.9768 20.3449 17.9976 20.0622 18.0183C19.9209 18.0286 19.7796 18.0321 19.6383 18.0356C19.497 18.0389 19.3557 18.0424 19.2143 18.0424C19.073 18.0424 18.9317 18.0459 18.7902 18.0424C18.718 18.0424 18.6489 18.0424 18.58 18.0389L18.3663 18.0321C18.0801 18.0253 17.794 18.0114 17.508 17.9976C16.9358 17.9699 16.3635 17.9354 15.7948 17.8869C15.226 17.8386 14.6607 17.7799 14.0988 17.7039C13.5369 17.6279 12.9785 17.5381 12.4304 17.4241C11.8823 17.3136 11.3411 17.1719 10.8206 16.9991C10.562 16.9128 10.3069 16.8161 10.0553 16.7089C9.90364 16.6468 9.75886 16.5777 9.60719 16.5086C9.6003 16.0975 9.60719 15.676 9.61752 15.2546ZM9.62786 17.7903C9.91053 17.8974 10.1966 17.9941 10.4862 18.0769C10.7758 18.1634 11.0653 18.2359 11.3549 18.3016C11.6444 18.3706 11.9374 18.4294 12.227 18.4813C12.8096 18.5883 13.3921 18.6643 13.9747 18.7264C14.5572 18.7886 15.1398 18.8336 15.7258 18.8681C16.3084 18.9026 16.891 18.9234 17.4734 18.9373C17.7631 18.9406 18.056 18.9476 18.3456 18.9476L18.7834 18.9511C18.9317 18.9511 19.0798 18.9511 19.2247 18.9476C19.3728 18.9441 19.5176 18.9406 19.6659 18.9338L20.107 18.9164C20.4001 18.9061 20.6931 18.8888 20.9861 18.8681C21.2792 18.8474 21.5686 18.8266 21.8618 18.8024C22.1512 18.7783 22.4442 18.7506 22.7338 18.7196C23.8955 18.5986 25.0468 18.4466 26.1913 18.2913C27.3357 18.1358 28.4767 17.9803 29.6107 17.8594C30.1762 17.8006 30.7414 17.7523 31.3034 17.7211C31.8652 17.6936 32.4201 17.6831 32.9647 17.7039C33.2372 17.7143 33.506 17.7349 33.768 17.7661C34.03 17.7938 34.2885 17.8351 34.5367 17.8904C34.7849 17.9458 35.0228 18.0183 35.2468 18.1013L35.3295 18.1323L35.4122 18.1668C35.4675 18.1876 35.5191 18.2118 35.5709 18.2359C35.6191 18.2601 35.6674 18.2843 35.7157 18.3084C35.7398 18.4846 35.7605 18.6643 35.7846 18.8404C35.8708 19.4693 35.9672 20.0979 36.0844 20.7268C36.1912 21.2933 36.3154 21.8564 36.4326 22.4298C36.4085 22.4886 36.3843 22.5473 36.3569 22.6059C36.3051 22.7131 36.2395 22.8133 36.1603 22.9099C36.0051 23.1034 35.8121 23.2831 35.588 23.4386C35.364 23.5941 35.1158 23.7391 34.8505 23.8601C34.585 23.9809 34.3092 24.0949 34.023 24.1916C33.7369 24.2884 33.444 24.3713 33.1475 24.4508C32.5511 24.6028 31.9376 24.7133 31.3137 24.8031C30.6932 24.8929 30.0623 24.9518 29.4315 24.9966C28.8008 25.0414 28.1629 25.0658 27.5288 25.0726C26.2567 25.0864 24.9779 25.0414 23.7024 24.9413C21.1515 24.7341 18.6144 24.2919 16.1532 23.6148C15.8465 23.5284 15.5397 23.4421 15.2363 23.3453C14.933 23.2486 14.6296 23.1484 14.3297 23.0448C13.7299 22.8339 13.1405 22.6059 12.5648 22.3504C11.9891 22.0948 11.4273 21.8114 10.8999 21.4936C10.4483 21.2208 10.0139 20.9201 9.63131 20.5884C9.62442 20.3674 9.61752 20.1463 9.61408 19.9253C9.60719 19.6143 9.6003 19.3034 9.59685 18.9924C9.59339 18.5883 9.58994 18.1806 9.58994 17.7764C9.60374 17.7799 9.61408 17.7834 9.62786 17.7903ZM44.399 34.6349C44.3955 35.4226 44.3404 36.2068 44.2438 36.9876C44.1508 37.7683 44.0025 38.5456 43.8129 39.3126L43.7405 39.5993L43.6613 39.8859C43.6095 40.0761 43.5509 40.2661 43.4958 40.4561L43.4544 40.5976L43.4096 40.7393L43.3165 41.0226C43.2854 41.1159 43.251 41.2091 43.2165 41.3024C43.182 41.3958 43.1511 41.4889 43.1166 41.5823C42.0066 44.5463 40.1899 47.2548 37.8597 49.4173C37.2772 49.9598 36.6636 50.4641 36.0225 50.9373L35.9018 51.0271L35.7811 51.1136L35.5364 51.2863C35.457 51.3449 35.371 51.3968 35.2882 51.4556L35.0401 51.6214C34.7057 51.8356 34.3678 52.0463 34.0197 52.2398C33.3268 52.6336 32.6132 52.9894 31.8825 53.3038C31.1483 53.6146 30.4002 53.8841 29.6349 54.1121L29.4936 54.1536L29.3487 54.1951L29.0593 54.2744C28.8662 54.3263 28.6731 54.3713 28.4802 54.4196L28.1871 54.4853C28.0905 54.5059 27.9942 54.5301 27.8941 54.5474L27.6012 54.6061L27.4529 54.6338L27.3047 54.6579C26.5187 54.7961 25.7259 54.8894 24.9296 54.9378C24.1333 54.9828 23.3335 54.9828 22.5374 54.9378C21.7411 54.8929 20.9483 54.8031 20.1623 54.6683L20.014 54.6441L19.8658 54.6164L19.5727 54.5613C19.3763 54.5233 19.1832 54.4783 18.9868 54.4369L18.6972 54.3678C18.6006 54.3436 18.5043 54.3229 18.4077 54.2953L18.1181 54.2158L17.9733 54.1778L17.8286 54.1363L17.5425 54.0499C17.446 54.0223 17.3529 53.9878 17.2564 53.9601C17.1633 53.9291 17.0668 53.8979 16.9737 53.8669L16.6909 53.7666C16.3153 53.6354 15.943 53.4834 15.5776 53.3314C15.419 53.2623 15.2605 53.1933 15.1053 53.1206C15.0881 52.4816 14.8882 52.0153 14.3677 51.7734C13.3645 51.3069 13.3508 49.6591 11.6789 49.2273C10.9309 49.0338 10.4655 47.9906 9.8933 45.5343C9.34175 43.1679 8.4524 44.4254 6.70128 43.9624C5.03976 43.5238 5.79813 42.3491 5.07423 41.7758C4.53303 41.3473 4.18832 41.0744 3.96771 40.8983C3.7919 40.3869 3.63334 39.8653 3.49545 39.3403C3.29553 38.5698 3.13695 37.7891 3.02664 36.9979C2.91978 36.2103 2.8543 35.4158 2.83705 34.6178C2.81638 33.8231 2.84739 33.0251 2.91978 32.2341C2.99217 31.4429 3.11283 30.6553 3.27828 29.8814C3.4403 29.1041 3.65746 28.3406 3.91254 27.5944C3.94357 27.5013 3.9746 27.4079 4.00907 27.3146L4.11249 27.0348L4.16419 26.8966C4.18143 26.8518 4.2021 26.8034 4.21935 26.7584L4.32966 26.4821C4.36413 26.3888 4.40549 26.2989 4.44341 26.2091L4.45719 26.1781C5.05009 26.6789 5.66024 27.1488 6.28416 27.6048C6.97014 28.1023 7.67335 28.5756 8.3869 29.0281C8.56615 29.1421 8.7454 29.2528 8.92465 29.3633C9.1039 29.4738 9.2866 29.5843 9.46585 29.6914C9.8278 29.9091 10.1932 30.1163 10.562 30.3236C12.0374 31.1458 13.5541 31.8886 15.1088 32.5519C15.3018 32.6348 15.4983 32.7176 15.6913 32.7971L15.9843 32.9181L16.2842 33.0389C16.6841 33.1944 17.0874 33.3394 17.4907 33.4743C17.894 33.6089 18.3009 33.7368 18.711 33.8543C19.1178 33.9718 19.5279 34.0823 19.9382 34.1893C20.7585 34.4001 21.5859 34.5866 22.4132 34.7524C23.2405 34.9183 24.0747 35.0668 24.909 35.1913C26.5808 35.4434 28.2595 35.6264 29.9486 35.7301C30.3691 35.7543 30.7932 35.7784 31.2172 35.7923C31.6411 35.8061 32.0651 35.8164 32.4892 35.8199C33.3371 35.8268 34.1852 35.8164 35.0366 35.7751C35.888 35.7336 36.736 35.6679 37.5874 35.5678C38.4388 35.4641 39.2869 35.3328 40.1348 35.1566C40.5588 35.0668 40.9829 34.9701 41.4033 34.8561C41.5102 34.8284 41.6136 34.7974 41.7204 34.7698C41.824 34.7386 41.9308 34.7076 42.0342 34.6764C42.2444 34.6108 42.4513 34.5418 42.6615 34.4691C43.0787 34.3241 43.4923 34.1548 43.8991 33.9718C44.0611 33.8958 44.2197 33.8198 44.3782 33.7368C44.3817 33.8404 44.3852 33.9476 44.3852 34.0546C44.3955 34.2411 44.4023 34.4381 44.399 34.6349ZM46.7533 28.5411C46.7085 28.8864 46.6188 29.2216 46.4775 29.5359C46.3361 29.8503 46.1535 30.1474 45.926 30.4204C45.8121 30.5551 45.6916 30.6864 45.5606 30.8143C45.4296 30.9386 45.2916 31.0594 45.147 31.1734C45.0022 31.2874 44.8506 31.3979 44.6954 31.5016C44.6195 31.5534 44.5368 31.6053 44.4576 31.6536C44.3748 31.7021 44.2954 31.7504 44.2127 31.7988C43.8818 31.9853 43.5338 32.1581 43.1752 32.3101C42.8167 32.4621 42.4478 32.6003 42.0755 32.7281C41.3276 32.9803 40.5484 33.1771 39.7625 33.3464C38.9731 33.5123 38.1733 33.6401 37.3667 33.7368C36.5601 33.8369 35.7501 33.9096 34.9332 33.9613C34.1196 34.0098 33.2991 34.0408 32.4822 34.0478C31.6618 34.0581 30.8448 34.0443 30.0244 34.0166C28.3837 33.9544 26.7463 33.8301 25.1157 33.6298C23.4853 33.4293 21.8651 33.1564 20.2725 32.7903C19.4763 32.6071 18.6869 32.3964 17.9079 32.1581C17.5184 32.0371 17.1357 31.9093 16.7565 31.7711L16.4738 31.6641L16.1877 31.5534C16.036 31.4948 15.8809 31.4326 15.7293 31.3704C15.7465 31.3738 15.7603 31.3808 15.7775 31.3843C7.41137 28.2163 4.21935 22.7028 4.21935 22.7028C11.8857 30.3478 24.3988 33.2566 35.0366 32.6313C36.9324 32.5208 38.077 32.1028 38.077 32.1028C35.6053 32.3514 33.1096 32.3653 30.6381 32.1753C29.4005 32.0786 28.1699 31.9301 26.9462 31.7263C25.7259 31.5224 24.5125 31.2598 23.3199 30.9316C22.1271 30.6034 20.9551 30.2131 19.8176 29.7398C18.68 29.2664 17.577 28.7103 16.5462 28.0504C16.0292 27.7223 15.5328 27.3664 15.064 26.9796C14.8089 26.7688 14.5607 26.5513 14.3228 26.3231C13.2956 25.2938 11.965 23.6596 13.5128 24.0293C13.6575 24.0811 13.7989 24.1329 13.9437 24.1813C14.2573 24.2884 14.571 24.3886 14.8882 24.4853C15.2053 24.5821 15.519 24.6753 15.8361 24.7651C17.1047 25.1244 18.3869 25.4181 19.6796 25.6738C20.9722 25.9224 22.2684 26.1401 23.5749 26.3301C23.9023 26.3749 24.2299 26.4234 24.5573 26.4648C24.8848 26.5063 25.2158 26.5443 25.5432 26.5823C26.2016 26.6548 26.8635 26.7136 27.5321 26.7516C27.8665 26.7688 28.2009 26.7861 28.5353 26.7929C28.8697 26.7999 29.2074 26.8034 29.5418 26.7964C29.8797 26.7896 30.2175 26.7793 30.5554 26.7549C30.7241 26.7446 30.8931 26.7308 31.062 26.7169C31.231 26.6998 31.3998 26.6824 31.5722 26.6618C31.9134 26.6238 32.2513 26.5719 32.5926 26.5098C32.9338 26.4509 33.275 26.3716 33.6164 26.2851C34.3023 26.1089 34.9883 25.8671 35.6536 25.4941C35.9845 25.3076 36.3119 25.0829 36.6187 24.8101C36.7705 24.6719 36.9186 24.5233 37.0566 24.3574C37.1255 24.2746 37.1909 24.1883 37.253 24.0984C37.3151 24.0086 37.3737 23.9119 37.4288 23.8151C37.5115 23.6701 37.5804 23.5181 37.6357 23.3591C37.8459 23.4178 38.0562 23.4869 38.2631 23.5664C38.8009 23.7668 39.3317 24.0259 39.8349 24.3368C40.3382 24.6478 40.8208 25.0104 41.262 25.4284C41.7033 25.8464 42.1031 26.3198 42.434 26.8518C42.2411 26.2576 41.955 25.6876 41.6136 25.1521C41.2688 24.6166 40.8622 24.1156 40.4106 23.6563C39.959 23.1968 39.4592 22.7753 38.9181 22.4023C38.5284 22.1328 38.1183 21.8909 37.684 21.6768C37.6495 21.5628 37.6046 21.4556 37.553 21.3519C37.4841 21.0583 37.415 20.7648 37.3496 20.4711C37.3323 20.3916 37.3151 20.3121 37.3013 20.2328C37.8321 20.4261 38.3596 20.6334 38.8801 20.8579C39.6315 21.1793 40.3692 21.5316 41.0863 21.9151C41.8032 22.2986 42.4996 22.7166 43.1579 23.1761C43.8164 23.6354 44.4437 24.1364 44.9987 24.6891C45.5503 25.2419 46.0329 25.8534 46.3569 26.5133C46.5189 26.8414 46.6396 27.1799 46.705 27.5219C46.7842 27.8604 46.798 28.2024 46.7533 28.5411Z" fill="url(#paint3_radial_334_9)"/>
<defs>
<radialGradient id="paint0_radial_334_9" cx="0" cy="0" r="1" gradientUnits="userSpaceOnUse" gradientTransform="translate(18.4012 16.4361) rotate(84.9478) scale(77.0906 28.5068)">
<stop stop-color="white"/>
<stop offset="1" stop-color="#9E9E9E"/>
</radialGradient>
<radialGradient id="paint1_radial_334_9" cx="0" cy="0" r="1" gradientUnits="userSpaceOnUse" gradientTransform="translate(18.4012 16.4361) rotate(84.9478) scale(77.0906 28.5068)">
<stop stop-color="white"/>
<stop offset="1" stop-color="#9E9E9E"/>
</radialGradient>
<radialGradient id="paint2_radial_334_9" cx="0" cy="0" r="1" gradientUnits="userSpaceOnUse" gradientTransform="translate(18.4012 16.4361) rotate(84.9478) scale(77.0906 28.5068)">
<stop stop-color="white"/>
<stop offset="1" stop-color="#9E9E9E"/>
</radialGradient>
<radialGradient id="paint3_radial_334_9" cx="0" cy="0" r="1" gradientUnits="userSpaceOnUse" gradientTransform="translate(18.4012 16.4361) rotate(84.9478) scale(77.0906 28.5068)">
<stop stop-color="white"/>
<stop offset="1" stop-color="#9E9E9E"/>
</radialGradient>
</defs>
</svg>
