<svg width="94" height="16" viewBox="0 0 94 16" fill="none" xmlns="http://www.w3.org/2000/svg">
<path d="M5.4158 15.2668V2.1868H0.801758V0.466797H11.9873V2.1868H7.37326V15.2668H5.4158ZM27.1755 15.2668V0.466797H36.5634V2.1868H29.133V6.8668H35.6446V8.5868H29.133V13.5468H36.6633V15.2668H27.1755ZM51.5464 15.2668L56.7596 0.466797H59.2165L64.4497 15.2668H62.3724L61.134 11.7268H54.8621L53.6237 15.2668H51.5464ZM55.4613 9.96679H60.5348L57.998 2.7068L55.4613 9.96679ZM79.6366 15.2668V0.466797H82.2132L86.5676 9.2668L90.902 0.466797H93.4787V15.2668H91.5612V3.3468L87.4864 11.4668H85.6288L81.5541 3.3068V15.2668H79.6366Z" fill="#FF2D55"/>
</svg>
