<svg width="34" height="34" viewBox="0 0 34 34" fill="none" xmlns="http://www.w3.org/2000/svg">
<path d="M32 26.495C32 27.035 31.8798 27.59 31.6244 28.13C31.3691 28.67 31.0386 29.18 30.6029 29.66C29.8668 30.47 29.0556 31.055 28.1392 31.43C27.2379 31.805 26.2614 32 25.2098 32C23.6775 32 22.0401 31.64 20.3125 30.905C18.5849 30.17 16.8573 29.18 15.1447 27.935C13.4171 26.675 11.7797 25.28 10.2173 23.735C8.67 22.175 7.27291 20.54 6.02604 18.83C4.79419 17.12 3.8027 15.41 3.08162 13.715C2.36054 12.005 2 10.37 2 8.81C2 7.79 2.18027 6.815 2.54081 5.915C2.90135 5 3.47221 4.16 4.2684 3.41C5.22984 2.465 6.28142 2 7.39309 2C7.81372 2 8.23435 2.09 8.60992 2.27C9.0005 2.45 9.34602 2.72 9.61643 3.11L13.1017 8.015C13.3721 8.39 13.5674 8.735 13.7026 9.065C13.8378 9.38 13.9129 9.695 13.9129 9.98C13.9129 10.34 13.8077 10.7 13.5974 11.045C13.4021 11.39 13.1167 11.75 12.7561 12.11L11.6144 13.295C11.4492 13.46 11.3741 13.655 11.3741 13.895C11.3741 14.015 11.3891 14.12 11.4191 14.24C11.4642 14.36 11.5093 14.45 11.5393 14.54C11.8097 15.035 12.2754 15.68 12.9364 16.46C13.6124 17.24 14.3335 18.035 15.1147 18.83C15.9259 19.625 16.7071 20.36 17.5033 21.035C18.2844 21.695 18.9304 22.145 19.4412 22.415C19.5163 22.445 19.6064 22.49 19.7116 22.535C19.8317 22.58 19.9519 22.595 20.0871 22.595C20.3425 22.595 20.5378 22.505 20.7031 22.34L21.8448 21.215C22.2203 20.84 22.5809 20.555 22.9264 20.375C23.2719 20.165 23.6174 20.06 23.993 20.06C24.2784 20.06 24.5789 20.12 24.9094 20.255C25.2399 20.39 25.5854 20.585 25.9609 20.84L30.9334 24.365C31.324 24.635 31.5944 24.95 31.7596 25.325C31.9099 25.7 32 26.075 32 26.495Z" stroke="#FF2D55" stroke-width="3" stroke-miterlimit="10"/>
</svg>
