<svg width="50" height="50" viewBox="0 0 50 50" fill="none" xmlns="http://www.w3.org/2000/svg">
<g clip-path="url(#clip0_337_105)">
<circle cx="25" cy="25" r="24" stroke="#FF2D55" stroke-width="2"/>
<path d="M35.9958 17.8658C35.1462 18.2393 34.239 18.4937 33.2838 18.6098C34.2573 18.0233 35.0061 17.0988 35.3603 15.9957C34.4474 16.5285 33.4355 16.9164 32.3584 17.1324C31.4982 16.2117 30.2723 15.6357 28.911 15.6357C26.3027 15.6357 24.1878 17.7506 24.1878 20.3561C24.1878 20.7305 24.231 21.0905 24.3098 21.4351C20.3834 21.2498 16.9034 19.3644 14.5744 16.5141C14.1645 17.2073 13.935 18.0127 13.935 18.8901C13.935 20.5317 14.7702 21.9746 16.0355 22.8223C15.2608 22.7973 14.5322 22.5842 13.8966 22.2309V22.2895C13.8966 24.5791 15.5219 26.4885 17.6848 26.9234C17.2883 27.03 16.8698 27.0876 16.4406 27.0876C16.1392 27.0876 15.8502 27.0588 15.5613 27.005C16.167 28.8799 17.9085 30.2469 19.9811 30.2853C18.3683 31.5516 16.3245 32.3061 14.1232 32.3061C13.7488 32.3061 13.3754 32.2841 13 32.2418C15.1014 33.5801 17.5773 34.3625 20.2547 34.3625C28.9466 34.3625 33.6938 27.1663 33.6938 20.9359C33.6938 20.7353 33.6938 20.5327 33.6794 20.3311C34.6019 19.6697 35.4074 18.8335 36.041 17.885L35.9958 17.8658Z" fill="white"/>
</g>
<defs>
<clipPath id="clip0_337_105">
<rect width="50" height="50" fill="white"/>
</clipPath>
</defs>
</svg>
