<svg width="24" height="20" viewBox="0 0 24 20" fill="none" xmlns="http://www.w3.org/2000/svg">
<path d="M22.9958 2.86582C22.1462 3.23926 21.239 3.49366 20.2838 3.60982C21.2573 3.02326 22.0061 2.09878 22.3603 0.995742C21.4474 1.52854 20.4355 1.91638 19.3584 2.13238C18.4982 1.21174 17.2723 0.635742 15.911 0.635742C13.3027 0.635742 11.1878 2.75062 11.1878 5.35606C11.1878 5.73046 11.231 6.09046 11.3098 6.4351C7.38336 6.24982 3.90336 4.36438 1.5744 1.51414C1.16448 2.20726 0.93504 3.0127 0.93504 3.89014C0.93504 5.53174 1.77024 6.97462 3.03552 7.8223C2.2608 7.79734 1.53216 7.58422 0.89664 7.23094V7.2895C0.89664 9.5791 2.52192 11.4885 4.6848 11.9234C4.28832 12.03 3.86976 12.0876 3.44064 12.0876C3.1392 12.0876 2.85024 12.0588 2.56128 12.005C3.16704 13.8799 4.90848 15.2469 6.98112 15.2853C5.36832 16.5516 3.32448 17.3061 1.1232 17.3061C0.7488 17.3061 0.37536 17.2841 0 17.2418C2.10144 18.5801 4.57728 19.3625 7.25472 19.3625C15.9466 19.3625 20.6938 12.1663 20.6938 5.9359C20.6938 5.73526 20.6938 5.5327 20.6794 5.3311C21.6019 4.66966 22.4074 3.8335 23.041 2.88502L22.9958 2.86582Z" fill="white"/>
</svg>
