<svg width="1430" height="1681" viewBox="0 0 1430 1681" fill="none" xmlns="http://www.w3.org/2000/svg">
<g opacity="0.02">
<path d="M345.841 986.578C305.82 1031.26 388.53 1075.94 362.362 1094.59C329.73 1117.75 367.494 1152.9 386.375 1158.44C436.761 1173.19 411.928 1243.08 455.13 1238.27C478.835 1235.4 471.96 1219.52 496.589 1201.58C517.624 1186.21 533.119 1196.76 570.268 1181.91C597.259 1171.14 592.432 1199.53 614.805 1197.99C637.177 1196.35 651.85 1179.24 658.212 1201.88C664.575 1224.53 601.976 1241.44 642.921 1281.51C663.445 1301.6 666.755 1307.44 681.194 1327.34C686.7 1334.93 700.346 1360.6 697.804 1385.41C692.036 1418.67 707.159 1467.72 742.975 1490.78C772.018 1509.53 734.15 1573.28 747.797 1583.42C792.438 1616.73 880.794 1522.34 867.762 1455.63C858.936 1410.23 928.512 1409.3 941.336 1369.34C954.165 1329.37 891.774 1278.34 981.359 1228.74C1070.94 1179.24 1061.3 1139.27 1061.3 1139.27C632.148 1172.68 345.841 986.578 345.841 986.578Z" fill="url(#paint0_radial_209_2202)"/>
<path d="M1247.71 1206.5C1268.64 1198.4 1294.4 1133.53 1294.4 1070.92C1294.4 1070.92 1275.01 1085.47 1236.42 1097.36C1263.93 1148.08 1228.01 1214.08 1247.71 1206.5Z" fill="url(#paint1_radial_209_2202)"/>
<path d="M976.908 1390.24C959.465 1416.38 929.705 1418.12 934.937 1442.61C940.17 1467.1 912.257 1481.04 919.239 1503.69C926.216 1526.33 983.067 1467.1 982.452 1433.49C981.937 1405.61 1043.3 1390.24 1022.27 1360.52C1014.47 1349.56 994.355 1364.11 976.908 1390.24Z" fill="url(#paint2_radial_209_2202)"/>
<path d="M1432.66 829.064C1429.17 814.924 1423.63 801.599 1416.96 789.407C1413.58 783.257 1409.88 777.413 1405.98 771.88C1402.08 766.244 1397.98 760.815 1393.77 755.688C1385.25 745.34 1376.02 735.808 1366.37 726.894C1347.18 709.06 1326.45 693.585 1305 679.752C1294.33 672.78 1283.45 666.225 1272.37 659.97C1266.83 656.796 1261.29 653.825 1255.75 650.853C1250.21 647.882 1244.56 644.911 1238.92 642.038C1216.34 630.662 1193.25 620.314 1169.96 610.989C1158.26 606.272 1146.56 601.763 1134.66 597.462C1128.7 595.306 1122.75 593.259 1116.8 591.208C1112.49 589.774 1108.28 588.34 1103.97 586.906C1103.25 583.01 1102.64 579.114 1101.92 575.119C1098.94 556.979 1096.28 538.839 1093.71 520.497C1091.15 502.255 1088.69 483.809 1086.32 465.465L1079.14 410.126L1075.34 382.354C1074.11 373.13 1072.78 363.805 1071.34 354.582C1070.01 345.358 1068.47 336.033 1067.03 326.81C1065.49 317.586 1063.96 308.261 1062.31 299.038C1060.67 289.814 1058.82 280.591 1056.87 271.265C1054.92 262.042 1052.87 252.819 1050.61 243.596C1046.1 225.149 1040.76 206.907 1034.61 188.666C1028.45 170.425 1021.37 152.388 1012.23 134.761C1003.1 117.237 991.813 100.123 977.136 85.2633C973.444 81.5741 969.648 77.9876 965.54 74.7082C961.542 71.3264 957.231 68.2518 952.816 65.2799C951.686 64.5625 950.66 63.8452 949.431 63.1278L947.791 62.103C947.583 61.898 947.073 61.6931 946.76 61.4881L945.635 60.8733C942.657 59.2336 939.58 57.7988 936.092 56.5691C929.318 54.212 921.415 53.2897 914.235 54.1096C906.945 54.8269 900.479 57.0815 894.939 59.541C889.399 62.103 884.677 64.9724 880.47 67.8419C876.159 70.7113 872.363 73.5809 868.672 76.1429C865.079 78.8073 861.591 81.1642 858.41 83.1117C855.124 85.161 852.146 86.5958 849.376 87.5184C846.606 88.4404 844.248 88.8503 841.884 88.748C840.759 88.748 839.525 88.4404 838.396 88.1329C837.167 87.8254 835.933 87.3132 834.704 86.6981C832.137 85.4685 829.471 83.5215 826.801 81.1642C820.131 75.3232 813.461 68.7642 806.583 62.103C799.711 55.4418 792.734 48.4732 785.033 41.8119C777.442 35.0483 769.127 28.6945 760.203 22.8531C751.17 17.1142 741.319 12.1952 730.958 8.50591C720.591 4.71412 709.715 2.35706 698.937 1.12731C696.271 0.922324 693.501 0.6149 690.831 0.409917C688.165 0.307425 685.395 0.102442 682.724 0C680.058 0 677.387 0 674.617 0L666.615 0.307474C663.944 0.512408 661.382 0.717342 658.711 1.02477C656.045 1.33224 653.478 1.74216 650.912 2.04958C648.345 2.35701 645.783 2.86942 643.216 3.27938L641.269 3.58681L639.213 3.99672C638.395 4.20171 637.572 4.30415 636.854 4.50913L634.698 5.02154C629.158 6.35378 624.332 7.89096 619.615 9.42818C614.893 10.9654 610.274 12.605 605.76 14.3472C596.628 17.7291 587.803 21.3159 579.081 25.1076C570.256 28.7969 561.634 32.6912 553.012 36.5854C535.773 44.4764 518.737 52.5724 501.706 60.8733C484.773 69.1742 467.738 77.5777 451.012 86.2883C446.804 88.4404 442.597 90.6949 438.389 92.9495C434.182 95.204 429.975 97.4585 425.87 99.7135C417.558 104.325 409.246 109.244 401.036 114.368C392.827 119.594 384.822 125.026 376.921 131.175C373.021 134.249 369.122 137.529 365.222 141.013C361.425 144.6 357.628 148.391 354.037 152.798L352.703 154.54L351.779 155.77L351.574 156.077L349.522 158.844L345.417 164.481L337.208 175.856C331.769 183.44 326.33 191.228 320.994 199.017C315.657 206.805 310.424 214.696 305.293 222.689C300.162 230.683 295.236 238.984 290.516 247.387C288.156 251.589 285.898 255.893 283.641 260.402C281.486 264.809 279.331 269.318 277.381 274.032C275.431 278.746 273.584 283.665 272.147 288.994C270.813 293.811 269.582 298.628 268.556 303.444C264.451 322.505 261.885 341.362 259.73 360.218C257.678 378.972 256.138 397.726 254.804 416.48C253.471 435.234 252.444 453.885 251.623 472.536C250.803 491.188 249.982 509.942 249.468 528.595L249.366 532.793C247.211 531.977 245.056 531.156 242.901 530.439C230.689 526.133 218.375 522.445 205.855 519.266C199.596 517.728 193.336 516.19 187.076 514.861C180.816 513.529 174.454 512.401 168.092 511.376C161.729 510.351 155.264 509.429 148.799 508.61C142.334 507.892 135.869 507.277 129.302 506.867C122.734 506.457 116.064 506.252 109.394 506.252C102.724 506.252 95.951 506.56 89.0752 507.277C82.1999 507.892 75.222 508.917 68.1411 510.557C61.0606 512.196 53.8771 514.246 46.5912 517.422C39.3053 520.601 31.9168 524.902 25.2466 531.052C21.8601 534.128 18.7816 537.613 16.0109 541.504C14.6768 543.452 13.3427 545.504 12.3166 547.551C11.393 549.296 10.5721 550.933 9.75109 552.777C3.18351 566.818 -0.100286 582.496 0.00233261 597.561C0.00233261 612.729 3.08089 627.181 7.69875 640.5C12.3166 653.825 18.3711 666.121 25.1439 677.7C38.8948 700.759 55.211 721.05 72.5537 740.114C81.9948 750.462 91.7436 760.301 101.8 769.833C94.0011 788.997 86.9202 808.467 80.866 828.243C73.5799 852.019 67.7308 876.31 63.01 900.699C58.3923 925.089 55.1085 949.784 53.3642 974.589C51.6195 999.389 51.2092 1024.19 52.1324 1048.99C53.9797 1098.59 61.2658 1148.09 74.4009 1195.94L76.8637 1204.96C77.6847 1207.94 78.6084 1210.91 79.532 1213.88C80.4552 1216.85 81.2763 1219.82 82.3025 1222.79L86.6125 1236.01L91.2302 1249.23C92.2564 1252.21 93.3852 1255.07 94.514 1257.95L97.7978 1266.66C106.931 1289.71 117.398 1312.26 129.097 1334.19L131.252 1338.29L133.509 1342.39L138.024 1350.49C139.564 1353.25 141.206 1355.81 142.745 1358.48L147.465 1366.47C154.033 1377.03 160.703 1387.48 167.784 1397.63C181.945 1418.02 197.133 1437.69 213.449 1456.35C229.765 1475 247.211 1492.83 265.477 1509.53C283.846 1526.34 303.138 1541.92 323.251 1556.47C328.28 1560.16 333.41 1563.64 338.439 1567.23C341.004 1569.07 343.569 1570.72 346.135 1572.46L353.934 1577.58L361.836 1582.5C364.504 1584.14 367.069 1585.78 369.737 1587.42C375.073 1590.6 380.41 1593.77 385.849 1596.75C407.501 1608.94 429.769 1619.9 452.756 1629.54C498.624 1648.7 546.551 1663.05 595.498 1671.35C620.026 1675.55 644.757 1678.42 669.489 1679.86C694.319 1681.29 719.154 1681.39 743.99 1680.06C768.82 1678.73 793.551 1675.96 818.079 1671.86L822.698 1671.15L827.316 1670.33L836.448 1668.58C839.525 1668.07 842.503 1667.35 845.581 1666.64L854.713 1664.69C860.768 1663.25 866.823 1661.82 872.879 1660.28L886.421 1656.6L890.94 1655.26C986.58 1627.8 1075.55 1577.68 1149.12 1510.87C1222.81 1444.05 1281.1 1360.32 1317.93 1267.88C1327.17 1244.73 1334.97 1221.15 1341.43 1197.07C1347.9 1173.09 1353.13 1148.7 1356.83 1124.1C1360.52 1099.51 1362.78 1074.71 1363.7 1049.81C1364.01 1043.55 1364.01 1037.41 1364.11 1031.15C1364.21 1024.91 1364.21 1018.75 1364.01 1012.3C1363.8 1006.87 1363.5 1001.23 1362.98 995.799C1367.6 992.417 1372.12 988.833 1376.53 985.041C1387.2 975.815 1397.16 965.467 1405.88 953.784C1414.6 942.205 1421.89 929.083 1427.22 915.25C1432.56 901.416 1435.64 886.762 1436.77 872.211C1437.59 858.17 1436.25 843.209 1432.66 829.064ZM286.308 474.279C286.821 455.832 287.54 437.386 288.463 419.042C289.49 400.698 290.721 382.354 292.466 364.215C294.313 346.076 296.57 328.039 300.06 310.823C300.983 306.518 301.906 302.316 303.035 298.217C304.061 294.631 305.396 290.736 306.935 286.945C307.448 285.817 307.859 284.588 308.371 283.461C310.116 284.177 311.963 284.895 313.708 285.51C319.146 287.56 324.585 289.199 329.921 290.839C340.696 293.913 351.574 296.475 362.349 298.628C373.124 300.882 384.104 302.522 394.982 303.956C405.859 305.391 416.84 306.518 427.717 307.236C438.697 308.056 449.575 308.568 460.555 308.773C471.535 308.978 482.516 308.773 493.393 308.261C515.353 307.236 537.21 304.878 558.864 300.984C569.637 299.038 580.414 296.578 591.088 293.606C601.756 290.634 612.227 287.149 622.489 283.05C632.751 278.951 642.805 274.34 652.557 268.908C662.2 263.476 671.54 257.43 680.261 250.667C697.708 237.037 712.792 220.333 724.08 201.476C729.828 192.151 734.238 182.107 737.934 171.86C738.96 169.297 739.679 166.735 740.501 164.173L741.73 160.279C742.141 158.947 742.449 157.615 742.756 156.385L743.781 152.49L744.297 150.543L744.708 148.596L746.244 140.705L743.578 148.289L742.964 150.134L740.808 155.668C740.293 156.897 739.882 158.127 739.371 159.357L737.726 162.943C736.601 165.403 735.571 167.76 734.342 170.117L732.494 173.601C731.879 174.729 731.265 175.959 730.546 177.086C729.208 179.34 727.875 181.697 726.542 183.85L722.232 190.408L717.613 196.762C704.992 213.466 689.294 227.301 671.847 238.266C663.225 243.8 654.093 248.617 644.757 252.819C635.417 257.02 625.67 260.505 615.819 263.476C605.963 266.449 595.909 268.806 585.85 270.855C575.796 272.905 565.534 274.442 555.272 275.672C534.748 277.926 513.916 278.746 493.188 278.234C490.622 278.131 487.954 278.131 485.389 278.029C447.625 274.442 333.924 242.981 382.873 168.888C384.207 167.555 385.541 166.223 386.977 164.891C389.953 162.124 393.237 159.459 396.624 156.795C403.396 151.568 410.682 146.649 418.276 141.832C433.361 132.404 449.369 123.693 465.686 115.598C473.896 111.601 482.105 107.604 490.417 103.915C498.728 100.123 507.142 96.5364 515.66 92.9495C532.592 85.8784 549.732 79.3195 566.971 73.171C584.21 67.0221 601.553 61.0782 618.896 56.0567C623.207 54.8269 627.513 53.5971 631.824 52.4699C636.031 51.3426 640.342 50.3178 644.138 49.6005C645.065 49.3955 645.986 49.293 646.809 49.1905C647.22 49.088 647.73 49.088 648.246 48.9856L649.782 48.7806C651.937 48.5756 653.989 48.1657 656.144 48.0632C658.3 47.8583 660.351 47.6533 662.507 47.5508C664.563 47.4483 666.714 47.3459 668.77 47.2434C677.08 46.936 685.395 47.3458 693.501 48.3707L699.552 49.1905L705.508 50.3178C709.407 51.2401 713.406 52.1624 717.202 53.2897C719.154 53.9046 721.102 54.417 722.95 55.1344C723.877 55.4418 724.902 55.7492 725.824 56.1592C726.746 56.5691 727.672 56.8765 728.698 57.2865C730.645 58.0038 732.494 58.8236 734.342 59.6435C736.19 60.4633 738.039 61.3856 739.986 62.2055C747.374 65.8948 754.658 70.0965 761.843 74.9128C769.028 79.7294 776.109 85.0587 783.086 90.6949C790.167 96.3312 797.144 102.378 804.74 108.526C809.254 112.113 814.18 115.597 820.027 118.365C825.879 121.131 832.549 123.181 839.629 123.693C846.606 124.206 853.687 123.386 859.847 121.644C866.001 119.902 871.442 117.442 876.263 114.881C881.084 112.319 885.5 109.551 889.503 106.989C893.606 104.427 897.298 101.968 900.89 99.7135C902.634 98.6886 904.379 97.6637 906.024 96.7411C907.664 95.819 909.304 94.9993 910.741 94.3842C913.719 93.0523 916.286 92.4372 918.441 92.1297C920.597 91.9245 922.341 92.1297 924.393 92.7448C925.418 93.0518 926.548 93.5645 927.777 94.1796L928.188 94.3842C928.392 94.4866 928.496 94.4866 928.704 94.6918L930.037 95.4092C930.958 95.9214 931.781 96.4341 932.603 96.9463C939.476 101.251 945.943 106.067 952.097 111.601C964.411 122.566 975.084 135.889 984.216 150.749C993.349 165.505 1000.84 181.697 1007.1 198.504C1010.18 206.907 1012.95 215.516 1015.52 224.124C1017.98 232.835 1020.34 241.546 1022.39 250.359C1026.6 267.986 1030.19 285.92 1033.17 304.059C1034.7 313.077 1036.14 322.198 1037.48 331.216C1038.81 340.337 1040.04 349.458 1041.17 358.578C1045.79 395.164 1049.49 431.954 1053.07 469.052C1054.61 484.834 1056.16 500.616 1057.9 516.398C1055.64 515.476 1053.38 514.656 1051.13 513.836C1046.61 512.298 1041.99 510.864 1037.38 509.839C1035.12 509.224 1032.76 508.712 1030.5 508.302C1028.14 507.892 1025.88 507.482 1023.52 507.072C1018.9 506.252 1014.28 505.842 1009.67 505.33C1000.43 504.51 991.401 504.305 982.373 504.202C964.312 504.202 946.557 505.33 929.011 506.97C911.46 508.61 894.121 510.864 876.877 513.323C842.399 518.45 808.432 524.803 774.568 530.85C740.704 536.891 707.044 542.938 673.284 547.857C664.87 549.089 656.457 550.216 647.939 551.343C639.52 552.367 631.106 553.395 622.588 554.211C614.174 555.031 605.656 555.649 597.242 556.263C593.035 556.569 588.828 556.673 584.621 556.777C580.414 556.876 576.207 556.979 572.001 556.979C567.794 556.979 563.587 557.083 559.375 556.979C557.224 556.979 555.168 556.979 553.116 556.876L546.754 556.673C538.236 556.47 529.718 556.06 521.205 555.649C504.169 554.829 487.133 553.805 470.201 552.367C453.269 550.933 436.44 549.192 419.713 546.938C402.986 544.683 386.362 542.018 370.045 538.637C353.729 535.359 337.618 531.156 322.122 526.029C314.426 523.468 306.832 520.601 299.341 517.422C294.826 515.578 290.516 513.529 286.001 511.479C285.796 499.284 286.001 486.781 286.308 474.279ZM286.616 549.499C295.031 552.678 303.549 555.546 312.169 558.003C320.789 560.569 329.408 562.72 338.028 564.668C346.648 566.714 355.371 568.46 363.991 569.997C381.333 573.171 398.676 575.426 416.019 577.27C433.361 579.114 450.704 580.449 468.149 581.473C485.492 582.496 502.836 583.114 520.174 583.524C528.796 583.623 537.517 583.831 546.139 583.831L559.172 583.935C563.587 583.935 567.997 583.935 572.308 583.831C576.718 583.727 581.029 583.623 585.444 583.421L598.575 582.906C607.301 582.6 616.022 582.086 624.743 581.473C633.469 580.859 642.086 580.241 650.812 579.525C659.43 578.808 668.151 577.987 676.773 577.067C711.355 573.478 745.63 568.969 779.702 564.361C813.768 559.748 847.736 555.135 881.496 551.551C898.328 549.806 915.156 548.372 931.885 547.447C948.609 546.631 965.129 546.32 981.342 546.938C989.454 547.244 997.457 547.858 1005.26 548.782C1013.06 549.603 1020.75 550.829 1028.14 552.47C1035.53 554.112 1042.61 556.263 1049.28 558.725L1051.74 559.644L1054.2 560.668C1055.85 561.286 1057.38 562.003 1058.93 562.72C1060.36 563.436 1061.8 564.153 1063.24 564.87C1063.96 570.096 1064.57 575.426 1065.29 580.652C1067.85 599.306 1070.72 617.955 1074.21 636.609C1077.39 653.414 1081.09 670.121 1084.58 687.128C1083.86 688.874 1083.14 690.614 1082.32 692.354C1080.78 695.533 1078.83 698.505 1076.47 701.372C1071.85 707.112 1066.11 712.442 1059.44 717.055C1052.77 721.668 1045.38 725.969 1037.48 729.559C1029.58 733.143 1021.37 736.525 1012.85 739.393C1004.33 742.265 995.608 744.722 986.783 747.081C969.029 751.59 950.764 754.868 932.192 757.532C913.719 760.197 894.939 761.943 876.159 763.273C857.384 764.603 838.396 765.324 819.516 765.527C781.649 765.938 743.578 764.603 705.607 761.631C629.669 755.486 554.142 742.369 480.873 722.281C471.74 719.72 462.608 717.159 453.577 714.286C444.546 711.419 435.516 708.447 426.588 705.372C408.732 699.118 391.185 692.354 374.048 684.775C356.91 677.191 340.183 668.786 324.483 659.357C311.04 651.264 298.11 642.344 286.719 632.506C286.514 625.95 286.308 619.389 286.206 612.833C286.001 603.607 285.796 594.387 285.693 585.161C285.59 573.171 285.487 561.078 285.487 549.089C285.898 549.192 286.206 549.296 286.616 549.499ZM1321.73 1049.19C1321.63 1072.56 1319.99 1095.82 1317.12 1118.98C1314.35 1142.14 1309.93 1165.2 1304.29 1187.95L1302.13 1196.46L1299.77 1204.96C1298.23 1210.6 1296.49 1216.24 1294.85 1221.87L1293.61 1226.07L1292.28 1230.27L1289.51 1238.68C1288.58 1241.45 1287.56 1244.21 1286.53 1246.98C1285.51 1249.75 1284.58 1252.51 1283.56 1255.28C1250.51 1343.21 1196.43 1423.55 1127.06 1487.7C1109.72 1503.8 1091.46 1518.76 1072.37 1532.79L1068.78 1535.46L1065.18 1538.03L1057.9 1543.15C1055.54 1544.89 1052.97 1546.43 1050.51 1548.17L1043.12 1553.09C1033.17 1559.44 1023.11 1565.69 1012.75 1571.43C992.12 1583.12 970.877 1593.67 949.124 1603C927.267 1612.22 904.998 1620.21 882.214 1626.97L878.007 1628.21L873.696 1629.44L865.079 1631.79C859.331 1633.33 853.583 1634.66 847.84 1636.1L839.114 1638.04C836.24 1638.66 833.371 1639.37 830.393 1639.89L821.672 1641.63L817.257 1642.45L812.847 1643.17C789.448 1647.27 765.847 1650.03 742.141 1651.47C718.436 1652.8 694.626 1652.8 670.926 1651.47C647.22 1650.14 623.619 1647.47 600.22 1643.47L595.805 1642.76L591.395 1641.94L582.669 1640.3C576.822 1639.17 571.074 1637.84 565.227 1636.61L556.605 1634.56C553.731 1633.84 550.862 1633.23 547.988 1632.41L539.366 1630.05L535.055 1628.92L530.749 1627.69L522.231 1625.13C519.357 1624.31 516.587 1623.29 513.713 1622.47C510.943 1621.55 508.069 1620.62 505.299 1619.7L496.88 1616.73C485.697 1612.83 474.613 1608.33 463.736 1603.82C459.016 1601.76 454.295 1599.72 449.678 1597.56C449.164 1578.61 443.213 1564.77 427.717 1557.6C397.855 1543.76 397.445 1494.88 347.674 1482.07C325.406 1476.33 311.553 1445.38 294.518 1372.52C278.099 1302.32 251.623 1339.62 199.493 1325.89C150.031 1312.88 172.607 1278.03 151.057 1261.02C134.946 1248.31 124.684 1240.22 118.116 1234.99C112.883 1219.82 108.163 1204.35 104.058 1188.77C98.106 1165.92 93.3852 1142.76 90.1014 1119.29C86.9202 1095.92 84.9708 1072.35 84.4575 1048.68C83.842 1025.11 84.7652 1001.44 86.9202 977.971C89.0752 954.501 92.6672 931.135 97.5926 908.18C102.416 885.12 108.881 862.471 116.474 840.337C117.398 837.573 118.322 834.804 119.348 832.035L122.426 823.734L123.966 819.636C124.479 818.306 125.094 816.872 125.608 815.537L128.892 807.339C129.918 804.571 131.149 801.906 132.278 799.241L132.688 798.321C150.338 813.179 168.502 827.116 187.076 840.643C207.497 855.401 228.432 869.443 249.673 882.866C255.01 886.248 260.346 889.531 265.682 892.808C271.018 896.086 276.457 899.364 281.793 902.543C292.568 909 303.446 915.146 314.426 921.297C358.347 945.686 403.499 967.722 449.78 987.399C455.527 989.857 461.376 992.314 467.123 994.672L475.845 998.262L484.773 1001.85C496.677 1006.46 508.683 1010.76 520.69 1014.76C532.696 1018.75 544.807 1022.55 557.016 1026.03C569.127 1029.52 581.336 1032.8 593.551 1035.97C617.97 1042.22 642.602 1047.76 667.229 1052.68C691.856 1057.6 716.692 1062 741.527 1065.69C791.297 1073.17 841.27 1078.6 891.555 1081.68C904.071 1082.4 916.697 1083.11 929.318 1083.52C941.939 1083.93 954.56 1084.24 967.185 1084.34C992.427 1084.55 1017.67 1084.24 1043.02 1083.01C1068.37 1081.78 1093.61 1079.83 1118.96 1076.86C1144.3 1073.79 1169.55 1069.89 1194.79 1064.67C1207.41 1062 1220.04 1059.13 1232.55 1055.75C1235.74 1054.93 1238.81 1054.01 1241.99 1053.19C1245.08 1052.27 1248.26 1051.35 1251.34 1050.42C1257.59 1048.47 1263.75 1046.43 1270.01 1044.27C1282.43 1039.97 1294.74 1034.95 1306.85 1029.52C1311.67 1027.26 1316.4 1025.01 1321.11 1022.55C1321.22 1025.62 1321.32 1028.8 1321.32 1031.98C1321.63 1037.51 1321.83 1043.35 1321.73 1049.19ZM1391.82 868.419C1390.49 878.663 1387.82 888.606 1383.61 897.931C1379.4 907.255 1373.97 916.07 1367.19 924.169C1363.8 928.164 1360.22 932.06 1356.32 935.852C1352.42 939.54 1348.31 943.125 1344 946.506C1339.69 949.888 1335.18 953.166 1330.56 956.241C1328.3 957.779 1325.84 959.317 1323.48 960.751C1321.01 962.189 1318.65 963.623 1316.19 965.057C1306.34 970.589 1295.98 975.716 1285.3 980.225C1274.63 984.734 1263.65 988.833 1252.56 992.625C1230.3 1000.11 1207.11 1005.94 1183.71 1010.97C1160.21 1015.89 1136.4 1019.68 1112.39 1022.55C1088.37 1025.52 1064.26 1027.67 1039.94 1029.21C1015.72 1030.65 991.297 1031.57 966.977 1031.77C942.553 1032.08 918.233 1031.67 893.809 1030.85C844.966 1029 796.222 1025.32 747.681 1019.37C699.145 1013.43 650.912 1005.33 603.501 994.469C579.8 989.036 556.298 982.786 533.107 975.716C521.512 972.127 510.12 968.335 498.832 964.236L490.417 961.062L481.9 957.779C477.384 956.039 472.767 954.195 468.252 952.35C468.764 952.449 469.175 952.657 469.688 952.761C220.633 858.783 125.608 695.227 125.608 695.227C353.832 922.013 726.339 1008.3 1043.02 989.753C1099.46 986.475 1133.53 974.075 1133.53 974.075C1059.95 981.451 985.654 981.862 912.079 976.226C875.237 973.358 838.604 968.953 802.173 962.906C765.847 956.859 729.724 949.068 694.22 939.333C658.711 929.598 623.822 918.019 589.958 903.977C556.094 889.936 523.256 873.437 492.572 853.864C477.179 844.129 462.402 833.573 448.446 822.098C440.852 815.843 433.464 809.391 426.383 802.623C395.802 772.088 356.192 723.611 402.267 734.577C406.577 736.115 410.785 737.652 415.095 739.086C424.433 742.265 433.771 745.237 443.213 748.104C452.653 750.977 461.992 753.74 471.433 756.405C509.199 767.065 547.368 775.776 585.85 783.361C624.332 790.737 662.918 797.194 701.811 802.831C711.558 804.16 721.31 805.599 731.057 806.825C740.808 808.056 750.659 809.184 760.406 810.311C780.009 812.462 799.711 814.207 819.616 815.334C829.57 815.843 839.525 816.358 849.48 816.56C859.435 816.768 869.489 816.872 879.444 816.664C889.503 816.461 899.557 816.155 909.616 815.433C914.641 815.126 919.67 814.716 924.7 814.306C929.729 813.797 934.754 813.282 939.888 812.669C950.046 811.542 960.104 810.004 970.263 808.16C980.421 806.415 990.579 804.062 1000.74 801.496C1021.16 796.27 1041.58 789.096 1061.39 778.031C1071.24 772.498 1080.99 765.834 1090.12 757.74C1094.64 753.641 1099.05 749.231 1103.16 744.312C1105.21 741.855 1107.15 739.294 1109 736.629C1110.85 733.964 1112.6 731.096 1114.24 728.224C1116.7 723.922 1118.75 719.413 1120.39 714.697C1126.65 716.437 1132.91 718.489 1139.07 720.847C1155.08 726.79 1170.88 734.478 1185.86 743.699C1200.85 752.925 1215.21 763.683 1228.35 776.083C1241.48 788.483 1253.39 802.524 1263.24 818.306C1257.49 800.68 1248.98 783.771 1238.81 767.885C1228.55 752 1216.45 737.138 1203 723.512C1189.56 709.881 1174.68 697.377 1158.57 686.312C1146.97 678.318 1134.76 671.144 1121.83 664.791C1120.81 661.409 1119.47 658.23 1117.93 655.155C1115.88 646.443 1113.82 637.737 1111.88 629.025C1111.36 626.667 1110.85 624.308 1110.44 621.955C1126.24 627.69 1141.94 633.841 1157.44 640.5C1179.81 650.033 1201.77 660.484 1223.12 671.861C1244.46 683.237 1265.19 695.637 1284.79 709.268C1304.39 722.894 1323.07 737.756 1339.59 754.151C1356.01 770.55 1370.37 788.69 1380.02 808.264C1384.84 817.999 1388.43 828.041 1390.38 838.186C1392.74 848.227 1393.15 858.373 1391.82 868.419Z" fill="url(#paint3_radial_209_2202)"/>
</g>
<defs>
<radialGradient id="paint0_radial_209_2202" cx="0" cy="0" r="1" gradientUnits="userSpaceOnUse" gradientTransform="translate(547.792 509.329) rotate(84.93) scale(2286.93 848.607)">
<stop stop-color="white"/>
<stop offset="1" stop-color="#9E9E9E"/>
</radialGradient>
<radialGradient id="paint1_radial_209_2202" cx="0" cy="0" r="1" gradientUnits="userSpaceOnUse" gradientTransform="translate(547.792 509.329) rotate(84.93) scale(2286.93 848.607)">
<stop stop-color="white"/>
<stop offset="1" stop-color="#9E9E9E"/>
</radialGradient>
<radialGradient id="paint2_radial_209_2202" cx="0" cy="0" r="1" gradientUnits="userSpaceOnUse" gradientTransform="translate(547.792 509.329) rotate(84.93) scale(2286.93 848.607)">
<stop stop-color="white"/>
<stop offset="1" stop-color="#9E9E9E"/>
</radialGradient>
<radialGradient id="paint3_radial_209_2202" cx="0" cy="0" r="1" gradientUnits="userSpaceOnUse" gradientTransform="translate(547.792 509.329) rotate(84.93) scale(2286.93 848.607)">
<stop stop-color="white"/>
<stop offset="1" stop-color="#9E9E9E"/>
</radialGradient>
</defs>
</svg>
