<svg width="178" height="28" viewBox="0 0 178 28" fill="none" xmlns="http://www.w3.org/2000/svg">
<path d="M13.0509 10.512V9.864H22.3389V10.512H20.8629L24.1029 22.644L27.3069 10.512H24.8229V9.864H29.6829V10.512H28.1709L23.8509 27H18.9189L15.7869 15.948L12.4029 27H7.57891L2.25091 10.512H0.630906V9.864H11.5389V10.512H9.37891L12.6909 22.752L15.2829 14.328L14.3829 10.512H13.0509ZM37.8555 18.54H38.8995V15.768C38.8995 13.488 38.7675 11.964 38.5035 11.196C38.2635 10.404 37.7835 10.008 37.0635 10.008C36.6315 10.008 36.2355 10.128 35.8755 10.368C35.5395 10.584 35.3715 10.896 35.3715 11.304C35.3715 11.688 35.4435 12.084 35.5875 12.492H36.4875C36.6795 12.996 36.7755 13.608 36.7755 14.328C36.7755 15.024 36.4755 15.636 35.8755 16.164C35.2755 16.668 34.5195 16.92 33.6075 16.92C31.5435 16.92 30.5115 15.924 30.5115 13.932C30.5115 10.98 33.0195 9.504 38.0355 9.504C40.8915 9.504 42.8595 9.996 43.9395 10.98C45.0435 11.94 45.5955 13.716 45.5955 16.308V23.616C45.5955 24.864 45.9435 25.488 46.6395 25.488C47.4555 25.488 47.9355 24.252 48.0795 21.78L48.6195 21.816C48.5235 23.928 48.1275 25.38 47.4315 26.172C46.7355 26.964 45.5955 27.36 44.0115 27.36C41.1315 27.36 39.4755 26.472 39.0435 24.696C38.7315 25.608 38.2635 26.28 37.6395 26.712C37.0155 27.144 36.1035 27.36 34.9035 27.36C31.3515 27.36 29.5755 25.908 29.5755 23.004C29.5755 21.3 30.2475 20.136 31.5915 19.512C32.9595 18.864 35.0475 18.54 37.8555 18.54ZM36.4155 22.968C36.4155 24.216 36.4755 25.02 36.5955 25.38C36.7395 25.74 36.9915 25.92 37.3515 25.92C37.7355 25.92 38.0835 25.62 38.3955 25.02C38.7315 24.396 38.8995 23.544 38.8995 22.464V19.116H38.6475C37.1595 19.116 36.4155 20.208 36.4155 22.392V22.968ZM50.2459 21.852V10.512H48.2659V9.864H50.2459V5.22L56.9419 3.564V9.864H61.6219V10.512H56.9419V22.644C56.9419 23.772 57.0499 24.6 57.2659 25.128C57.5059 25.656 57.9859 25.92 58.7059 25.92C59.4259 25.92 60.0499 25.56 60.5779 24.84C61.1299 24.12 61.4899 23.136 61.6579 21.888L62.2699 21.96C62.0779 23.616 61.5499 24.936 60.6859 25.92C59.8219 26.88 58.3939 27.36 56.4019 27.36C54.4099 27.36 52.8859 26.964 51.8299 26.172C50.7739 25.38 50.2459 23.94 50.2459 21.852ZM72.6939 10.152C71.6379 10.152 70.8819 10.728 70.4259 11.88C69.9699 13.032 69.7419 14.94 69.7419 17.604V19.476C69.7419 21.852 70.0059 23.556 70.5339 24.588C71.0619 25.62 72.0339 26.136 73.4499 26.136C74.8659 26.136 75.9939 25.656 76.8339 24.696C77.6739 23.736 78.2139 22.644 78.4539 21.42L79.1019 21.492C78.6459 23.556 77.8059 25.044 76.5819 25.956C75.3339 26.892 73.6179 27.36 71.4339 27.36C68.6499 27.36 66.5139 26.616 65.0259 25.128C63.5379 23.616 62.7939 21.42 62.7939 18.54C62.7939 15.636 63.6339 13.404 65.3139 11.844C67.0179 10.284 69.3819 9.504 72.4059 9.504C74.5419 9.504 76.1739 9.924 77.3019 10.764C78.4299 11.58 78.9939 12.612 78.9939 13.86C78.9939 15.108 78.7179 16.02 78.1659 16.596C77.6379 17.172 76.8939 17.46 75.9339 17.46C74.9979 17.46 74.2419 17.208 73.6659 16.704C73.0899 16.2 72.8019 15.456 72.8019 14.472C72.8019 14.04 72.8619 13.608 72.9819 13.176H74.1699C74.3379 12.696 74.4219 12.264 74.4219 11.88C74.4219 10.728 73.8459 10.152 72.6939 10.152ZM79.6647 -2.14577e-06H88.3407V13.176C88.7247 12.072 89.3127 11.184 90.1047 10.512C90.8967 9.84 92.0967 9.504 93.7047 9.504C97.4247 9.504 99.2847 11.508 99.2847 15.516V26.352H101.301V27H91.1127V26.352H92.5887V14.652C92.5887 13.212 92.4927 12.288 92.3007 11.88C92.1087 11.448 91.7607 11.232 91.2567 11.232C90.4887 11.232 89.8047 11.736 89.2047 12.744C88.6287 13.752 88.3407 14.976 88.3407 16.416V26.352H89.8887V27H79.6647V26.352H81.6447V0.647998H79.6647V-2.14577e-06ZM108.389 9.864H117.065V13.176C117.449 12.072 118.037 11.184 118.829 10.512C119.621 9.84 120.821 9.504 122.429 9.504C126.149 9.504 128.009 11.508 128.009 15.516V26.352H130.025V27H119.837V26.352H121.313V14.652C121.313 13.212 121.217 12.288 121.025 11.88C120.833 11.448 120.485 11.232 119.981 11.232C119.213 11.232 118.529 11.736 117.929 12.744C117.353 13.752 117.065 14.976 117.065 16.416V26.352H118.613V27H108.389V26.352H110.369V10.512H108.389V9.864ZM142.129 19.908V16.848C142.129 14.52 141.997 12.828 141.733 11.772C141.493 10.692 140.917 10.152 140.005 10.152C139.477 10.152 139.045 10.308 138.709 10.62C138.397 10.908 138.169 11.4 138.025 12.096C137.809 13.176 137.701 14.82 137.701 17.028V19.836C137.701 22.452 137.773 24.024 137.917 24.552C138.085 25.08 138.253 25.512 138.421 25.848C138.685 26.424 139.201 26.712 139.969 26.712C140.905 26.712 141.517 26.172 141.805 25.092C142.021 24.324 142.129 22.596 142.129 19.908ZM139.897 27.36C136.897 27.36 134.629 26.592 133.093 25.056C131.557 23.52 130.789 21.324 130.789 18.468C130.789 15.588 131.605 13.38 133.237 11.844C134.893 10.284 137.209 9.504 140.185 9.504C143.161 9.504 145.381 10.224 146.845 11.664C148.309 13.08 149.041 15.252 149.041 18.18C149.041 24.3 145.993 27.36 139.897 27.36ZM161.27 10.512V9.864H170.558V10.512H169.082L172.322 22.644L175.526 10.512H173.042V9.864H177.902V10.512H176.39L172.07 27H167.138L164.006 15.948L160.622 27H155.798L150.47 10.512H148.85V9.864H159.758V10.512H157.598L160.91 22.752L163.502 14.328L162.602 10.512H161.27Z" fill="white"/>
</svg>
