<svg width="1455" height="268" viewBox="0 0 1455 268" fill="none" xmlns="http://www.w3.org/2000/svg">
<path d="M157.999 256.97V257.97H159.393L158.947 256.65L157.999 256.97ZM130.989 177.05L131.937 176.73L131.707 176.05H130.989V177.05ZM57.7292 177.05V176.05H57.024L56.7872 176.714L57.7292 177.05ZM29.2392 256.97L28.2972 256.634L27.8211 257.97H29.2392V256.97ZM56.9892 256.97H57.9892V255.97H56.9892V256.97ZM56.9892 264V265H57.9892V264H56.9892ZM0.37918 264H-0.62082V265H0.37918V264ZM0.37918 256.97V255.97H-0.62082V256.97H0.37918ZM17.7692 256.97V257.97H18.4647L18.7067 257.318L17.7692 256.97ZM112.119 2.77999V1.77999H111.424L111.182 2.43201L112.119 2.77999ZM142.459 2.77999L143.398 2.43561L143.158 1.77999H142.459V2.77999ZM235.699 256.97L234.76 257.314L235.001 257.97H235.699V256.97ZM252.719 256.97H253.719V255.97H252.719V256.97ZM252.719 264V265H253.719V264H252.719ZM131.729 264H130.729V265H131.729V264ZM131.729 256.97V255.97H130.729V256.97H131.729ZM95.8392 71.97L96.7882 71.6548L95.8757 68.9069L94.8979 71.6323L95.8392 71.97ZM61.0592 168.91L60.1179 168.572L59.638 169.91H61.0592V168.91ZM128.029 168.91V169.91H129.415L128.978 168.595L128.029 168.91ZM158.947 256.65L131.937 176.73L130.042 177.37L157.052 257.29L158.947 256.65ZM130.989 176.05H57.7292V178.05H130.989V176.05ZM56.7872 176.714L28.2972 256.634L30.1811 257.306L58.6711 177.386L56.7872 176.714ZM29.2392 257.97H56.9892V255.97H29.2392V257.97ZM55.9892 256.97V264H57.9892V256.97H55.9892ZM56.9892 263H0.37918V265H56.9892V263ZM1.37918 264V256.97H-0.62082V264H1.37918ZM0.37918 257.97H17.7692V255.97H0.37918V257.97ZM18.7067 257.318L113.057 3.12797L111.182 2.43201L16.8317 256.622L18.7067 257.318ZM112.119 3.77999H142.459V1.77999H112.119V3.77999ZM141.52 3.12436L234.76 257.314L236.638 256.626L143.398 2.43561L141.52 3.12436ZM235.699 257.97H252.719V255.97H235.699V257.97ZM251.719 256.97V264H253.719V256.97H251.719ZM252.719 263H131.729V265H252.719V263ZM132.729 264V256.97H130.729V264H132.729ZM131.729 257.97H157.999V255.97H131.729V257.97ZM94.8979 71.6323L60.1179 168.572L62.0004 169.248L96.7804 72.3077L94.8979 71.6323ZM61.0592 169.91H128.029V167.91H61.0592V169.91ZM128.978 168.595L96.7882 71.6548L94.8901 72.2851L127.08 169.225L128.978 168.595ZM403.876 253.64L403.086 253.026L403.075 253.04L403.065 253.055L403.876 253.64ZM409.056 159.29H410.056V158.29H409.056V159.29ZM385.376 159.29H384.376V160.29H385.376V159.29ZM385.376 151.15V150.15H384.376V151.15H385.376ZM491.936 151.15H492.936V150.15H491.936V151.15ZM491.936 159.29V160.29H492.936V159.29H491.936ZM477.506 159.29V158.29H476.506V159.29H477.506ZM477.506 263.63V264.63H478.506V263.63H477.506ZM471.956 263.63L471.144 264.214L471.444 264.63H471.956V263.63ZM422.006 261.04L421.757 260.072L421.753 260.072L422.006 261.04ZM284.736 235.14L284.033 235.851L284.037 235.855L284.736 235.14ZM286.216 36.45L285.501 35.7504L285.498 35.7542L286.216 36.45ZM424.596 6.84998L424.342 7.81726L424.351 7.81969L424.361 7.82194L424.596 6.84998ZM456.786 10.92L457.41 11.7009L457.454 11.6663L457.493 11.6271L456.786 10.92ZM460.856 4.99998V3.99998H460.262L459.978 4.52113L460.856 4.99998ZM464.926 4.99998L465.925 4.96314L465.89 3.99998H464.926V4.99998ZM467.886 85.29V86.29H468.923L468.885 85.2532L467.886 85.29ZM461.226 85.29L460.333 85.7409L460.611 86.29H461.226V85.29ZM424.596 29.05L423.843 29.7085L423.849 29.7156L423.856 29.7227L424.596 29.05ZM340.976 232.18L340.074 232.613L340.078 232.62L340.081 232.627L340.976 232.18ZM380.936 261.3C387.03 261.3 392.067 260.742 396.015 259.595C399.958 258.45 402.905 256.692 404.686 254.225L403.065 253.055C401.64 255.028 399.16 256.6 395.457 257.675C391.758 258.748 386.928 259.3 380.936 259.3V261.3ZM404.665 254.254C408.332 249.54 410.056 241.729 410.056 231.07H408.056C408.056 241.625 406.326 248.86 403.086 253.026L404.665 254.254ZM410.056 231.07V159.29H408.056V231.07H410.056ZM409.056 158.29H385.376V160.29H409.056V158.29ZM386.376 159.29V151.15H384.376V159.29H386.376ZM385.376 152.15H491.936V150.15H385.376V152.15ZM490.936 151.15V159.29H492.936V151.15H490.936ZM491.936 158.29H477.506V160.29H491.936V158.29ZM476.506 159.29V263.63H478.506V159.29H476.506ZM477.506 262.63H471.956V264.63H477.506V262.63ZM472.767 263.046C468.124 256.597 461.521 253.38 453.086 253.38V255.38C460.931 255.38 466.907 258.33 471.144 264.214L472.767 263.046ZM453.086 253.38C451.235 253.38 447.677 253.961 442.516 255.067C437.317 256.181 430.396 257.85 421.757 260.072L422.255 262.008C430.883 259.79 437.774 258.129 442.935 257.023C448.135 255.909 451.483 255.38 453.086 255.38V253.38ZM421.753 260.072C404.782 264.5 390.318 266.7 378.346 266.7V268.7C390.547 268.7 405.19 266.46 422.258 262.008L421.753 260.072ZM378.346 266.7C338.32 266.7 307.398 255.9 285.435 234.425L284.037 235.855C306.474 257.794 337.958 268.7 378.346 268.7V266.7ZM285.439 234.429C263.742 212.975 252.806 180.716 252.806 137.46H250.806C250.806 181.03 261.823 213.891 284.033 235.851L285.439 234.429ZM252.806 137.46C252.806 93.9729 264.227 60.585 286.934 37.1458L285.498 35.7542C262.324 59.6749 250.806 93.6271 250.806 137.46H252.806ZM286.93 37.1496C309.896 13.6954 340.7 1.92999 379.456 1.92999V-0.0700094C340.265 -0.0700094 308.909 11.8446 285.501 35.7504L286.93 37.1496ZM379.456 1.92999C394.414 1.92999 409.375 3.89159 424.342 7.81726L424.849 5.8827C409.723 1.91506 394.591 -0.0700094 379.456 -0.0700094V1.92999ZM424.361 7.82194C432.011 9.67292 438.067 11.0633 442.522 11.9915C446.93 12.9097 449.878 13.4 451.236 13.4V11.4C450.127 11.4 447.402 10.9652 442.93 10.0335C438.505 9.1117 432.474 7.72705 424.831 5.87802L424.361 7.82194ZM451.236 13.4C453.809 13.4 455.924 12.8897 457.41 11.7009L456.161 10.1391C455.18 10.9237 453.596 11.4 451.236 11.4V13.4ZM457.493 11.6271C458.827 10.2934 460.237 8.22204 461.734 5.47883L459.978 4.52113C458.514 7.20461 457.212 9.07995 456.079 10.2129L457.493 11.6271ZM460.856 5.99998H464.926V3.99998H460.856V5.99998ZM463.926 5.03682L466.886 85.3268L468.885 85.2532L465.925 4.96314L463.926 5.03682ZM467.886 84.29H461.226V86.29H467.886V84.29ZM462.118 84.8391C450.008 60.8654 437.751 42.0337 425.336 28.3773L423.856 29.7227C436.108 43.1996 448.27 61.8612 460.333 85.7409L462.118 84.8391ZM425.348 28.3915C413.117 14.413 399.293 7.32998 383.896 7.32998V9.32998C398.592 9.32998 411.901 16.0602 423.843 29.7085L425.348 28.3915ZM383.896 7.32998C374.29 7.32998 365.84 9.67896 358.583 14.4065C351.331 19.1306 345.327 26.1924 340.548 35.532C331.005 54.1821 326.286 82.0305 326.286 118.96H328.286C328.286 82.1362 333.002 54.6695 342.328 36.443C346.984 27.3443 352.774 20.5773 359.675 16.0823C366.57 11.5906 374.631 9.32998 383.896 9.32998V7.32998ZM326.286 118.96V148.19H328.286V118.96H326.286ZM326.286 148.19C326.286 185.243 330.851 213.418 340.074 232.613L341.877 231.747C332.847 212.955 328.286 185.137 328.286 148.19H326.286ZM340.081 232.627C344.821 242.107 350.592 249.282 357.42 254.088C364.259 258.9 372.11 261.3 380.936 261.3V259.3C372.495 259.3 365.052 257.013 358.571 252.452C352.08 247.884 346.503 240.999 341.87 231.733L340.081 232.627ZM511.789 4.99998V3.99998H510.789V4.99998H511.789ZM704.189 4.99998L705.187 4.94954L705.139 3.99998H704.189V4.99998ZM707.889 78.26V79.26H708.94L708.887 78.2095L707.889 78.26ZM701.229 78.26L700.305 78.644L700.561 79.26H701.229V78.26ZM668.669 27.2L668.032 27.971L668.042 27.9792L668.669 27.2ZM605.769 13.14V12.14H604.769V13.14H605.769ZM605.769 127.47H604.769V128.47H605.769V127.47ZM647.579 114.52L648.317 115.195L648.326 115.184L647.579 114.52ZM664.229 79V78H663.422L663.251 78.7882L664.229 79ZM669.779 79H670.779V78H669.779V79ZM669.779 188.52V189.52H670.779V188.52H669.779ZM663.489 188.52L662.516 188.753L662.7 189.52H663.489V188.52ZM645.359 148.93L644.629 149.614L644.635 149.62L644.64 149.626L645.359 148.93ZM605.769 137.09V136.09H604.769V137.09H605.769ZM605.769 255.86H604.769V256.86H605.769V255.86ZM677.549 235.51L676.903 234.747L676.897 234.752L677.549 235.51ZM710.479 183.34V182.34H709.719L709.515 183.071L710.479 183.34ZM717.879 183.34L718.878 183.377L718.916 182.34H717.879V183.34ZM714.919 264V265H715.883L715.918 264.037L714.919 264ZM511.789 264H510.789V265H511.789V264ZM511.789 255.86V254.86H510.789V255.86H511.789ZM533.619 255.86V256.86H534.619V255.86H533.619ZM533.619 13.14H534.619V12.14H533.619V13.14ZM511.789 13.14H510.789V14.14H511.789V13.14ZM511.789 5.99998H704.189V3.99998H511.789V5.99998ZM703.19 5.05042L706.89 78.3104L708.887 78.2095L705.187 4.94954L703.19 5.05042ZM707.889 77.26H701.229V79.26H707.889V77.26ZM702.152 77.876C691.774 52.9192 680.842 35.7081 669.295 26.4208L668.042 27.9792C679.189 36.9452 689.963 53.7741 700.305 78.644L702.152 77.876ZM669.305 26.429C657.71 16.8501 640.794 12.14 618.719 12.14V14.14C640.55 14.14 656.934 18.8032 668.032 27.9709L669.305 26.429ZM618.719 12.14H605.769V14.14H618.719V12.14ZM604.769 13.14V127.47H606.769V13.14H604.769ZM605.769 128.47H618.349V126.47H605.769V128.47ZM618.349 128.47C630.226 128.47 640.236 124.033 648.317 115.195L646.841 113.845C639.135 122.273 629.658 126.47 618.349 126.47V128.47ZM648.326 115.184C656.361 106.145 661.973 94.1347 665.206 79.2118L663.251 78.7882C660.071 93.4653 654.583 105.135 646.831 113.856L648.326 115.184ZM664.229 80H669.779V78H664.229V80ZM668.779 79V188.52H670.779V79H668.779ZM669.779 187.52H663.489V189.52H669.779V187.52ZM664.461 188.287C660.006 169.724 653.909 156.319 646.077 148.234L644.64 149.626C652.102 157.328 658.091 170.316 662.516 188.753L664.461 188.287ZM646.088 148.246C638.46 140.11 627.936 136.09 614.649 136.09V138.09C627.508 138.09 637.457 141.963 644.629 149.614L646.088 148.246ZM614.649 136.09H605.769V138.09H614.649V136.09ZM604.769 137.09V255.86H606.769V137.09H604.769ZM605.769 256.86H619.829V254.86H605.769V256.86ZM619.829 256.86C642.738 256.86 662.215 250.005 678.2 236.268L676.897 234.752C661.308 248.148 642.306 254.86 619.829 254.86V256.86ZM678.195 236.273C694.388 222.571 705.471 205.005 711.442 183.609L709.515 183.071C703.646 204.102 692.775 221.316 676.903 234.747L678.195 236.273ZM710.479 184.34H717.879V182.34H710.479V184.34ZM716.879 183.303L713.919 263.963L715.918 264.037L718.878 183.377L716.879 183.303ZM714.919 263H511.789V265H714.919V263ZM512.789 264V255.86H510.789V264H512.789ZM511.789 256.86H533.619V254.86H511.789V256.86ZM534.619 255.86V13.14H532.619V255.86H534.619ZM533.619 12.14H511.789V14.14H533.619V12.14ZM512.789 13.14V4.99998H510.789V13.14H512.789ZM953.207 12.03V11.03H952.207V12.03H953.207ZM953.207 264V265H954.207V264H953.207ZM901.407 264L900.524 264.468L900.806 265H901.407V264ZM774.497 24.61L775.381 24.1416L773.497 24.61H774.497ZM774.497 256.97H773.497V257.97H774.497V256.97ZM794.847 256.97H795.847V255.97H794.847V256.97ZM794.847 264V265H795.847V264H794.847ZM744.157 264H743.157V265H744.157V264ZM744.157 256.97V255.97H743.157V256.97H744.157ZM764.507 256.97V257.97H765.507V256.97H764.507ZM764.507 12.03H765.507V11.03H764.507V12.03ZM744.157 12.03H743.157V13.03H744.157V12.03ZM744.157 4.99998V3.99998H743.157V4.99998H744.157ZM846.277 4.99998L847.164 4.5373L846.883 3.99998H846.277V4.99998ZM943.217 190.74L942.331 191.203L944.217 190.74H943.217ZM943.217 12.03H944.217V11.03H943.217V12.03ZM922.867 12.03H921.867V13.03H922.867V12.03ZM922.867 4.99998V3.99998H921.867V4.99998H922.867ZM973.557 4.99998H974.557V3.99998H973.557V4.99998ZM973.557 12.03V13.03H974.557V12.03H973.557ZM952.207 12.03V264H954.207V12.03H952.207ZM953.207 263H901.407V265H953.207V263ZM902.291 263.532L775.381 24.1416L773.614 25.0784L900.524 264.468L902.291 263.532ZM773.497 24.61V256.97H775.497V24.61H773.497ZM774.497 257.97H794.847V255.97H774.497V257.97ZM793.847 256.97V264H795.847V256.97H793.847ZM794.847 263H744.157V265H794.847V263ZM745.157 264V256.97H743.157V264H745.157ZM744.157 257.97H764.507V255.97H744.157V257.97ZM765.507 256.97V12.03H763.507V256.97H765.507ZM764.507 11.03H744.157V13.03H764.507V11.03ZM745.157 12.03V4.99998H743.157V12.03H745.157ZM744.157 5.99998H846.277V3.99998H744.157V5.99998ZM845.391 5.46267L942.331 191.203L944.104 190.277L847.164 4.5373L845.391 5.46267ZM944.217 190.74V12.03H942.217V190.74H944.217ZM943.217 11.03H922.867V13.03H943.217V11.03ZM923.867 12.03V4.99998H921.867V12.03H923.867ZM922.867 5.99998H973.557V3.99998H922.867V5.99998ZM972.557 4.99998V12.03H974.557V4.99998H972.557ZM973.557 11.03H953.207V13.03H973.557V11.03ZM1084.99 230.7L1084.09 231.152L1084.1 231.156L1084.99 230.7ZM1204.5 181.12V180.12H1203.84L1203.58 180.725L1204.5 181.12ZM1211.16 181.12L1212.15 181.151L1212.19 180.12H1211.16V181.12ZM1208.57 263.63V264.63H1209.53L1209.56 263.661L1208.57 263.63ZM1204.5 263.63L1203.62 264.109L1203.9 264.63H1204.5V263.63ZM1200.43 258.08L1199.72 258.787L1199.76 258.826L1199.8 258.861L1200.43 258.08ZM1168.24 262.15L1168.47 263.123L1168.47 263.121L1168.48 263.119L1168.24 262.15ZM1027.27 235.14L1026.56 235.851L1026.57 235.855L1027.27 235.14ZM1028.75 36.45L1028.03 35.7504L1028.03 35.7542L1028.75 36.45ZM1166.02 6.84998L1165.75 7.81397L1165.76 7.81666L1165.77 7.81915L1166.02 6.84998ZM1197.1 10.92L1197.72 11.7009L1197.76 11.6663L1197.8 11.6271L1197.1 10.92ZM1201.17 4.99998V3.99998H1200.57L1200.29 4.52113L1201.17 4.99998ZM1205.24 4.99998L1206.23 4.96314L1206.2 3.99998H1205.24V4.99998ZM1208.2 85.29V86.29H1209.23L1209.19 85.2532L1208.2 85.29ZM1201.54 85.29L1200.62 85.697L1200.89 86.29H1201.54V85.29ZM1167.13 28.31L1166.37 28.9665L1166.38 28.974L1166.38 28.9813L1167.13 28.31ZM1127.17 7.32998C1117.44 7.32998 1108.88 9.67765 1101.53 14.4032C1094.19 19.1259 1088.11 26.1867 1083.26 35.5273C1073.6 54.1791 1068.82 82.0294 1068.82 118.96H1070.82C1070.82 82.1372 1075.59 54.6726 1085.04 36.4477C1089.76 27.3499 1095.62 20.582 1102.62 16.0855C1109.6 11.5919 1117.77 9.32998 1127.17 9.32998V7.32998ZM1068.82 118.96V148.19H1070.82V118.96H1068.82ZM1068.82 148.19C1068.82 183.294 1073.88 210.975 1084.09 231.152L1085.88 230.248C1075.86 210.465 1070.82 183.14 1070.82 148.19H1068.82ZM1084.1 231.156C1089.21 241.14 1095.58 248.686 1103.21 253.734C1110.85 258.787 1119.71 261.3 1129.76 261.3V259.3C1120.06 259.3 1111.6 256.88 1104.31 252.066C1097.03 247.248 1090.87 239.994 1085.87 230.244L1084.1 231.156ZM1129.76 261.3C1143.68 261.3 1156.94 254.518 1169.52 241.191C1182.09 227.875 1194.04 207.961 1205.41 181.515L1203.58 180.725C1192.25 207.066 1180.41 226.742 1168.06 239.819C1155.73 252.885 1142.96 259.3 1129.76 259.3V261.3ZM1204.5 182.12H1211.16V180.12H1204.5V182.12ZM1210.16 181.089L1207.57 263.599L1209.56 263.661L1212.15 181.151L1210.16 181.089ZM1208.57 262.63H1204.5V264.63H1208.57V262.63ZM1205.37 263.151C1203.88 260.411 1202.44 258.415 1201.05 257.299L1199.8 258.861C1200.87 259.718 1202.15 261.422 1203.62 264.109L1205.37 263.151ZM1201.13 257.373C1199.65 255.886 1197.5 255.23 1194.88 255.23V257.23C1197.19 257.23 1198.74 257.807 1199.72 258.787L1201.13 257.373ZM1194.88 255.23C1194.22 255.23 1193.17 255.369 1191.79 255.615C1190.38 255.866 1188.56 256.239 1186.33 256.734C1181.88 257.724 1175.76 259.207 1167.99 261.181L1168.48 263.119C1176.25 261.147 1182.34 259.67 1186.77 258.686C1188.98 258.194 1190.77 257.828 1192.14 257.585C1193.53 257.337 1194.42 257.23 1194.88 257.23V255.23ZM1168 261.177C1152.54 264.859 1136.83 266.7 1120.88 266.7V268.7C1136.99 268.7 1152.85 266.841 1168.47 263.123L1168 261.177ZM1120.88 266.7C1080.85 266.7 1049.93 255.9 1027.96 234.425L1026.57 235.855C1049 257.794 1080.49 268.7 1120.88 268.7V266.7ZM1027.97 234.429C1006.27 212.975 995.335 180.716 995.335 137.46H993.335C993.335 181.03 1004.35 213.891 1026.56 235.851L1027.97 234.429ZM995.335 137.46C995.335 93.9729 1006.76 60.585 1029.46 37.1458L1028.03 35.7542C1004.85 59.6749 993.335 93.6271 993.335 137.46H995.335ZM1029.46 37.1496C1052.43 13.6954 1083.23 1.92999 1121.99 1.92999V-0.0700094C1082.79 -0.0700094 1051.44 11.8446 1028.03 35.7504L1029.46 37.1496ZM1121.99 1.92999C1136.94 1.92999 1151.53 3.89154 1165.75 7.81397L1166.28 5.88599C1151.89 1.9151 1137.12 -0.0700094 1121.99 -0.0700094V1.92999ZM1165.77 7.81915C1173.05 9.67029 1178.83 11.0611 1183.1 11.9897C1187.32 12.908 1190.18 13.4 1191.55 13.4V11.4C1190.44 11.4 1187.81 10.967 1183.52 10.0353C1179.29 9.11393 1173.53 7.72968 1166.26 5.88081L1165.77 7.81915ZM1191.55 13.4C1194.12 13.4 1196.23 12.8897 1197.72 11.7009L1196.47 10.1391C1195.49 10.9237 1193.9 11.4 1191.55 11.4V13.4ZM1197.8 11.6271C1199.14 10.2934 1200.55 8.22204 1202.04 5.47883L1200.29 4.52113C1198.82 7.20461 1197.52 9.07995 1196.39 10.2129L1197.8 11.6271ZM1201.17 5.99998H1205.24V3.99998H1201.17V5.99998ZM1204.24 5.03682L1207.2 85.3268L1209.19 85.2532L1206.23 4.96314L1204.24 5.03682ZM1208.2 84.29H1201.54V86.29H1208.2V84.29ZM1202.45 84.883C1191.33 59.9198 1179.81 40.8211 1167.87 27.6387L1166.38 28.9813C1178.13 41.9456 1189.54 60.8335 1200.62 85.697L1202.45 84.883ZM1167.88 27.6535C1156.13 14.157 1142.55 7.32998 1127.17 7.32998V9.32998C1141.87 9.32998 1154.93 15.823 1166.37 28.9665L1167.88 27.6535ZM1366.7 126.73L1365.78 127.129L1366.68 129.194L1367.61 127.143L1366.7 126.73ZM1419.24 10.92L1420.15 11.3331L1420.79 9.91999H1419.24V10.92ZM1381.87 10.92H1380.87V11.92H1381.87V10.92ZM1381.87 4.99998V3.99998H1380.87V4.99998H1381.87ZM1454.76 4.99998H1455.76V3.99998H1454.76V4.99998ZM1454.76 10.92V11.92H1455.76V10.92H1454.76ZM1430.34 10.92V9.91999H1429.69L1429.43 10.508L1430.34 10.92ZM1374.47 134.5L1373.56 134.088L1373.47 134.284V134.5H1374.47ZM1374.47 256.97H1373.47V257.97H1374.47V256.97ZM1397.04 256.97H1398.04V255.97H1397.04V256.97ZM1397.04 264V265H1398.04V264H1397.04ZM1279.75 264H1278.75V265H1279.75V264ZM1279.75 256.97V255.97H1278.75V256.97H1279.75ZM1302.32 256.97V257.97H1303.32V256.97H1302.32ZM1302.32 141.53H1303.32V141.302L1303.22 141.096L1302.32 141.53ZM1239.42 10.92L1240.32 10.4861L1240.05 9.91999H1239.42V10.92ZM1222.03 10.92H1221.03V11.92H1222.03V10.92ZM1222.03 4.99998V3.99998H1221.03V4.99998H1222.03ZM1340.43 4.99998H1341.43V3.99998H1340.43V4.99998ZM1340.43 10.92V11.92H1341.43V10.92H1340.43ZM1316.38 10.92V9.91999H1314.85L1315.46 11.3185L1316.38 10.92ZM1367.61 127.143L1420.15 11.3331L1418.33 10.5068L1365.79 126.317L1367.61 127.143ZM1419.24 9.91999H1381.87V11.92H1419.24V9.91999ZM1382.87 10.92V4.99998H1380.87V10.92H1382.87ZM1381.87 5.99998H1454.76V3.99998H1381.87V5.99998ZM1453.76 4.99998V10.92H1455.76V4.99998H1453.76ZM1454.76 9.91999H1430.34V11.92H1454.76V9.91999ZM1429.43 10.508L1373.56 134.088L1375.38 134.912L1431.25 11.3319L1429.43 10.508ZM1373.47 134.5V256.97H1375.47V134.5H1373.47ZM1374.47 257.97H1397.04V255.97H1374.47V257.97ZM1396.04 256.97V264H1398.04V256.97H1396.04ZM1397.04 263H1279.75V265H1397.04V263ZM1280.75 264V256.97H1278.75V264H1280.75ZM1279.75 257.97H1302.32V255.97H1279.75V257.97ZM1303.32 256.97V141.53H1301.32V256.97H1303.32ZM1303.22 141.096L1240.32 10.4861L1238.52 11.3539L1301.42 141.964L1303.22 141.096ZM1239.42 9.91999H1222.03V11.92H1239.42V9.91999ZM1223.03 10.92V4.99998H1221.03V10.92H1223.03ZM1222.03 5.99998H1340.43V3.99998H1222.03V5.99998ZM1339.43 4.99998V10.92H1341.43V4.99998H1339.43ZM1340.43 9.91999H1316.38V11.92H1340.43V9.91999ZM1315.46 11.3185L1365.78 127.129L1367.62 126.331L1317.3 10.5215L1315.46 11.3185Z" fill="white" fill-opacity="0.1"/>
</svg>
