<svg width="1436" height="265" viewBox="0 0 1436 265" fill="none" xmlns="http://www.w3.org/2000/svg">
<path d="M151.364 250.724L150.575 250.11L150.564 250.124L150.553 250.139L151.364 250.724ZM156.502 157.139H157.502V156.139H156.502V157.139ZM133.014 157.139H132.014V158.139H133.014V157.139ZM133.014 149.065V148.065H132.014V149.065H133.014ZM238.71 149.065H239.71V148.065H238.71V149.065ZM238.71 157.139V158.139H239.71V157.139H238.71ZM224.397 157.139V156.139H223.397V157.139H224.397ZM224.397 260.633V261.633H225.397V260.633H224.397ZM218.892 260.633L218.08 261.217L218.38 261.633H218.892V260.633ZM169.347 258.064L169.098 257.096L169.095 257.096L169.347 258.064ZM33.19 232.374L32.4869 233.085L32.4909 233.089L33.19 232.374ZM34.658 35.295L33.9435 34.5954L33.9397 34.5992L34.658 35.295ZM171.916 5.93498L171.662 6.90226L171.672 6.90469L171.681 6.90694L171.916 5.93498ZM203.845 9.97199L204.47 10.7529L204.513 10.7183L204.552 10.6791L203.845 9.97199ZM207.882 4.09998V3.09998H207.288L207.004 3.62113L207.882 4.09998ZM211.919 4.09998L212.918 4.06314L212.883 3.09998H211.919V4.09998ZM214.855 83.739V84.739H215.893L215.854 83.7022L214.855 83.739ZM208.249 83.739L207.356 84.1899L207.634 84.739H208.249V83.739ZM171.916 27.955L171.163 28.6135L171.17 28.6206L171.176 28.6277L171.916 27.955ZM88.974 229.438L88.0726 229.871L88.076 229.878L88.0796 229.885L88.974 229.438ZM128.61 258.33C134.655 258.33 139.652 257.776 143.569 256.639C147.481 255.503 150.406 253.758 152.175 251.309L150.553 250.139C149.141 252.094 146.683 253.652 143.011 254.718C139.343 255.783 134.553 256.33 128.61 256.33V258.33ZM152.153 251.338C155.792 246.66 157.502 238.91 157.502 228.337H155.502C155.502 238.806 153.787 245.98 150.575 250.11L152.153 251.338ZM157.502 228.337V157.139H155.502V228.337H157.502ZM156.502 156.139H133.014V158.139H156.502V156.139ZM134.014 157.139V149.065H132.014V157.139H134.014ZM133.014 150.065H238.71V148.065H133.014V150.065ZM237.71 149.065V157.139H239.71V149.065H237.71ZM238.71 156.139H224.397V158.139H238.71V156.139ZM223.397 157.139V260.633H225.397V157.139H223.397ZM224.397 259.633H218.892V261.633H224.397V259.633ZM219.704 260.049C215.096 253.65 208.544 250.458 200.175 250.458V252.458C207.954 252.458 213.88 255.383 218.08 261.217L219.704 260.049ZM200.175 250.458C198.338 250.458 194.808 251.035 189.689 252.132C184.532 253.237 177.667 254.892 169.098 257.096L169.596 259.032C178.154 256.832 184.99 255.184 190.109 254.087C195.266 252.982 198.587 252.458 200.175 252.458V250.458ZM169.095 257.096C152.261 261.488 137.915 263.67 126.041 263.67V265.67C138.144 265.67 152.669 263.448 169.599 259.032L169.095 257.096ZM126.041 263.67C86.3415 263.67 55.6718 252.958 33.8891 231.659L32.4909 233.089C54.7481 254.852 85.9792 265.67 126.041 265.67V263.67ZM33.8931 231.663C12.3739 210.385 1.52698 178.39 1.52698 135.486H-0.473019C-0.473019 178.704 10.4554 211.301 32.4869 233.085L33.8931 231.663ZM1.52698 135.486C1.52698 92.3529 12.8555 59.238 35.3762 35.9908L33.9397 34.5992C10.9525 58.3279 -0.473019 92.0071 -0.473019 135.486H1.52698ZM35.3725 35.9946C58.1501 12.7324 88.7024 1.06299 127.142 1.06299V-0.937009C88.2669 -0.937009 57.1632 10.8816 33.9435 34.5954L35.3725 35.9946ZM127.142 1.06299C141.978 1.06299 156.818 3.00859 171.662 6.90226L172.17 4.9677C157.165 1.03206 142.155 -0.937009 127.142 -0.937009V1.06299ZM171.681 6.90694C179.27 8.74292 185.276 10.122 189.695 11.0427C194.067 11.9535 196.992 12.44 198.34 12.44V10.44C197.242 10.44 194.539 10.009 190.103 9.08476C185.714 8.17045 179.732 6.79705 172.151 4.96302L171.681 6.90694ZM198.34 12.44C200.894 12.44 202.994 11.9337 204.47 10.7529L203.22 9.19113C202.25 9.96766 200.68 10.44 198.34 10.44V12.44ZM204.552 10.6791C205.876 9.35537 207.276 7.30004 208.76 4.57883L207.004 3.62113C205.552 6.28261 204.261 8.14195 203.138 9.26489L204.552 10.6791ZM207.882 5.09998H211.919V3.09998H207.882V5.09998ZM210.92 4.13682L213.856 83.7758L215.854 83.7022L212.918 4.06314L210.92 4.13682ZM214.855 82.739H208.249V84.739H214.855V82.739ZM209.142 83.2881C197.129 59.5084 184.971 40.8287 172.656 27.2823L171.176 28.6277C183.328 41.9946 195.391 60.5042 207.356 84.1899L209.142 83.2881ZM172.669 27.2965C160.535 13.43 146.822 6.40298 131.546 6.40298V8.40298C146.12 8.40298 159.319 15.0772 171.163 28.6135L172.669 27.2965ZM131.546 6.40298C122.017 6.40298 113.634 8.73327 106.434 13.4234C99.2394 18.1102 93.2834 25.1159 88.5425 34.3807C79.0756 52.8814 74.395 80.5055 74.395 117.136H76.395C76.395 80.6112 81.0729 53.3687 90.323 35.2918C94.9406 26.2678 100.683 19.5568 107.526 15.0992C114.364 10.6449 122.358 8.40298 131.546 8.40298V6.40298ZM74.395 117.136V146.129H76.395V117.136H74.395ZM74.395 146.129C74.395 182.882 78.9232 210.83 88.0726 229.871L89.8753 229.005C80.9195 210.367 76.395 182.776 76.395 146.129H74.395ZM88.0796 229.885C92.7816 239.289 98.5058 246.407 105.28 251.175C112.065 255.949 119.854 258.33 128.61 258.33V256.33C120.24 256.33 112.859 254.062 106.431 249.539C99.9941 245.009 94.4637 238.181 89.8684 228.991L88.0796 229.885ZM258.402 4.09998V3.09998H257.402V4.09998H258.402ZM390.522 4.09998H391.522V3.09998H390.522V4.09998ZM390.522 12.174V13.174H391.522V12.174H390.522ZM351.62 12.174V11.174H350.62V12.174H351.62ZM351.62 252.926H350.62V253.926H351.62V252.926ZM414.377 233.842L413.663 233.142L413.656 233.149L414.377 233.842ZM452.178 175.122V174.122H451.549L451.277 174.688L452.178 175.122ZM459.885 175.122L460.882 175.203L460.969 174.122H459.885V175.122ZM452.912 261V262H453.834L453.909 261.081L452.912 261ZM258.402 261H257.402V262H258.402V261ZM258.402 252.926V251.926H257.402V252.926H258.402ZM280.055 252.926V253.926H281.055V252.926H280.055ZM280.055 12.174H281.055V11.174H280.055V12.174ZM258.402 12.174H257.402V13.174H258.402V12.174ZM258.402 5.09998H390.522V3.09998H258.402V5.09998ZM389.522 4.09998V12.174H391.522V4.09998H389.522ZM390.522 11.174H351.62V13.174H390.522V11.174ZM350.62 12.174V252.926H352.62V12.174H350.62ZM351.62 253.926H364.832V251.926H351.62V253.926ZM364.832 253.926C385.848 253.926 402.642 247.489 415.098 234.535L413.656 233.149C401.645 245.641 385.409 251.926 364.832 251.926V253.926ZM415.091 234.542C427.679 221.707 440.335 202.023 453.079 175.556L451.277 174.688C438.575 201.069 426.031 220.531 413.663 233.142L415.091 234.542ZM452.178 176.122H459.885V174.122H452.178V176.122ZM458.888 175.041L451.915 260.919L453.909 261.081L460.882 175.203L458.888 175.041ZM452.912 260H258.402V262H452.912V260ZM259.402 261V252.926H257.402V261H259.402ZM258.402 253.926H280.055V251.926H258.402V253.926ZM281.055 252.926V12.174H279.055V252.926H281.055ZM280.055 11.174H258.402V13.174H280.055V11.174ZM259.402 12.174V4.09998H257.402V12.174H259.402ZM642.995 35.662L642.055 36.0038L642.059 36.0131L642.995 35.662ZM622.076 10.706L621.72 11.6405L621.732 11.6451L621.744 11.6494L622.076 10.706ZM584.275 10.706L583.933 9.76619L583.926 9.76879L583.919 9.7715L584.275 10.706ZM571.43 20.982L570.611 20.4085L570.611 20.4085L571.43 20.982ZM562.989 36.396L562.063 36.0173L562.056 36.0357L562.049 36.0542L562.989 36.396ZM558.218 59.15L557.226 59.026L557.224 59.0365L557.223 59.0471L558.218 59.15ZM559.319 212.189L558.334 212.36L558.335 212.37L558.338 212.381L559.319 212.189ZM568.127 238.98L568.972 238.445L568.971 238.443L568.127 238.98ZM640.793 232.741L639.851 232.404L639.849 232.412L640.793 232.741ZM510.875 231.64L510.132 232.309L510.14 232.318L510.875 231.64ZM513.077 36.396L512.333 35.7274L512.333 35.7279L513.077 36.396ZM694.742 34.561L693.988 35.2184L693.996 35.2268L694.742 34.561ZM694.375 229.805L693.626 229.143L693.622 229.147L694.375 229.805ZM650.601 147.597V120.439H648.601V147.597H650.601ZM650.601 120.439C650.601 98.039 650.05 79.7522 648.946 65.5866C647.845 51.4509 646.187 41.3262 643.931 35.3109L642.059 36.0131C644.207 41.7417 645.852 51.6185 646.952 65.7419C648.051 79.8353 648.601 98.0649 648.601 120.439H650.601ZM643.935 35.3202C638.991 21.7238 631.86 13.0835 622.407 9.76252L621.744 11.6494C630.398 14.6898 637.213 22.6869 642.055 36.0037L643.935 35.3202ZM622.432 9.7715C617.149 7.75902 610.782 6.76998 603.359 6.76998V8.76998C610.616 8.76998 616.727 9.73827 621.72 11.6405L622.432 9.7715ZM603.359 6.76998C595.934 6.76998 589.451 7.75959 583.933 9.76619L584.617 11.6458C589.864 9.73771 596.104 8.76998 603.359 8.76998V6.76998ZM583.919 9.7715C578.578 11.8063 574.14 15.366 570.611 20.4085L572.249 21.5554C575.57 16.8113 579.696 13.5204 584.631 11.6405L583.919 9.7715ZM570.611 20.4085C567.144 25.361 564.294 30.5642 562.063 36.0173L563.914 36.7746C566.088 31.4625 568.865 26.3896 572.249 21.5554L570.611 20.4085ZM562.049 36.0542C560.054 41.54 558.453 49.21 557.226 59.026L559.21 59.274C560.43 49.5166 562.009 42.0173 563.929 36.7377L562.049 36.0542ZM557.223 59.0471C555.75 73.2903 555.016 94.2508 555.016 121.907H557.016C557.016 94.2685 557.75 73.391 559.213 59.2529L557.223 59.0471ZM555.016 121.907V148.331H557.016V121.907H555.016ZM555.016 148.331C555.016 178.183 556.116 199.545 558.334 212.36L560.304 212.018C558.118 199.388 557.016 178.178 557.016 148.331H555.016ZM558.338 212.381C560.789 224.885 563.753 233.969 567.283 239.517L568.971 238.443C565.65 233.225 562.742 224.449 560.3 211.997L558.338 212.381ZM567.282 239.515C575.075 251.832 587.162 257.963 603.359 257.963V255.963C587.749 255.963 576.349 250.105 568.972 238.445L567.282 239.515ZM603.359 257.963C613.159 257.963 621.314 255.916 627.757 251.747C634.21 247.571 638.862 241.321 641.737 233.07L639.849 232.412C637.097 240.309 632.695 246.17 626.671 250.068C620.636 253.973 612.888 255.963 603.359 255.963V257.963ZM641.734 233.078C647.67 216.507 650.601 187.97 650.601 147.597H648.601C648.601 187.964 645.66 216.19 639.851 232.404L641.734 233.078ZM602.625 263.67C561.939 263.67 531.667 252.71 511.61 230.962L510.14 232.318C530.698 254.61 561.592 265.67 602.625 265.67V263.67ZM511.618 230.971C491.776 208.951 481.781 177.175 481.781 135.486H479.781C479.781 177.473 489.848 209.799 510.132 232.309L511.618 230.971ZM481.781 135.486C481.781 93.5727 492.5 60.8076 513.821 37.0641L512.333 35.7279C490.592 59.9391 479.781 93.2339 479.781 135.486H481.781ZM513.821 37.0645C535.366 13.0985 565.775 1.06299 605.194 1.06299V-0.937009C565.341 -0.937009 534.339 11.2495 512.333 35.7274L513.821 37.0645ZM605.194 1.06299C644.633 1.06299 674.169 12.4983 693.988 35.2184L695.495 33.9036C675.19 10.6264 645.027 -0.937009 605.194 -0.937009V1.06299ZM693.996 35.2268C714.086 57.7381 724.203 89.8853 724.203 131.816H726.203C726.203 89.5813 716.012 56.8919 695.488 33.8951L693.996 35.2268ZM724.203 131.816C724.203 173.742 713.966 206.139 693.626 229.143L695.124 230.467C715.888 206.985 726.203 174.055 726.203 131.816H724.203ZM693.622 229.147C673.561 252.108 643.295 263.67 602.625 263.67V265.67C643.674 265.67 674.574 253.988 695.128 230.463L693.622 229.147ZM747.974 4.09998V3.09998H746.974V4.09998H747.974ZM934.043 18.046L933.561 18.9219L933.568 18.9261L933.576 18.9301L934.043 18.046ZM899.178 124.476L899.017 123.489L898.178 123.626V124.476H899.178ZM899.178 125.21H898.178V126.093L899.054 126.202L899.178 125.21ZM942.484 245.219L942.949 246.105L942.957 246.1L942.484 245.219ZM747.974 261H746.974V262H747.974V261ZM747.974 254.027V253.027H746.974V254.027H747.974ZM771.829 254.027V255.027H772.829V254.027H771.829ZM771.829 11.073H772.829V10.073H771.829V11.073ZM747.974 11.073H746.974V12.073H747.974V11.073ZM843.394 131.082V130.082H842.394V131.082H843.394ZM843.394 254.027H842.394V255.027H843.394V254.027ZM888.902 240.081L889.768 240.582L889.768 240.582L888.902 240.081ZM887.067 143.193L886.293 143.826L886.293 143.826L887.067 143.193ZM843.394 11.073V10.073H842.394V11.073H843.394ZM843.394 124.109H842.394V125.109H843.394V124.109ZM879.36 112.732L878.524 112.183L878.52 112.19L879.36 112.732ZM880.461 22.083L879.604 22.5975L879.607 22.604L879.611 22.6104L880.461 22.083ZM747.974 5.09998H857.707V3.09998H747.974V5.09998ZM857.707 5.09998C891.658 5.09998 916.9 9.74658 933.561 18.9219L934.525 17.17C917.422 7.75071 891.773 3.09998 857.707 3.09998V5.09998ZM933.576 18.9301C941.985 23.3751 948.258 29.3606 952.436 36.8816C956.618 44.409 958.733 53.5308 958.733 64.288H960.733C960.733 53.2699 958.566 43.797 954.185 35.9104C949.8 28.0173 943.228 21.7695 934.51 17.1619L933.576 18.9301ZM958.733 64.288C958.733 80.8324 953.76 93.9548 943.889 103.765C933.997 113.598 919.082 120.206 899.017 123.489L899.34 125.463C919.644 122.14 935.007 115.414 945.299 105.184C955.614 94.9316 960.733 81.2629 960.733 64.288H958.733ZM898.178 124.476V125.21H900.178V124.476H898.178ZM899.054 126.202C923.419 129.248 941.548 136.055 953.572 146.516C965.558 156.945 971.578 171.09 971.578 189.068H973.578C973.578 170.591 967.365 155.865 954.884 145.008C942.442 134.183 923.87 127.289 899.302 124.218L899.054 126.202ZM971.578 189.068C971.578 215.444 961.687 233.78 942.011 244.338L942.957 246.1C963.406 235.127 973.578 216.029 973.578 189.068H971.578ZM942.02 244.333C922.165 254.745 893.484 260 855.872 260V262C893.618 262 922.677 256.735 942.949 246.105L942.02 244.333ZM855.872 260H747.974V262H855.872V260ZM748.974 261V254.027H746.974V261H748.974ZM747.974 255.027H771.829V253.027H747.974V255.027ZM772.829 254.027V11.073H770.829V254.027H772.829ZM771.829 10.073H747.974V12.073H771.829V10.073ZM748.974 11.073V4.09998H746.974V11.073H748.974ZM842.394 131.082V254.027H844.394V131.082H842.394ZM843.394 255.027H860.643V253.027H843.394V255.027ZM860.643 255.027C874.352 255.027 884.159 250.269 889.768 240.582L888.037 239.58C882.88 248.487 873.848 253.027 860.643 253.027V255.027ZM889.768 240.582C895.28 231.061 897.976 217.152 897.976 198.977H895.976C895.976 217.013 893.29 230.506 888.037 239.58L889.768 240.582ZM897.976 198.977V179.526H895.976V198.977H897.976ZM897.976 179.526C897.976 163.267 894.654 150.887 887.841 142.56L886.293 143.826C892.692 151.647 895.976 163.489 895.976 179.526H897.976ZM887.841 142.56C880.953 134.142 868.834 130.082 851.835 130.082V132.082C868.601 132.082 879.969 136.096 886.293 143.826L887.841 142.56ZM851.835 130.082H843.394V132.082H851.835V130.082ZM842.394 11.073V124.109H844.394V11.073H842.394ZM843.394 125.109H852.936V123.109H843.394V125.109ZM852.936 125.109C865.847 125.109 875.053 121.252 880.2 113.274L878.52 112.19C873.88 119.381 865.471 123.109 852.936 123.109V125.109ZM880.196 113.281C885.492 105.21 888.067 93.1101 888.067 77.133H886.067C886.067 92.9625 883.504 104.595 878.524 112.183L880.196 113.281ZM888.067 77.133V59.884H886.067V77.133H888.067ZM888.067 59.884C888.067 41.7639 885.875 28.9098 881.311 21.5556L879.611 22.6104C883.855 29.4468 886.067 41.7934 886.067 59.884H888.067ZM881.319 21.5685C876.659 13.8023 867.792 10.073 855.138 10.073V12.073C867.44 12.073 875.455 15.6837 879.604 22.5975L881.319 21.5685ZM855.138 10.073H843.394V12.073H855.138V10.073ZM1129.62 254.027V255.027H1131.01L1130.57 253.707L1129.62 254.027ZM1102.83 174.755L1103.78 174.435L1103.55 173.755H1102.83V174.755ZM1030.16 174.755V173.755H1029.46L1029.22 174.419L1030.16 174.755ZM1001.9 254.027L1000.96 253.691L1000.49 255.027H1001.9V254.027ZM1029.43 254.027H1030.43V253.027H1029.43V254.027ZM1029.43 261V262H1030.43V261H1029.43ZM973.278 261H972.278V262H973.278V261ZM973.278 254.027V253.027H972.278V254.027H973.278ZM990.527 254.027V255.027H991.222L991.464 254.375L990.527 254.027ZM1084.11 1.89799V0.897989H1083.42L1083.17 1.55001L1084.11 1.89799ZM1114.21 1.89799L1115.14 1.55361L1114.9 0.897989H1114.21V1.89799ZM1206.69 254.027L1205.75 254.371L1205.99 255.027H1206.69V254.027ZM1223.57 254.027H1224.57V253.027H1223.57V254.027ZM1223.57 261V262H1224.57V261H1223.57ZM1103.56 261H1102.56V262H1103.56V261ZM1103.56 254.027V253.027H1102.56V254.027H1103.56ZM1067.96 70.527L1068.91 70.2118L1068 67.4639L1067.02 70.1893L1067.96 70.527ZM1033.47 166.681L1032.52 166.343L1032.04 167.681H1033.47V166.681ZM1099.89 166.681V167.681H1101.28L1100.84 166.366L1099.89 166.681ZM1130.57 253.707L1103.78 174.435L1101.88 175.075L1128.67 254.347L1130.57 253.707ZM1102.83 173.755H1030.16V175.755H1102.83V173.755ZM1029.22 174.419L1000.96 253.691L1002.85 254.363L1031.1 175.091L1029.22 174.419ZM1001.9 255.027H1029.43V253.027H1001.9V255.027ZM1028.43 254.027V261H1030.43V254.027H1028.43ZM1029.43 260H973.278V262H1029.43V260ZM974.278 261V254.027H972.278V261H974.278ZM973.278 255.027H990.527V253.027H973.278V255.027ZM991.464 254.375L1085.05 2.24597L1083.17 1.55001L989.589 253.679L991.464 254.375ZM1084.11 2.89799H1114.21V0.897989H1084.11V2.89799ZM1113.27 2.24236L1205.75 254.371L1207.63 253.683L1115.14 1.55361L1113.27 2.24236ZM1206.69 255.027H1223.57V253.027H1206.69V255.027ZM1222.57 254.027V261H1224.57V254.027H1222.57ZM1223.57 260H1103.56V262H1223.57V260ZM1104.56 261V254.027H1102.56V261H1104.56ZM1103.56 255.027H1129.62V253.027H1103.56V255.027ZM1067.02 70.1893L1032.52 166.343L1034.41 167.019L1068.9 70.8647L1067.02 70.1893ZM1033.47 167.681H1099.89V165.681H1033.47V167.681ZM1100.84 166.366L1068.91 70.2118L1067.01 70.8421L1098.94 166.996L1100.84 166.366ZM1233.6 4.09998V3.09998H1232.6V4.09998H1233.6ZM1365.72 4.09998H1366.72V3.09998H1365.72V4.09998ZM1365.72 12.174V13.174H1366.72V12.174H1365.72ZM1326.82 12.174V11.174H1325.82V12.174H1326.82ZM1326.82 252.926H1325.82V253.926H1326.82V252.926ZM1389.58 233.842L1388.87 233.142L1388.86 233.149L1389.58 233.842ZM1427.38 175.122V174.122H1426.75L1426.48 174.688L1427.38 175.122ZM1435.09 175.122L1436.08 175.203L1436.17 174.122H1435.09V175.122ZM1428.11 261V262H1429.04L1429.11 261.081L1428.11 261ZM1233.6 261H1232.6V262H1233.6V261ZM1233.6 252.926V251.926H1232.6V252.926H1233.6ZM1255.26 252.926V253.926H1256.26V252.926H1255.26ZM1255.26 12.174H1256.26V11.174H1255.26V12.174ZM1233.6 12.174H1232.6V13.174H1233.6V12.174ZM1233.6 5.09998H1365.72V3.09998H1233.6V5.09998ZM1364.72 4.09998V12.174H1366.72V4.09998H1364.72ZM1365.72 11.174H1326.82V13.174H1365.72V11.174ZM1325.82 12.174V252.926H1327.82V12.174H1325.82ZM1326.82 253.926H1340.03V251.926H1326.82V253.926ZM1340.03 253.926C1361.05 253.926 1377.84 247.489 1390.3 234.535L1388.86 233.149C1376.85 245.641 1360.61 251.926 1340.03 251.926V253.926ZM1390.29 234.542C1402.88 221.707 1415.54 202.023 1428.28 175.556L1426.48 174.688C1413.78 201.069 1401.23 220.531 1388.87 233.142L1390.29 234.542ZM1427.38 176.122H1435.09V174.122H1427.38V176.122ZM1434.09 175.041L1427.12 260.919L1429.11 261.081L1436.08 175.203L1434.09 175.041ZM1428.11 260H1233.6V262H1428.11V260ZM1234.6 261V252.926H1232.6V261H1234.6ZM1233.6 253.926H1255.26V251.926H1233.6V253.926ZM1256.26 252.926V12.174H1254.26V252.926H1256.26ZM1255.26 11.174H1233.6V13.174H1255.26V11.174ZM1234.6 12.174V4.09998H1232.6V12.174H1234.6Z" fill="white" fill-opacity="0.1"/>
</svg>
