<svg width="1462" height="178" viewBox="0 0 1462 178" fill="none" xmlns="http://www.w3.org/2000/svg">
<path d="M128.928 2.79999V1.79999H128.134L127.954 2.57306L128.928 2.79999ZM194.61 2.79999H195.61V1.79999H194.61V2.79999ZM194.61 7.47399V8.47399H195.61V7.47399H194.61ZM181.08 7.47399V6.47399H180.08V7.47399H181.08ZM181.08 170.326H180.08V171.326H181.08V170.326ZM194.61 170.326H195.61V169.326H194.61V170.326ZM194.61 175V176H195.61V175H194.61ZM119.58 175H118.58V176H119.58V175ZM119.58 170.326V169.326H118.58V170.326H119.58ZM133.11 170.326V171.326H134.11V170.326H133.11ZM133.11 16.576H134.11V15.576H133.11V16.576ZM132.126 16.576V15.576H131.332L131.152 16.3491L132.126 16.576ZM95.2261 175V176H96.02L96.2001 175.227L95.2261 175ZM64.4761 175L63.5112 175.262L63.7118 176H64.4761V175ZM21.1801 15.838L22.1451 15.5755L21.9444 14.838H21.1801V15.838ZM20.1961 15.838V14.838H19.1961V15.838H20.1961ZM20.1961 170.326H19.1961V171.326H20.1961V170.326ZM33.7261 170.326H34.7261V169.326H33.7261V170.326ZM33.7261 175V176H34.7261V175H33.7261ZM0.270117 175H-0.729883V176H0.270117V175ZM0.270117 170.326V169.326H-0.729883V170.326H0.270117ZM13.8001 170.326V171.326H14.8001V170.326H13.8001ZM13.8001 7.47399H14.8001V6.47399H13.8001V7.47399ZM0.270117 7.47399H-0.729883V8.47399H0.270117V7.47399ZM0.270117 2.79999V1.79999H-0.729883V2.79999H0.270117ZM66.6901 2.79999L67.6584 2.54994L67.4647 1.79999H66.6901V2.79999ZM99.4081 129.49L98.4399 129.74L100.382 129.717L99.4081 129.49ZM128.928 3.79999H194.61V1.79999H128.928V3.79999ZM193.61 2.79999V7.47399H195.61V2.79999H193.61ZM194.61 6.47399H181.08V8.47399H194.61V6.47399ZM180.08 7.47399V170.326H182.08V7.47399H180.08ZM181.08 171.326H194.61V169.326H181.08V171.326ZM193.61 170.326V175H195.61V170.326H193.61ZM194.61 174H119.58V176H194.61V174ZM120.58 175V170.326H118.58V175H120.58ZM119.58 171.326H133.11V169.326H119.58V171.326ZM134.11 170.326V16.576H132.11V170.326H134.11ZM133.11 15.576H132.126V17.576H133.11V15.576ZM131.152 16.3491L94.2522 174.773L96.2001 175.227L133.1 16.8028L131.152 16.3491ZM95.2261 174H64.4761V176H95.2261V174ZM65.4411 174.738L22.1451 15.5755L20.2152 16.1005L63.5112 175.262L65.4411 174.738ZM21.1801 14.838H20.1961V16.838H21.1801V14.838ZM19.1961 15.838V170.326H21.1961V15.838H19.1961ZM20.1961 171.326H33.7261V169.326H20.1961V171.326ZM32.7261 170.326V175H34.7261V170.326H32.7261ZM33.7261 174H0.270117V176H33.7261V174ZM1.27012 175V170.326H-0.729883V175H1.27012ZM0.270117 171.326H13.8001V169.326H0.270117V171.326ZM14.8001 170.326V7.47399H12.8001V170.326H14.8001ZM13.8001 6.47399H0.270117V8.47399H13.8001V6.47399ZM1.27012 7.47399V2.79999H-0.729883V7.47399H1.27012ZM0.270117 3.79999H66.6901V1.79999H0.270117V3.79999ZM65.7219 3.05004L98.4399 129.74L100.376 129.24L67.6584 2.54994L65.7219 3.05004ZM100.382 129.717L129.902 3.02692L127.954 2.57306L98.4342 129.263L100.382 129.717ZM306.994 170.326V171.326H308.387L307.941 170.006L306.994 170.326ZM289.036 117.19L289.983 116.87L289.753 116.19H289.036V117.19ZM240.328 117.19V116.19H239.623L239.386 116.854L240.328 117.19ZM221.386 170.326L220.444 169.99L219.968 171.326H221.386V170.326ZM239.836 170.326H240.836V169.326H239.836V170.326ZM239.836 175V176H240.836V175H239.836ZM202.198 175H201.198V176H202.198V175ZM202.198 170.326V169.326H201.198V170.326H202.198ZM213.76 170.326V171.326H214.455L214.697 170.674L213.76 170.326ZM276.49 1.32399V0.323993H275.794L275.552 0.976012L276.49 1.32399ZM296.662 1.32399L297.601 0.979618L297.36 0.323993H296.662V1.32399ZM358.654 170.326L357.715 170.67L357.955 171.326H358.654V170.326ZM369.97 170.326H370.97V169.326H369.97V170.326ZM369.97 175V176H370.97V175H369.97ZM289.528 175H288.528V176H289.528V175ZM289.528 170.326V169.326H288.528V170.326H289.528ZM265.666 47.326L266.615 47.0108L265.702 44.2629L264.724 46.9883L265.666 47.326ZM242.542 111.778L241.6 111.44L241.12 112.778H242.542V111.778ZM287.068 111.778V112.778H288.453L288.017 111.463L287.068 111.778ZM307.941 170.006L289.983 116.87L288.088 117.51L306.046 170.646L307.941 170.006ZM289.036 116.19H240.328V118.19H289.036V116.19ZM239.386 116.854L220.444 169.99L222.328 170.662L241.27 117.526L239.386 116.854ZM221.386 171.326H239.836V169.326H221.386V171.326ZM238.836 170.326V175H240.836V170.326H238.836ZM239.836 174H202.198V176H239.836V174ZM203.198 175V170.326H201.198V175H203.198ZM202.198 171.326H213.76V169.326H202.198V171.326ZM214.697 170.674L277.427 1.67197L275.552 0.976012L212.822 169.978L214.697 170.674ZM276.49 2.32399H296.662V0.323993H276.49V2.32399ZM295.723 1.66837L357.715 170.67L359.593 169.982L297.601 0.979618L295.723 1.66837ZM358.654 171.326H369.97V169.326H358.654V171.326ZM368.97 170.326V175H370.97V170.326H368.97ZM369.97 174H289.528V176H369.97V174ZM290.528 175V170.326H288.528V175H290.528ZM289.528 171.326H306.994V169.326H289.528V171.326ZM264.724 46.9883L241.6 111.44L243.483 112.116L266.607 47.6637L264.724 46.9883ZM242.542 112.778H287.068V110.778H242.542V112.778ZM288.017 111.463L266.615 47.0108L264.717 47.6411L286.119 112.093L288.017 111.463ZM439.178 87.916V86.916H438.178V87.916H439.178ZM439.178 170.326H438.178V171.326H439.178V170.326ZM455.168 170.326H456.168V169.326H455.168V170.326ZM455.168 175V176H456.168V175H455.168ZM375.218 175H374.218V176H375.218V175ZM375.218 170.326V169.326H374.218V170.326H375.218ZM391.208 170.326V171.326H392.208V170.326H391.208ZM391.208 7.47399H392.208V6.47399H391.208V7.47399ZM375.218 7.47399H374.218V8.47399H375.218V7.47399ZM375.218 2.79999V1.79999H374.218V2.79999H375.218ZM494.774 6.24399L494.523 7.21198L494.534 7.21469L494.544 7.21717L494.774 6.24399ZM513.716 14.116L513.063 14.8728L513.074 14.8826L513.086 14.8921L513.716 14.116ZM515.192 74.632L515.843 75.3913L515.853 75.3824L515.192 74.632ZM483.704 85.21L483.623 84.2133L482.704 84.2881V85.21H483.704ZM483.704 85.948H482.704V86.8214L483.57 86.9389L483.704 85.948ZM520.604 158.518L519.641 158.786L519.648 158.81L519.656 158.834L520.604 158.518ZM533.396 159.01L532.557 158.467L532.552 158.473L532.548 158.48L533.396 159.01ZM538.316 141.79L538.433 140.797L537.49 140.686L537.33 141.623L538.316 141.79ZM542.498 142.282L543.49 142.41L543.62 141.407L542.615 141.289L542.498 142.282ZM532.904 170.326L532.185 169.631L532.179 169.638L532.172 169.645L532.904 170.326ZM477.308 168.112L476.555 168.769L476.564 168.779L476.573 168.789L477.308 168.112ZM465.254 94.312L464.374 94.7861L464.381 94.799L464.388 94.8117L465.254 94.312ZM439.178 7.47399V6.47399H438.178V7.47399H439.178ZM439.178 83.242H438.178V84.242H439.178V83.242ZM467.714 74.632L466.933 74.0073L466.928 74.0142L466.923 74.0212L467.714 74.632ZM467.96 13.87L467.253 14.5771L467.267 14.5907L467.281 14.6038L467.96 13.87ZM452.216 86.916H439.178V88.916H452.216V86.916ZM438.178 87.916V170.326H440.178V87.916H438.178ZM439.178 171.326H455.168V169.326H439.178V171.326ZM454.168 170.326V175H456.168V170.326H454.168ZM455.168 174H375.218V176H455.168V174ZM376.218 175V170.326H374.218V175H376.218ZM375.218 171.326H391.208V169.326H375.218V171.326ZM392.208 170.326V7.47399H390.208V170.326H392.208ZM391.208 6.47399H375.218V8.47399H391.208V6.47399ZM376.218 7.47399V2.79999H374.218V7.47399H376.218ZM375.218 3.79999H449.51V1.79999H375.218V3.79999ZM449.51 3.79999C470.828 3.79999 485.802 4.95097 494.523 7.21198L495.025 5.27599C486.034 2.94501 470.833 1.79999 449.51 1.79999V3.79999ZM494.544 7.21717C503.529 9.34085 509.645 11.9209 513.063 14.8728L514.37 13.3592C510.572 10.079 504.06 7.41113 495.004 5.2708L494.544 7.21717ZM513.086 14.8921C520.645 21.034 524.524 30.8619 524.524 44.62H526.524C526.524 30.4981 522.532 19.99 514.347 13.3399L513.086 14.8921ZM524.524 44.62C524.524 58.4222 521.113 68.0838 514.531 73.8816L515.853 75.3824C523.048 69.0441 526.524 58.6978 526.524 44.62H524.524ZM514.542 73.8727C507.881 79.582 497.627 83.0735 483.623 84.2133L483.785 86.2067C497.99 85.0505 508.728 81.49 515.843 75.3913L514.542 73.8727ZM482.704 85.21V85.948H484.704V85.21H482.704ZM483.57 86.9389C496.763 88.7305 505.734 92.6155 510.746 98.4101L512.259 97.1018C506.774 90.7605 497.214 86.7735 483.839 84.9571L483.57 86.9389ZM510.746 98.4101C515.754 104.2 518.374 114.064 518.374 128.26H520.374C520.374 113.92 517.747 103.448 512.259 97.1018L510.746 98.4101ZM518.374 128.26V141.298H520.374V128.26H518.374ZM518.374 141.298C518.374 149.81 518.779 155.683 519.641 158.786L521.568 158.25C520.79 155.449 520.374 149.842 520.374 141.298H518.374ZM519.656 158.834C520.195 160.452 521.033 161.75 522.218 162.639C523.408 163.531 524.86 163.946 526.508 163.946V161.946C525.204 161.946 524.197 161.623 523.418 161.039C522.635 160.452 521.998 159.536 521.553 158.202L519.656 158.834ZM526.508 163.946C529.825 163.946 532.432 162.439 534.244 159.54L532.548 158.48C531.08 160.829 529.096 161.946 526.508 161.946V163.946ZM534.236 159.553C535.218 158.035 536.112 155.791 536.941 152.889C537.774 149.971 538.561 146.324 539.302 141.957L537.33 141.623C536.596 145.948 535.824 149.517 535.018 152.339C534.207 155.177 533.378 157.197 532.557 158.467L534.236 159.553ZM538.199 142.783L542.381 143.275L542.615 141.289L538.433 140.797L538.199 142.783ZM541.507 142.154C539.705 156.075 536.533 165.128 532.185 169.631L533.624 171.021C538.46 166.012 541.684 156.369 543.49 142.41L541.507 142.154ZM532.172 169.645C530.13 171.838 526.983 173.55 522.623 174.71C518.266 175.869 512.763 176.46 506.09 176.46V178.46C512.866 178.46 518.556 177.862 523.137 176.643C527.715 175.425 531.251 173.57 533.636 171.007L532.172 169.645ZM506.09 176.46C492.761 176.46 483.508 173.367 478.044 167.435L476.573 168.789C482.589 175.321 492.523 178.46 506.09 178.46V176.46ZM478.062 167.455C472.744 161.355 469.944 149.798 469.944 132.442H467.944C467.944 149.854 470.721 162.077 476.555 168.769L478.062 167.455ZM469.944 132.442V114.484H467.944V132.442H469.944ZM469.944 114.484C469.944 105.253 468.715 98.3101 466.121 93.8123L464.388 94.8117C466.713 98.8419 467.944 105.347 467.944 114.484H469.944ZM466.135 93.8379C463.608 89.1453 458.844 86.916 452.216 86.916V88.916C458.381 88.916 462.309 90.9507 464.374 94.7861L466.135 93.8379ZM438.178 7.47399V83.242H440.178V7.47399H438.178ZM439.178 84.242H447.05V82.242H439.178V84.242ZM447.05 84.242C456.61 84.242 463.836 81.2966 468.506 75.2428L466.923 74.0212C462.737 79.4474 456.186 82.242 447.05 82.242V84.242ZM468.495 75.2567C473.302 69.2477 475.602 59.6161 475.602 46.588H473.602C473.602 59.4718 471.31 68.5363 466.933 74.0073L468.495 75.2567ZM475.602 46.588V39.454H473.602V46.588H475.602ZM475.602 39.454C475.602 32.927 475.045 27.4644 473.91 23.0897C472.776 18.721 471.045 15.363 468.64 13.1362L467.281 14.6038C469.304 16.477 470.894 19.433 471.974 23.5923C473.052 27.7456 473.602 33.025 473.602 39.454H475.602ZM468.667 13.1629C464.132 8.6276 456.925 6.47399 447.296 6.47399V8.47399C456.691 8.47399 463.261 10.5844 467.253 14.5771L468.667 13.1629ZM447.296 6.47399H439.178V8.47399H447.296V6.47399ZM553.77 2.79999V1.79999H552.77V2.79999H553.77ZM628.8 2.79999H629.8V1.79999H628.8V2.79999ZM628.8 7.47399V8.47399H629.8V7.47399H628.8ZM615.27 7.47399V6.47399H614.27V7.47399H615.27ZM615.27 85.21H614.27V86.4908L615.513 86.1801L615.27 85.21ZM617.238 84.718L617.481 85.6881L617.778 85.6139L617.982 85.3862L617.238 84.718ZM686.61 7.47399L687.354 8.14217L688.852 6.47399H686.61V7.47399ZM667.176 7.47399H666.176V8.47399H667.176V7.47399ZM667.176 2.79999V1.79999H666.176V2.79999H667.176ZM710.226 2.79999H711.226V1.79999H710.226V2.79999ZM710.226 7.47399V8.47399H711.226V7.47399H710.226ZM695.466 7.47399V6.47399H695.019L694.721 6.80674L695.466 7.47399ZM653.154 54.706L652.409 54.0387L651.952 54.5498L652.264 55.1608L653.154 54.706ZM712.194 170.326L711.304 170.781L711.582 171.326H712.194V170.326ZM725.478 170.326H726.478V169.326H725.478V170.326ZM725.478 175V176H726.478V175H725.478ZM646.512 175H645.512V176H646.512V175ZM646.512 170.326V169.326H645.512V170.326H646.512ZM658.074 170.326V171.326H659.717L658.962 169.867L658.074 170.326ZM617.484 91.852L618.372 91.3926L618.019 90.7088L617.267 90.8758L617.484 91.852ZM615.27 92.344L615.053 91.3678L614.27 91.5418V92.344H615.27ZM615.27 170.326H614.27V171.326H615.27V170.326ZM628.8 170.326H629.8V169.326H628.8V170.326ZM628.8 175V176H629.8V175H628.8ZM553.77 175H552.77V176H553.77V175ZM553.77 170.326V169.326H552.77V170.326H553.77ZM567.3 170.326V171.326H568.3V170.326H567.3ZM567.3 7.47399H568.3V6.47399H567.3V7.47399ZM553.77 7.47399H552.77V8.47399H553.77V7.47399ZM553.77 3.79999H628.8V1.79999H553.77V3.79999ZM627.8 2.79999V7.47399H629.8V2.79999H627.8ZM628.8 6.47399H615.27V8.47399H628.8V6.47399ZM614.27 7.47399V85.21H616.27V7.47399H614.27ZM615.513 86.1801L617.481 85.6881L616.996 83.7479L615.028 84.2399L615.513 86.1801ZM617.982 85.3862L687.354 8.14217L685.866 6.80581L616.494 84.0498L617.982 85.3862ZM686.61 6.47399H667.176V8.47399H686.61V6.47399ZM668.176 7.47399V2.79999H666.176V7.47399H668.176ZM667.176 3.79999H710.226V1.79999H667.176V3.79999ZM709.226 2.79999V7.47399H711.226V2.79999H709.226ZM710.226 6.47399H695.466V8.47399H710.226V6.47399ZM694.721 6.80674L652.409 54.0387L653.899 55.3732L696.211 8.14123L694.721 6.80674ZM652.264 55.1608L711.304 170.781L713.085 169.871L654.045 54.2512L652.264 55.1608ZM712.194 171.326H725.478V169.326H712.194V171.326ZM724.478 170.326V175H726.478V170.326H724.478ZM725.478 174H646.512V176H725.478V174ZM647.512 175V170.326H645.512V175H647.512ZM646.512 171.326H658.074V169.326H646.512V171.326ZM658.962 169.867L618.372 91.3926L616.596 92.3114L657.186 170.785L658.962 169.867ZM617.267 90.8758L615.053 91.3678L615.487 93.3202L617.701 92.8282L617.267 90.8758ZM614.27 92.344V170.326H616.27V92.344H614.27ZM615.27 171.326H628.8V169.326H615.27V171.326ZM627.8 170.326V175H629.8V170.326H627.8ZM628.8 174H553.77V176H628.8V174ZM554.77 175V170.326H552.77V175H554.77ZM553.77 171.326H567.3V169.326H553.77V171.326ZM568.3 170.326V7.47399H566.3V170.326H568.3ZM567.3 6.47399H553.77V8.47399H567.3V6.47399ZM554.77 7.47399V2.79999H552.77V7.47399H554.77ZM733.442 2.79999V1.79999H732.442V2.79999H733.442ZM861.362 2.79999L862.361 2.74955L862.313 1.79999H861.362V2.79999ZM863.822 51.508V52.508H864.874L864.821 51.4576L863.822 51.508ZM859.394 51.508L858.471 51.892L858.727 52.508H859.394V51.508ZM837.746 17.56L837.109 18.331L837.12 18.3392L837.746 17.56ZM795.926 8.21199V7.21199H794.926V8.21199H795.926ZM795.926 84.226H794.926V85.226H795.926V84.226ZM823.724 75.616L824.462 76.2908L824.472 76.2804L823.724 75.616ZM834.794 52V51H833.988L833.817 51.7882L834.794 52ZM838.484 52H839.484V51H838.484V52ZM838.484 124.816V125.816H839.484V124.816H838.484ZM834.302 124.816L833.33 125.049L833.514 125.816H834.302V124.816ZM822.248 98.494L821.519 99.1779L821.524 99.1839L821.53 99.1898L822.248 98.494ZM795.926 90.622V89.622H794.926V90.622H795.926ZM795.926 169.588H794.926V170.588H795.926V169.588ZM843.65 156.058L843.004 155.295L842.999 155.3L843.65 156.058ZM865.544 121.372V120.372H864.785L864.581 121.103L865.544 121.372ZM870.464 121.372L871.464 121.409L871.502 120.372H870.464V121.372ZM868.496 175V176H869.46L869.496 175.037L868.496 175ZM733.442 175H732.442V176H733.442V175ZM733.442 169.588V168.588H732.442V169.588H733.442ZM747.956 169.588V170.588H748.956V169.588H747.956ZM747.956 8.21199H748.956V7.21199H747.956V8.21199ZM733.442 8.21199H732.442V9.21199H733.442V8.21199ZM733.442 3.79999H861.362V1.79999H733.442V3.79999ZM860.364 2.85043L862.824 51.5584L864.821 51.4576L862.361 2.74955L860.364 2.85043ZM863.822 50.508H859.394V52.508H863.822V50.508ZM860.318 51.124C853.412 34.5165 846.117 23.0094 838.373 16.7808L837.12 18.3392C844.464 24.2466 851.601 35.3715 858.471 51.892L860.318 51.124ZM838.383 16.789C830.59 10.3514 819.255 7.21199 804.536 7.21199V9.21199C819.01 9.21199 829.814 12.3046 837.109 18.331L838.383 16.789ZM804.536 7.21199H795.926V9.21199H804.536V7.21199ZM794.926 8.21199V84.226H796.926V8.21199H794.926ZM795.926 85.226H804.29V83.226H795.926V85.226ZM804.29 85.226C812.282 85.226 819.027 82.2358 824.462 76.2908L822.986 74.9412C817.926 80.4762 811.715 83.226 804.29 83.226V85.226ZM824.472 76.2804C829.861 70.2171 833.613 62.1747 835.772 52.2118L833.817 51.7882C831.712 61.5053 828.083 69.2069 822.977 74.9516L824.472 76.2804ZM834.794 53H838.484V51H834.794V53ZM837.484 52V124.816H839.484V52H837.484ZM838.484 123.816H834.302V125.816H838.484V123.816ZM835.275 124.583C832.308 112.22 828.236 103.238 822.967 97.7982L821.53 99.1898C826.429 104.246 830.393 112.812 833.33 125.049L835.275 124.583ZM822.978 97.8101C817.83 92.3192 810.737 89.622 801.83 89.622V91.622C810.308 91.622 816.827 94.1728 821.519 99.1779L822.978 97.8101ZM801.83 89.622H795.926V91.622H801.83V89.622ZM794.926 90.622V169.588H796.926V90.622H794.926ZM795.926 170.588H805.274V168.588H795.926V170.588ZM805.274 170.588C820.578 170.588 833.608 166.007 844.302 156.816L842.999 155.3C832.701 164.149 820.146 168.588 805.274 168.588V170.588ZM844.296 156.821C855.117 147.666 862.521 135.928 866.508 121.641L864.581 121.103C860.696 135.024 853.504 146.41 843.004 155.295L844.296 156.821ZM865.544 122.372H870.464V120.372H865.544V122.372ZM869.465 121.335L867.497 174.963L869.496 175.037L871.464 121.409L869.465 121.335ZM868.496 174H733.442V176H868.496V174ZM734.442 175V169.588H732.442V175H734.442ZM733.442 170.588H747.956V168.588H733.442V170.588ZM748.956 169.588V8.21199H746.956V169.588H748.956ZM747.956 7.21199H733.442V9.21199H747.956V7.21199ZM734.442 8.21199V2.79999H732.442V8.21199H734.442ZM1030.79 2.79999L1031.79 2.76018L1031.76 1.79999H1030.79V2.79999ZM1033.25 64.546V65.546H1034.3L1034.25 64.5062L1033.25 64.546ZM1028.58 64.546L1027.63 64.8601L1027.86 65.546H1028.58V64.546ZM1009.39 20.02L1008.57 20.5901L1008.58 20.598L1009.39 20.02ZM982.333 7.966V6.966H981.333V7.966H982.333ZM982.333 169.834H981.333V170.834H982.333V169.834ZM1003.24 169.834H1004.24V168.834H1003.24V169.834ZM1003.24 175V176H1004.24V175H1003.24ZM913.453 175H912.453V176H913.453V175ZM913.453 169.834V168.834H912.453V169.834H913.453ZM934.363 169.834V170.834H935.363V169.834H934.363ZM934.363 7.966H935.363V6.966H934.363V7.966ZM906.811 20.512L907.63 21.0855L907.635 21.0778L906.811 20.512ZM887.869 64.546V65.546H888.595L888.82 64.8556L887.869 64.546ZM883.195 64.546L882.196 64.5062L882.154 65.546H883.195V64.546ZM885.655 2.79999V1.79999H884.694L884.656 2.76018L885.655 2.79999ZM1029.8 2.8398L1032.26 64.5858L1034.25 64.5062L1031.79 2.76018L1029.8 2.8398ZM1033.25 63.546H1028.58V65.546H1033.25V63.546ZM1029.53 64.2319C1022.31 42.4198 1015.88 27.4482 1010.21 19.442L1008.58 20.598C1014.06 28.3357 1020.42 43.0482 1027.63 64.8601L1029.53 64.2319ZM1010.21 19.4499C1004.44 11.1222 996.08 6.966 985.285 6.966V8.966C995.481 8.966 1003.2 12.8458 1008.57 20.5901L1010.21 19.4499ZM985.285 6.966H982.333V8.966H985.285V6.966ZM981.333 7.966V169.834H983.333V7.966H981.333ZM982.333 170.834H1003.24V168.834H982.333V170.834ZM1002.24 169.834V175H1004.24V169.834H1002.24ZM1003.24 174H913.453V176H1003.24V174ZM914.453 175V169.834H912.453V175H914.453ZM913.453 170.834H934.363V168.834H913.453V170.834ZM935.363 169.834V7.966H933.363V169.834H935.363ZM934.363 6.966H931.165V8.966H934.363V6.966ZM931.165 6.966C920.353 6.966 911.92 11.2993 905.986 19.9462L907.635 21.0778C913.181 12.9966 920.985 8.966 931.165 8.966V6.966ZM905.992 19.9385C900.16 28.27 893.809 43.0725 886.918 64.2364L888.82 64.8556C895.705 43.7075 901.982 29.1539 907.63 21.0855L905.992 19.9385ZM887.869 63.546H883.195V65.546H887.869V63.546ZM884.194 64.5858L886.654 2.8398L884.656 2.76018L882.196 64.5062L884.194 64.5858ZM885.655 3.79999H1030.79V1.79999H885.655V3.79999ZM1048.41 2.79999V1.79999H1047.41V2.79999H1048.41ZM1123.44 2.79999H1124.44V1.79999H1123.44V2.79999ZM1123.44 7.47399V8.47399H1124.44V7.47399H1123.44ZM1109.91 7.47399V6.47399H1108.91V7.47399H1109.91ZM1109.91 170.326H1108.91V171.326H1109.91V170.326ZM1123.44 170.326H1124.44V169.326H1123.44V170.326ZM1123.44 175V176H1124.44V175H1123.44ZM1048.41 175H1047.41V176H1048.41V175ZM1048.41 170.326V169.326H1047.41V170.326H1048.41ZM1061.94 170.326V171.326H1062.94V170.326H1061.94ZM1061.94 7.47399H1062.94V6.47399H1061.94V7.47399ZM1048.41 7.47399H1047.41V8.47399H1048.41V7.47399ZM1048.41 3.79999H1123.44V1.79999H1048.41V3.79999ZM1122.44 2.79999V7.47399H1124.44V2.79999H1122.44ZM1123.44 6.47399H1109.91V8.47399H1123.44V6.47399ZM1108.91 7.47399V170.326H1110.91V7.47399H1108.91ZM1109.91 171.326H1123.44V169.326H1109.91V171.326ZM1122.44 170.326V175H1124.44V170.326H1122.44ZM1123.44 174H1048.41V176H1123.44V174ZM1049.41 175V170.326H1047.41V175H1049.41ZM1048.41 171.326H1061.94V169.326H1048.41V171.326ZM1062.94 170.326V7.47399H1060.94V170.326H1062.94ZM1061.94 6.47399H1048.41V8.47399H1061.94V6.47399ZM1049.41 7.47399V2.79999H1047.41V7.47399H1049.41ZM1274.85 7.47399V6.47399H1273.85V7.47399H1274.85ZM1274.85 175V176H1275.85V175H1274.85ZM1240.41 175L1239.52 175.468L1239.81 176H1240.41V175ZM1156.03 15.838L1156.91 15.3696L1155.03 15.838H1156.03ZM1156.03 170.326H1155.03V171.326H1156.03V170.326ZM1169.56 170.326H1170.56V169.326H1169.56V170.326ZM1169.56 175V176H1170.56V175H1169.56ZM1135.86 175H1134.86V176H1135.86V175ZM1135.86 170.326V169.326H1134.86V170.326H1135.86ZM1149.39 170.326V171.326H1150.39V170.326H1149.39ZM1149.39 7.47399H1150.39V6.47399H1149.39V7.47399ZM1135.86 7.47399H1134.86V8.47399H1135.86V7.47399ZM1135.86 2.79999V1.79999H1134.86V2.79999H1135.86ZM1203.75 2.79999L1204.64 2.3373L1204.36 1.79999H1203.75V2.79999ZM1268.21 126.292L1267.32 126.755L1269.21 126.292H1268.21ZM1268.21 7.47399H1269.21V6.47399H1268.21V7.47399ZM1254.68 7.47399H1253.68V8.47399H1254.68V7.47399ZM1254.68 2.79999V1.79999H1253.68V2.79999H1254.68ZM1288.38 2.79999H1289.38V1.79999H1288.38V2.79999ZM1288.38 7.47399V8.47399H1289.38V7.47399H1288.38ZM1273.85 7.47399V175H1275.85V7.47399H1273.85ZM1274.85 174H1240.41V176H1274.85V174ZM1241.29 174.532L1156.91 15.3696L1155.15 16.3064L1239.52 175.468L1241.29 174.532ZM1155.03 15.838V170.326H1157.03V15.838H1155.03ZM1156.03 171.326H1169.56V169.326H1156.03V171.326ZM1168.56 170.326V175H1170.56V170.326H1168.56ZM1169.56 174H1135.86V176H1169.56V174ZM1136.86 175V170.326H1134.86V175H1136.86ZM1135.86 171.326H1149.39V169.326H1135.86V171.326ZM1150.39 170.326V7.47399H1148.39V170.326H1150.39ZM1149.39 6.47399H1135.86V8.47399H1149.39V6.47399ZM1136.86 7.47399V2.79999H1134.86V7.47399H1136.86ZM1135.86 3.79999H1203.75V1.79999H1135.86V3.79999ZM1202.87 3.26267L1267.32 126.755L1269.09 125.829L1204.64 2.3373L1202.87 3.26267ZM1269.21 126.292V7.47399H1267.21V126.292H1269.21ZM1268.21 6.47399H1254.68V8.47399H1268.21V6.47399ZM1255.68 7.47399V2.79999H1253.68V7.47399H1255.68ZM1254.68 3.79999H1288.38V1.79999H1254.68V3.79999ZM1287.38 2.79999V7.47399H1289.38V2.79999H1287.38ZM1288.38 6.47399H1274.85V8.47399H1288.38V6.47399ZM1403.3 168.112L1402.51 167.498L1402.5 167.512L1402.49 167.527L1403.3 168.112ZM1406.74 105.382H1407.74V104.382H1406.74V105.382ZM1391 105.382H1390V106.382H1391V105.382ZM1391 99.97V98.97H1390V99.97H1391ZM1461.85 99.97H1462.85V98.97H1461.85V99.97ZM1461.85 105.382V106.382H1462.85V105.382H1461.85ZM1452.25 105.382V104.382H1451.25V105.382H1452.25ZM1452.25 174.754V175.754H1453.25V174.754H1452.25ZM1448.56 174.754L1447.75 175.338L1448.05 175.754H1448.56V174.754ZM1415.35 173.032L1415.1 172.064L1415.1 172.064L1415.35 173.032ZM1324.09 155.812L1323.38 156.523L1323.39 156.527L1324.09 155.812ZM1325.07 23.71L1324.36 23.0104L1324.35 23.0142L1325.07 23.71ZM1417.07 4.02999L1416.82 4.99727L1416.83 4.9997L1416.84 5.00195L1417.07 4.02999ZM1438.48 6.736L1439.1 7.51686L1439.14 7.48227L1439.18 7.4431L1438.48 6.736ZM1441.18 2.79999V1.79999H1440.59L1440.3 2.32114L1441.18 2.79999ZM1443.89 2.79999L1444.89 2.76315L1444.85 1.79999H1443.89V2.79999ZM1445.86 56.182V57.182H1446.89L1446.86 56.1452L1445.86 56.182ZM1441.43 56.182L1440.54 56.6329L1440.81 57.182H1441.43V56.182ZM1417.07 18.79L1416.32 19.4485L1416.33 19.4556L1416.33 19.4627L1417.07 18.79ZM1361.48 153.844L1360.58 154.277L1360.58 154.284L1360.58 154.291L1361.48 153.844ZM1388.05 173.54C1392.12 173.54 1395.5 173.168 1398.17 172.393C1400.83 171.62 1402.87 170.42 1404.11 168.697L1402.49 167.527C1401.6 168.756 1400.03 169.77 1397.61 170.473C1395.19 171.174 1392.01 171.54 1388.05 171.54V173.54ZM1404.09 168.726C1406.6 165.5 1407.74 160.21 1407.74 153.106H1405.74C1405.74 160.106 1404.59 164.82 1402.51 167.498L1404.09 168.726ZM1407.74 153.106V105.382H1405.74V153.106H1407.74ZM1406.74 104.382H1391V106.382H1406.74V104.382ZM1392 105.382V99.97H1390V105.382H1392ZM1391 100.97H1461.85V98.97H1391V100.97ZM1460.85 99.97V105.382H1462.85V99.97H1460.85ZM1461.85 104.382H1452.25V106.382H1461.85V104.382ZM1451.25 105.382V174.754H1453.25V105.382H1451.25ZM1452.25 173.754H1448.56V175.754H1452.25V173.754ZM1449.37 174.17C1446.22 169.788 1441.72 167.604 1436.02 167.604V169.604C1441.13 169.604 1445 171.52 1447.75 175.338L1449.37 174.17ZM1436.02 167.604C1434.74 167.604 1432.34 167.999 1428.92 168.733C1425.46 169.475 1420.85 170.586 1415.1 172.064L1415.6 174C1421.34 172.526 1425.91 171.423 1429.34 170.689C1432.8 169.947 1434.99 169.604 1436.02 169.604V167.604ZM1415.1 172.064C1403.83 175.004 1394.25 176.46 1386.32 176.46V178.46C1394.47 178.46 1404.24 176.964 1415.6 174L1415.1 172.064ZM1386.32 176.46C1359.77 176.46 1339.31 169.297 1324.79 155.097L1323.39 156.527C1338.38 171.191 1359.41 178.46 1386.32 178.46V176.46ZM1324.79 155.101C1310.45 140.922 1303.19 119.575 1303.19 90.868H1301.19C1301.19 119.889 1308.53 141.838 1323.38 156.523L1324.79 155.101ZM1303.19 90.868C1303.19 62.0129 1310.77 39.909 1325.79 24.4058L1324.35 23.0142C1308.87 38.999 1301.19 61.6671 1301.19 90.868H1303.19ZM1325.78 24.4096C1340.98 8.89142 1361.37 1.09399 1387.06 1.09399V-0.906006C1360.93 -0.906006 1339.99 7.04057 1324.36 23.0104L1325.78 24.4096ZM1387.06 1.09399C1396.98 1.09399 1406.9 2.39426 1416.82 4.99727L1417.33 3.06271C1407.24 0.417726 1397.15 -0.906006 1387.06 -0.906006V1.09399ZM1416.84 5.00195C1421.93 6.23293 1425.96 7.15829 1428.92 7.77648C1431.84 8.38475 1433.84 8.72 1434.79 8.72V6.72C1434.09 6.72 1432.32 6.44024 1429.33 5.81852C1426.4 5.2067 1422.39 4.28705 1417.31 3.05803L1416.84 5.00195ZM1434.79 8.72C1436.53 8.72 1438.03 8.375 1439.1 7.51686L1437.85 5.95513C1437.28 6.40899 1436.32 6.72 1434.79 6.72V8.72ZM1439.18 7.4431C1440.1 6.52271 1441.06 5.11271 1442.06 3.27884L1440.3 2.32114C1439.34 4.09528 1438.49 5.30929 1437.77 6.02889L1439.18 7.4431ZM1441.18 3.79999H1443.89V1.79999H1441.18V3.79999ZM1442.89 2.83683L1444.86 56.2188L1446.86 56.1452L1444.89 2.76315L1442.89 2.83683ZM1445.86 55.182H1441.43V57.182H1445.86V55.182ZM1442.32 55.7311C1434.26 39.7761 1426.1 27.227 1417.81 18.1173L1416.33 19.4627C1424.45 28.393 1432.52 40.7719 1440.54 56.6329L1442.32 55.7311ZM1417.83 18.1315C1409.65 8.78239 1400.37 4.01399 1390.01 4.01399V6.01399C1399.67 6.01399 1408.43 10.4296 1416.32 19.4485L1417.83 18.1315ZM1390.01 4.01399C1383.57 4.01399 1377.89 5.59055 1373 8.77321C1368.12 11.9525 1364.09 16.6971 1360.9 22.947C1354.51 35.4178 1351.38 53.9971 1351.38 78.568H1353.38C1353.38 54.1028 1356.51 35.9052 1362.68 23.858C1365.75 17.8489 1369.56 13.3992 1374.09 10.449C1378.62 7.50218 1383.91 6.01399 1390.01 6.01399V4.01399ZM1351.38 78.568V98.002H1353.38V78.568H1351.38ZM1351.38 98.002C1351.38 122.655 1354.41 141.448 1360.58 154.277L1362.38 153.411C1356.41 140.984 1353.38 122.549 1353.38 98.002H1351.38ZM1360.58 154.291C1363.75 160.63 1367.62 165.449 1372.22 168.684C1376.83 171.926 1382.11 173.54 1388.05 173.54V171.54C1382.5 171.54 1377.62 170.038 1373.37 167.048C1369.11 164.051 1365.44 159.522 1362.37 153.397L1360.58 154.291Z" fill="white" fill-opacity="0.1"/>
</svg>
