<svg width="103" height="93" viewBox="0 0 103 93" fill="none" xmlns="http://www.w3.org/2000/svg">
<path d="M34.0578 26C38.6476 15.0521 38.3446 2 24.5092 2C9.33784 2 9.92186 17.6949 16 29.0993M34.0578 26H82.9558C83.8655 26 84.6606 26.6139 84.8907 27.4939L100.845 88.4939C101.176 89.7614 100.22 91 98.9097 91H35M34.0578 26C33.7292 26.7838 33.3756 27.5568 33 28.3134M16 29.0993C18.0033 32.858 20.6033 36.1507 23.4329 38.2618C24.0689 38.7364 24.9391 38.7192 25.5554 38.2193C28.3411 35.9596 30.9856 32.3716 33 28.3134M16 29.0993L1.59879 88.529C1.29376 89.7877 2.24736 91 3.54253 91H35M33 28.3134C37.6667 31.3756 43.7 41.4 30.5 57C17.3 72.6 28 86.1667 35 91M44 26C48.6667 29.0622 55.7 40.5866 42.5 56.1866C29.3 71.7866 42 86.1667 49 91M18.926 16.0983V16.0983C18.2039 16.0485 17.7231 15.3306 17.952 14.644L18.5442 12.8675C18.8164 12.0509 19.5807 11.5 20.4415 11.5H30.7251C32.0903 11.5 33.0542 12.8374 32.6225 14.1325L32.4386 14.6841C32.1748 15.4755 31.4475 16.0201 30.6138 16.0503L22.5 16.3448M18.926 16.0983L17.3437 20.5998C16.914 21.8222 17.7422 23.1242 19.0315 23.2531L19.2605 23.276C20.4523 23.3952 21.4809 22.4472 21.4591 21.2497L21.4365 20M18.926 16.0983L22.5 16.3448M22.5 16.3448L21.4365 20M21.4365 20H23.5275C24.6213 20 25.5122 19.1214 25.5273 18.0277L25.5554 16M64.5823 46.8223L63 51.3238C62.5703 52.5462 63.3986 53.8482 64.6878 53.9771L64.9168 54C66.1086 54.1192 67.1372 53.1712 67.1155 51.9736L67.0928 50.724M64.5823 46.8223L68.1563 47.0688M64.5823 46.8223C63.8603 46.7725 63.3795 46.0546 63.6083 45.3679L64.2005 43.5915C64.4727 42.7748 65.237 42.224 66.0978 42.224H76.3815C77.7466 42.224 78.7105 43.5613 78.2788 44.8564L78.095 45.408C77.8312 46.1995 77.1038 46.744 76.2701 46.7743L71.2085 46.958M68.1563 47.0688L71.2085 46.958M68.1563 47.0688L67.0928 50.724M71.2085 46.958L71.1837 48.7517C71.1685 49.8453 70.2776 50.724 69.1839 50.724H67.0928M71.2085 46.958L71.2118 46.724M70.4858 33.5C50.3142 33.5 57.9948 61.2453 69.4094 69.7618C70.0455 70.2364 70.9157 70.2192 71.532 69.7193C82.0916 61.1534 90.6242 33.5 70.4858 33.5Z" stroke="#FF2D55" stroke-width="3"/>
</svg>
